G75*
G70*
%OFA0B0*%
%FSLAX24Y24*%
%IPPOS*%
%LPD*%
%AMOC8*
5,1,8,0,0,1.08239X$1,22.5*
%
%ADD10C,0.0000*%
%ADD11C,0.0040*%
%ADD12C,0.0050*%
%ADD13C,0.0080*%
%ADD14C,0.0160*%
%ADD15C,0.0100*%
D10*
X001581Y002580D02*
X021266Y002580D01*
X020736Y003761D02*
X020738Y003811D01*
X020744Y003861D01*
X020754Y003910D01*
X020768Y003958D01*
X020785Y004005D01*
X020806Y004050D01*
X020831Y004094D01*
X020859Y004135D01*
X020891Y004174D01*
X020925Y004211D01*
X020962Y004245D01*
X021002Y004275D01*
X021044Y004302D01*
X021088Y004326D01*
X021134Y004347D01*
X021181Y004363D01*
X021229Y004376D01*
X021279Y004385D01*
X021328Y004390D01*
X021379Y004391D01*
X021429Y004388D01*
X021478Y004381D01*
X021527Y004370D01*
X021575Y004355D01*
X021621Y004337D01*
X021666Y004315D01*
X021709Y004289D01*
X021750Y004260D01*
X021789Y004228D01*
X021825Y004193D01*
X021857Y004155D01*
X021887Y004115D01*
X021914Y004072D01*
X021937Y004028D01*
X021956Y003982D01*
X021972Y003934D01*
X021984Y003885D01*
X021992Y003836D01*
X021996Y003786D01*
X021996Y003736D01*
X021992Y003686D01*
X021984Y003637D01*
X021972Y003588D01*
X021956Y003540D01*
X021937Y003494D01*
X021914Y003450D01*
X021887Y003407D01*
X021857Y003367D01*
X021825Y003329D01*
X021789Y003294D01*
X021750Y003262D01*
X021709Y003233D01*
X021666Y003207D01*
X021621Y003185D01*
X021575Y003167D01*
X021527Y003152D01*
X021478Y003141D01*
X021429Y003134D01*
X021379Y003131D01*
X021328Y003132D01*
X021279Y003137D01*
X021229Y003146D01*
X021181Y003159D01*
X021134Y003175D01*
X021088Y003196D01*
X021044Y003220D01*
X021002Y003247D01*
X020962Y003277D01*
X020925Y003311D01*
X020891Y003348D01*
X020859Y003387D01*
X020831Y003428D01*
X020806Y003472D01*
X020785Y003517D01*
X020768Y003564D01*
X020754Y003612D01*
X020744Y003661D01*
X020738Y003711D01*
X020736Y003761D01*
X021266Y002580D02*
X021335Y002579D01*
X021404Y002582D01*
X021473Y002589D01*
X021541Y002600D01*
X021609Y002614D01*
X021675Y002633D01*
X021741Y002655D01*
X021805Y002680D01*
X021868Y002709D01*
X021929Y002742D01*
X021988Y002778D01*
X022044Y002817D01*
X022099Y002860D01*
X022151Y002905D01*
X022201Y002953D01*
X022247Y003004D01*
X022291Y003058D01*
X022332Y003114D01*
X022369Y003172D01*
X022403Y003232D01*
X022434Y003294D01*
X022461Y003357D01*
X022485Y003422D01*
X022505Y003488D01*
X022521Y003556D01*
X022534Y003623D01*
X022542Y003692D01*
X022547Y003761D01*
X022547Y024099D01*
X020736Y024099D02*
X020738Y024149D01*
X020744Y024199D01*
X020754Y024248D01*
X020768Y024296D01*
X020785Y024343D01*
X020806Y024388D01*
X020831Y024432D01*
X020859Y024473D01*
X020891Y024512D01*
X020925Y024549D01*
X020962Y024583D01*
X021002Y024613D01*
X021044Y024640D01*
X021088Y024664D01*
X021134Y024685D01*
X021181Y024701D01*
X021229Y024714D01*
X021279Y024723D01*
X021328Y024728D01*
X021379Y024729D01*
X021429Y024726D01*
X021478Y024719D01*
X021527Y024708D01*
X021575Y024693D01*
X021621Y024675D01*
X021666Y024653D01*
X021709Y024627D01*
X021750Y024598D01*
X021789Y024566D01*
X021825Y024531D01*
X021857Y024493D01*
X021887Y024453D01*
X021914Y024410D01*
X021937Y024366D01*
X021956Y024320D01*
X021972Y024272D01*
X021984Y024223D01*
X021992Y024174D01*
X021996Y024124D01*
X021996Y024074D01*
X021992Y024024D01*
X021984Y023975D01*
X021972Y023926D01*
X021956Y023878D01*
X021937Y023832D01*
X021914Y023788D01*
X021887Y023745D01*
X021857Y023705D01*
X021825Y023667D01*
X021789Y023632D01*
X021750Y023600D01*
X021709Y023571D01*
X021666Y023545D01*
X021621Y023523D01*
X021575Y023505D01*
X021527Y023490D01*
X021478Y023479D01*
X021429Y023472D01*
X021379Y023469D01*
X021328Y023470D01*
X021279Y023475D01*
X021229Y023484D01*
X021181Y023497D01*
X021134Y023513D01*
X021088Y023534D01*
X021044Y023558D01*
X021002Y023585D01*
X020962Y023615D01*
X020925Y023649D01*
X020891Y023686D01*
X020859Y023725D01*
X020831Y023766D01*
X020806Y023810D01*
X020785Y023855D01*
X020768Y023902D01*
X020754Y023950D01*
X020744Y023999D01*
X020738Y024049D01*
X020736Y024099D01*
X021366Y025280D02*
X021432Y025278D01*
X021498Y025273D01*
X021564Y025263D01*
X021629Y025250D01*
X021693Y025234D01*
X021756Y025214D01*
X021818Y025190D01*
X021878Y025163D01*
X021937Y025133D01*
X021994Y025099D01*
X022049Y025062D01*
X022102Y025022D01*
X022153Y024980D01*
X022201Y024934D01*
X022247Y024886D01*
X022289Y024835D01*
X022329Y024782D01*
X022366Y024727D01*
X022400Y024670D01*
X022430Y024611D01*
X022457Y024551D01*
X022481Y024489D01*
X022501Y024426D01*
X022517Y024362D01*
X022530Y024297D01*
X022540Y024231D01*
X022545Y024165D01*
X022547Y024099D01*
X021366Y025280D02*
X001681Y025280D01*
X001051Y024099D02*
X001053Y024149D01*
X001059Y024199D01*
X001069Y024248D01*
X001083Y024296D01*
X001100Y024343D01*
X001121Y024388D01*
X001146Y024432D01*
X001174Y024473D01*
X001206Y024512D01*
X001240Y024549D01*
X001277Y024583D01*
X001317Y024613D01*
X001359Y024640D01*
X001403Y024664D01*
X001449Y024685D01*
X001496Y024701D01*
X001544Y024714D01*
X001594Y024723D01*
X001643Y024728D01*
X001694Y024729D01*
X001744Y024726D01*
X001793Y024719D01*
X001842Y024708D01*
X001890Y024693D01*
X001936Y024675D01*
X001981Y024653D01*
X002024Y024627D01*
X002065Y024598D01*
X002104Y024566D01*
X002140Y024531D01*
X002172Y024493D01*
X002202Y024453D01*
X002229Y024410D01*
X002252Y024366D01*
X002271Y024320D01*
X002287Y024272D01*
X002299Y024223D01*
X002307Y024174D01*
X002311Y024124D01*
X002311Y024074D01*
X002307Y024024D01*
X002299Y023975D01*
X002287Y023926D01*
X002271Y023878D01*
X002252Y023832D01*
X002229Y023788D01*
X002202Y023745D01*
X002172Y023705D01*
X002140Y023667D01*
X002104Y023632D01*
X002065Y023600D01*
X002024Y023571D01*
X001981Y023545D01*
X001936Y023523D01*
X001890Y023505D01*
X001842Y023490D01*
X001793Y023479D01*
X001744Y023472D01*
X001694Y023469D01*
X001643Y023470D01*
X001594Y023475D01*
X001544Y023484D01*
X001496Y023497D01*
X001449Y023513D01*
X001403Y023534D01*
X001359Y023558D01*
X001317Y023585D01*
X001277Y023615D01*
X001240Y023649D01*
X001206Y023686D01*
X001174Y023725D01*
X001146Y023766D01*
X001121Y023810D01*
X001100Y023855D01*
X001083Y023902D01*
X001069Y023950D01*
X001059Y023999D01*
X001053Y024049D01*
X001051Y024099D01*
X000500Y024099D02*
X000500Y022830D01*
X005600Y022830D01*
X005600Y018580D01*
X000500Y018580D01*
X000500Y003780D01*
X000500Y003761D01*
X000499Y003695D01*
X000502Y003629D01*
X000509Y003564D01*
X000519Y003499D01*
X000533Y003435D01*
X000551Y003371D01*
X000573Y003309D01*
X000598Y003248D01*
X000627Y003189D01*
X000659Y003131D01*
X000694Y003076D01*
X000733Y003022D01*
X000774Y002971D01*
X000819Y002923D01*
X000866Y002877D01*
X000916Y002834D01*
X000968Y002794D01*
X001022Y002757D01*
X001079Y002723D01*
X001137Y002692D01*
X001197Y002665D01*
X001259Y002642D01*
X001322Y002622D01*
X001385Y002606D01*
X001450Y002594D01*
X001515Y002585D01*
X001581Y002580D01*
X000500Y024099D02*
X000502Y024165D01*
X000507Y024231D01*
X000517Y024297D01*
X000530Y024362D01*
X000546Y024426D01*
X000566Y024489D01*
X000590Y024551D01*
X000617Y024611D01*
X000647Y024670D01*
X000681Y024727D01*
X000718Y024782D01*
X000758Y024835D01*
X000800Y024886D01*
X000846Y024934D01*
X000894Y024980D01*
X000945Y025022D01*
X000998Y025062D01*
X001053Y025099D01*
X001110Y025133D01*
X001169Y025163D01*
X001229Y025190D01*
X001291Y025214D01*
X001354Y025234D01*
X001418Y025250D01*
X001483Y025263D01*
X001549Y025273D01*
X001615Y025278D01*
X001681Y025280D01*
X014890Y012620D02*
X014892Y012667D01*
X014898Y012714D01*
X014907Y012760D01*
X014921Y012805D01*
X014938Y012849D01*
X014959Y012892D01*
X014983Y012932D01*
X015010Y012971D01*
X015041Y013007D01*
X015074Y013040D01*
X015110Y013071D01*
X015149Y013098D01*
X015189Y013122D01*
X015232Y013143D01*
X015276Y013160D01*
X015321Y013174D01*
X015367Y013183D01*
X015414Y013189D01*
X015461Y013191D01*
X015508Y013189D01*
X015555Y013183D01*
X015601Y013174D01*
X015646Y013160D01*
X015690Y013143D01*
X015733Y013122D01*
X015773Y013098D01*
X015812Y013071D01*
X015848Y013040D01*
X015881Y013007D01*
X015912Y012971D01*
X015939Y012932D01*
X015963Y012892D01*
X015984Y012849D01*
X016001Y012805D01*
X016015Y012760D01*
X016024Y012714D01*
X016030Y012667D01*
X016032Y012620D01*
X016030Y012573D01*
X016024Y012526D01*
X016015Y012480D01*
X016001Y012435D01*
X015984Y012391D01*
X015963Y012348D01*
X015939Y012308D01*
X015912Y012269D01*
X015881Y012233D01*
X015848Y012200D01*
X015812Y012169D01*
X015773Y012142D01*
X015733Y012118D01*
X015690Y012097D01*
X015646Y012080D01*
X015601Y012066D01*
X015555Y012057D01*
X015508Y012051D01*
X015461Y012049D01*
X015414Y012051D01*
X015367Y012057D01*
X015321Y012066D01*
X015276Y012080D01*
X015232Y012097D01*
X015189Y012118D01*
X015149Y012142D01*
X015110Y012169D01*
X015074Y012200D01*
X015041Y012233D01*
X015010Y012269D01*
X014983Y012308D01*
X014959Y012348D01*
X014938Y012391D01*
X014921Y012435D01*
X014907Y012480D01*
X014898Y012526D01*
X014892Y012573D01*
X014890Y012620D01*
D11*
X013990Y013000D02*
X013990Y013107D01*
X013990Y013054D02*
X013670Y013054D01*
X013670Y013107D02*
X013670Y013000D01*
X013670Y013221D02*
X013884Y013221D01*
X013884Y013382D01*
X013830Y013435D01*
X013670Y013435D01*
X013670Y013553D02*
X013670Y013713D01*
X013723Y013766D01*
X013777Y013713D01*
X013777Y013606D01*
X013830Y013553D01*
X013884Y013606D01*
X013884Y013766D01*
X013830Y013884D02*
X013884Y013938D01*
X013884Y014044D01*
X013830Y014098D01*
X013777Y014098D01*
X013777Y013884D01*
X013830Y013884D02*
X013723Y013884D01*
X013670Y013938D01*
X013670Y014044D01*
X013670Y014216D02*
X013884Y014216D01*
X013884Y014323D02*
X013884Y014376D01*
X013884Y014323D02*
X013777Y014216D01*
X013884Y014492D02*
X013884Y014599D01*
X013937Y014545D02*
X013723Y014545D01*
X013670Y014599D01*
X013494Y014601D02*
X013440Y014601D01*
X013334Y014601D02*
X013334Y014547D01*
X013334Y014601D02*
X013120Y014601D01*
X013120Y014654D02*
X013120Y014547D01*
X013120Y014433D02*
X013173Y014380D01*
X013387Y014380D01*
X013334Y014433D02*
X013334Y014326D01*
X013280Y014208D02*
X013120Y014208D01*
X013280Y014208D02*
X013334Y014155D01*
X013334Y013995D01*
X013120Y013995D01*
X013120Y013877D02*
X013334Y013877D01*
X013334Y013663D02*
X013173Y013663D01*
X013120Y013717D01*
X013120Y013877D01*
X013173Y013545D02*
X013120Y013492D01*
X013120Y013385D01*
X013173Y013332D01*
X013280Y013332D01*
X013334Y013385D01*
X013334Y013492D01*
X013280Y013545D01*
X013173Y013545D01*
X013120Y013214D02*
X013280Y013214D01*
X013334Y013161D01*
X013280Y013107D01*
X013120Y013107D01*
X013120Y013000D02*
X013334Y013000D01*
X013334Y013054D01*
X013280Y013107D01*
X012784Y013054D02*
X012784Y013161D01*
X012730Y013214D01*
X012677Y013214D01*
X012677Y013000D01*
X012730Y013000D02*
X012784Y013054D01*
X012730Y013000D02*
X012623Y013000D01*
X012570Y013054D01*
X012570Y013161D01*
X012570Y013332D02*
X012784Y013332D01*
X012784Y013492D01*
X012730Y013545D01*
X012570Y013545D01*
X012570Y013663D02*
X012570Y013823D01*
X012623Y013877D01*
X012677Y013823D01*
X012677Y013717D01*
X012730Y013663D01*
X012784Y013717D01*
X012784Y013877D01*
X012784Y013995D02*
X012623Y013995D01*
X012570Y014048D01*
X012570Y014208D01*
X012784Y014208D01*
X012784Y014326D02*
X012570Y014326D01*
X012677Y014326D02*
X012784Y014433D01*
X012784Y014486D01*
X012730Y014603D02*
X012623Y014603D01*
X012570Y014656D01*
X012570Y014763D01*
X012677Y014816D02*
X012677Y014603D01*
X012730Y014603D02*
X012784Y014656D01*
X012784Y014763D01*
X012730Y014816D01*
X012677Y014816D01*
X013120Y014768D02*
X013334Y014768D01*
X013334Y014928D01*
X013280Y014982D01*
X013120Y014982D01*
X013173Y015100D02*
X013120Y015153D01*
X013120Y015313D01*
X013067Y015313D02*
X013334Y015313D01*
X013334Y015153D01*
X013280Y015100D01*
X013173Y015100D01*
X013013Y015207D02*
X013013Y015260D01*
X013067Y015313D01*
X012784Y015319D02*
X012730Y015266D01*
X012623Y015266D01*
X012570Y015319D01*
X012570Y015479D01*
X012623Y015597D02*
X012570Y015650D01*
X012570Y015757D01*
X012623Y015811D01*
X012730Y015811D01*
X012784Y015757D01*
X012784Y015650D01*
X012730Y015597D01*
X012623Y015597D01*
X012784Y015479D02*
X012784Y015319D01*
X012784Y015928D02*
X012570Y015928D01*
X012677Y015928D02*
X012784Y016035D01*
X012784Y016089D01*
X012784Y016205D02*
X012570Y016205D01*
X012677Y016205D02*
X012784Y016311D01*
X012784Y016365D01*
X012730Y016481D02*
X012623Y016481D01*
X012570Y016534D01*
X012570Y016641D01*
X012677Y016694D02*
X012677Y016481D01*
X012730Y016481D02*
X012784Y016534D01*
X012784Y016641D01*
X012730Y016694D01*
X012677Y016694D01*
X012730Y016812D02*
X012623Y016812D01*
X012570Y016866D01*
X012570Y017026D01*
X012623Y017197D02*
X012570Y017251D01*
X012623Y017197D02*
X012837Y017197D01*
X012784Y017144D02*
X012784Y017251D01*
X012784Y017026D02*
X012784Y016866D01*
X012730Y016812D01*
X013120Y016860D02*
X013227Y016753D01*
X013227Y016807D02*
X013227Y016647D01*
X013120Y016647D02*
X013440Y016647D01*
X013440Y016807D01*
X013387Y016860D01*
X013280Y016860D01*
X013227Y016807D01*
X013173Y016978D02*
X013120Y017032D01*
X013120Y017192D01*
X013280Y017192D01*
X013334Y017138D01*
X013334Y017032D01*
X013227Y017032D02*
X013227Y017192D01*
X013280Y017310D02*
X013334Y017363D01*
X013334Y017523D01*
X013334Y017641D02*
X013334Y017801D01*
X013280Y017855D01*
X013173Y017855D01*
X013120Y017801D01*
X013120Y017641D01*
X013013Y017641D02*
X013334Y017641D01*
X013173Y017523D02*
X013227Y017470D01*
X013227Y017363D01*
X013280Y017310D01*
X013120Y017310D02*
X013120Y017470D01*
X013173Y017523D01*
X013120Y017973D02*
X013120Y018133D01*
X013173Y018186D01*
X013280Y018186D01*
X013334Y018133D01*
X013334Y017973D01*
X013440Y017973D02*
X013120Y017973D01*
X013173Y018304D02*
X013120Y018357D01*
X013120Y018464D01*
X013227Y018518D02*
X013227Y018304D01*
X013280Y018304D02*
X013334Y018357D01*
X013334Y018464D01*
X013280Y018518D01*
X013227Y018518D01*
X013227Y018636D02*
X013334Y018742D01*
X013334Y018796D01*
X013334Y018912D02*
X013120Y018912D01*
X013227Y018912D02*
X013334Y019019D01*
X013334Y019072D01*
X013334Y019188D02*
X013173Y019188D01*
X013120Y019241D01*
X013120Y019402D01*
X013067Y019402D02*
X013013Y019348D01*
X013013Y019295D01*
X013067Y019402D02*
X013334Y019402D01*
X013440Y019851D02*
X013120Y019851D01*
X013227Y019851D02*
X013227Y020011D01*
X013280Y020065D01*
X013387Y020065D01*
X013440Y020011D01*
X013440Y019851D01*
X013670Y019960D02*
X013723Y019906D01*
X013830Y019906D01*
X013884Y019960D01*
X013884Y020066D01*
X013830Y020120D01*
X013777Y020120D01*
X013777Y019906D01*
X013670Y019960D02*
X013670Y020066D01*
X013670Y020291D02*
X013937Y020291D01*
X013990Y020345D01*
X013830Y020345D02*
X013830Y020238D01*
X013830Y020459D02*
X013723Y020459D01*
X013670Y020512D01*
X013670Y020619D01*
X013723Y020672D01*
X013830Y020672D01*
X013884Y020619D01*
X013884Y020512D01*
X013830Y020459D01*
X013777Y020790D02*
X013884Y020897D01*
X013884Y020950D01*
X013830Y021066D02*
X013884Y021120D01*
X013884Y021227D01*
X013830Y021280D01*
X013777Y021280D01*
X013777Y021066D01*
X013830Y021066D02*
X013723Y021066D01*
X013670Y021120D01*
X013670Y021227D01*
X013670Y020790D02*
X013884Y020790D01*
X013494Y020236D02*
X013440Y020236D01*
X013334Y020236D02*
X013334Y020183D01*
X013334Y020236D02*
X013120Y020236D01*
X013120Y020183D02*
X013120Y020289D01*
X013013Y020404D02*
X013120Y020510D01*
X013120Y020457D01*
X013173Y020457D01*
X013173Y020510D01*
X013120Y020510D01*
X013280Y020510D02*
X013280Y020457D01*
X013334Y020457D01*
X013334Y020510D01*
X013280Y020510D01*
X012944Y020015D02*
X012890Y020015D01*
X012784Y020015D02*
X012570Y020015D01*
X012570Y019962D02*
X012570Y020068D01*
X012623Y020183D02*
X012570Y020236D01*
X012570Y020343D01*
X012623Y020396D01*
X012730Y020396D01*
X012784Y020343D01*
X012784Y020236D01*
X012730Y020183D01*
X012623Y020183D01*
X012784Y020015D02*
X012784Y019962D01*
X012784Y019847D02*
X012784Y019741D01*
X012837Y019794D02*
X012623Y019794D01*
X012570Y019847D01*
X012570Y019623D02*
X012570Y019462D01*
X012623Y019409D01*
X012677Y019462D01*
X012677Y019623D01*
X012730Y019623D02*
X012570Y019623D01*
X012730Y019623D02*
X012784Y019569D01*
X012784Y019462D01*
X012784Y019295D02*
X012784Y019188D01*
X012837Y019241D02*
X012623Y019241D01*
X012570Y019295D01*
X012570Y019070D02*
X012730Y019070D01*
X012784Y019017D01*
X012784Y018857D01*
X012570Y018857D01*
X012677Y018739D02*
X012677Y018525D01*
X012730Y018525D02*
X012784Y018578D01*
X012784Y018685D01*
X012730Y018739D01*
X012677Y018739D01*
X012570Y018685D02*
X012570Y018578D01*
X012623Y018525D01*
X012730Y018525D01*
X012784Y018357D02*
X012570Y018357D01*
X012570Y018304D02*
X012570Y018411D01*
X012784Y018357D02*
X012784Y018304D01*
X012784Y018188D02*
X012784Y018135D01*
X012677Y018028D01*
X012570Y018028D02*
X012784Y018028D01*
X012730Y017910D02*
X012784Y017857D01*
X012784Y017750D01*
X012730Y017696D01*
X012623Y017696D01*
X012570Y017750D01*
X012570Y017857D01*
X012623Y017910D01*
X012730Y017910D01*
X012890Y018357D02*
X012944Y018357D01*
X013173Y018304D02*
X013280Y018304D01*
X013334Y018636D02*
X013120Y018636D01*
X013670Y018691D02*
X013670Y018798D01*
X013670Y018744D02*
X013990Y018744D01*
X013990Y018691D01*
X013884Y018573D02*
X013670Y018573D01*
X013670Y018413D01*
X013723Y018359D01*
X013884Y018359D01*
X013884Y018241D02*
X013884Y018081D01*
X013830Y018028D01*
X013723Y018028D01*
X013670Y018081D01*
X013670Y018241D01*
X013990Y018241D01*
X013830Y017910D02*
X013884Y017857D01*
X013884Y017750D01*
X013830Y017696D01*
X013723Y017696D01*
X013670Y017750D01*
X013670Y017857D01*
X013723Y017910D01*
X013830Y017910D01*
X013830Y017578D02*
X013670Y017578D01*
X013670Y017472D02*
X013830Y017472D01*
X013884Y017525D01*
X013830Y017578D01*
X013830Y017472D02*
X013884Y017418D01*
X013884Y017365D01*
X013670Y017365D01*
X013723Y016915D02*
X013670Y016862D01*
X013670Y016755D01*
X013723Y016702D01*
X013937Y016915D01*
X013723Y016915D01*
X013723Y016702D02*
X013937Y016702D01*
X013990Y016755D01*
X013990Y016862D01*
X013937Y016915D01*
X013937Y016584D02*
X013723Y016584D01*
X013670Y016531D01*
X013670Y016424D01*
X013723Y016370D01*
X013937Y016584D01*
X013990Y016531D01*
X013990Y016424D01*
X013937Y016370D01*
X013723Y016370D01*
X013723Y016252D02*
X013937Y016252D01*
X013990Y016199D01*
X013990Y016092D01*
X013937Y016039D01*
X013884Y016039D01*
X013830Y016092D01*
X013830Y016252D01*
X013723Y016252D02*
X013670Y016199D01*
X013670Y016092D01*
X013723Y016039D01*
X013670Y015814D02*
X013990Y015814D01*
X013990Y015708D02*
X013990Y015921D01*
X013990Y015590D02*
X013670Y015590D01*
X013990Y015376D01*
X013670Y015376D01*
X013723Y015258D02*
X013937Y015258D01*
X013990Y015205D01*
X013990Y015045D01*
X013670Y015045D01*
X013670Y015205D01*
X013723Y015258D01*
X013387Y015816D02*
X013173Y015816D01*
X013120Y015870D01*
X013173Y015984D02*
X013120Y016037D01*
X013120Y016144D01*
X013173Y016197D01*
X013280Y016197D01*
X013334Y016144D01*
X013334Y016037D01*
X013280Y015984D01*
X013173Y015984D01*
X013334Y015870D02*
X013334Y015763D01*
X013173Y016978D02*
X013227Y017032D01*
X013723Y018912D02*
X013830Y018912D01*
X013884Y018965D01*
X013884Y019072D01*
X013830Y019125D01*
X013777Y019125D01*
X013777Y018912D01*
X013723Y018912D02*
X013670Y018965D01*
X013670Y019072D01*
X013670Y019575D02*
X013670Y019735D01*
X013723Y019788D01*
X013830Y019788D01*
X013884Y019735D01*
X013884Y019575D01*
X013990Y019575D02*
X013670Y019575D01*
X012784Y020514D02*
X012784Y020674D01*
X012730Y020728D01*
X012570Y020728D01*
X012570Y020514D02*
X012784Y020514D01*
X011884Y020343D02*
X011884Y020236D01*
X011830Y020183D01*
X011723Y020183D01*
X011670Y020236D01*
X011670Y020343D01*
X011723Y020396D01*
X011830Y020396D01*
X011884Y020343D01*
X011884Y020068D02*
X011884Y019962D01*
X011937Y020015D02*
X011723Y020015D01*
X011670Y020068D01*
X011440Y019960D02*
X011120Y019960D01*
X011120Y020013D02*
X011120Y019906D01*
X011120Y019792D02*
X011173Y019739D01*
X011387Y019739D01*
X011334Y019792D02*
X011334Y019685D01*
X011280Y019567D02*
X011334Y019514D01*
X011334Y019354D01*
X011120Y019354D01*
X011227Y019236D02*
X011227Y019022D01*
X011280Y019022D02*
X011334Y019076D01*
X011334Y019182D01*
X011280Y019236D01*
X011227Y019236D01*
X011120Y019182D02*
X011120Y019076D01*
X011173Y019022D01*
X011280Y019022D01*
X011280Y018904D02*
X011120Y018904D01*
X011280Y018904D02*
X011334Y018851D01*
X011334Y018691D01*
X011120Y018691D01*
X011120Y018573D02*
X011120Y018413D01*
X011173Y018359D01*
X011227Y018413D01*
X011227Y018573D01*
X011280Y018573D02*
X011120Y018573D01*
X011280Y018573D02*
X011334Y018519D01*
X011334Y018413D01*
X011280Y018241D02*
X011120Y018241D01*
X011120Y018135D02*
X011280Y018135D01*
X011334Y018188D01*
X011280Y018241D01*
X011280Y018135D02*
X011334Y018081D01*
X011334Y018028D01*
X011120Y018028D01*
X010890Y018083D02*
X010570Y018083D01*
X010570Y017969D02*
X010623Y017916D01*
X010837Y017916D01*
X010784Y017969D02*
X010784Y017862D01*
X010784Y017695D02*
X010570Y017695D01*
X010570Y017748D02*
X010570Y017641D01*
X010623Y017523D02*
X010570Y017470D01*
X010623Y017416D01*
X010570Y017363D01*
X010623Y017310D01*
X010784Y017310D01*
X010784Y017523D02*
X010623Y017523D01*
X010784Y017641D02*
X010784Y017695D01*
X010890Y017695D02*
X010944Y017695D01*
X011120Y017752D02*
X011334Y017752D01*
X011334Y017858D02*
X011334Y017912D01*
X011334Y017858D02*
X011227Y017752D01*
X011227Y017634D02*
X011227Y017420D01*
X011280Y017420D02*
X011334Y017474D01*
X011334Y017580D01*
X011280Y017634D01*
X011227Y017634D01*
X011120Y017580D02*
X011120Y017474D01*
X011173Y017420D01*
X011280Y017420D01*
X011280Y017302D02*
X011173Y017302D01*
X011120Y017249D01*
X011120Y017089D01*
X011013Y017089D02*
X011334Y017089D01*
X011334Y017249D01*
X011280Y017302D01*
X011120Y016643D02*
X011120Y016536D01*
X011120Y016590D02*
X011334Y016590D01*
X011334Y016536D01*
X011440Y016590D02*
X011494Y016590D01*
X011670Y016532D02*
X011670Y016426D01*
X011670Y016479D02*
X011990Y016479D01*
X011990Y016426D01*
X011830Y016647D02*
X011884Y016700D01*
X011884Y016807D01*
X011830Y016860D01*
X011777Y016860D01*
X011777Y016647D01*
X011830Y016647D02*
X011723Y016647D01*
X011670Y016700D01*
X011670Y016807D01*
X011723Y016978D02*
X011777Y017032D01*
X011777Y017192D01*
X011830Y017192D02*
X011670Y017192D01*
X011670Y017032D01*
X011723Y016978D01*
X011884Y017032D02*
X011884Y017138D01*
X011830Y017192D01*
X011884Y017310D02*
X011670Y017416D01*
X011884Y017523D01*
X011830Y017641D02*
X011884Y017695D01*
X011884Y017801D01*
X011830Y017855D01*
X011777Y017855D01*
X011777Y017641D01*
X011830Y017641D02*
X011723Y017641D01*
X011670Y017695D01*
X011670Y017801D01*
X011723Y018304D02*
X011670Y018357D01*
X011670Y018464D01*
X011723Y018518D01*
X011830Y018518D01*
X011884Y018464D01*
X011884Y018357D01*
X011830Y018304D01*
X011723Y018304D01*
X011670Y018636D02*
X011670Y018796D01*
X011723Y018849D01*
X011830Y018849D01*
X011884Y018796D01*
X011884Y018636D01*
X011563Y018636D01*
X011723Y018967D02*
X011830Y018967D01*
X011884Y019020D01*
X011884Y019127D01*
X011830Y019181D01*
X011777Y019181D01*
X011777Y018967D01*
X011723Y018967D02*
X011670Y019020D01*
X011670Y019127D01*
X011670Y019299D02*
X011884Y019299D01*
X011884Y019459D01*
X011830Y019512D01*
X011670Y019512D01*
X011440Y019906D02*
X011440Y019960D01*
X011334Y020127D02*
X011173Y020127D01*
X011120Y020181D01*
X011120Y020341D01*
X011067Y020341D02*
X011013Y020287D01*
X011013Y020234D01*
X011067Y020341D02*
X011334Y020341D01*
X011334Y020512D02*
X011280Y020512D01*
X011280Y020566D01*
X011334Y020566D01*
X011334Y020512D01*
X011173Y020512D02*
X011120Y020512D01*
X011120Y020566D01*
X011173Y020566D01*
X011173Y020512D01*
X011120Y020566D02*
X011013Y020459D01*
X010890Y020623D02*
X010837Y020569D01*
X010623Y020569D01*
X010570Y020623D01*
X010570Y020729D01*
X010623Y020783D01*
X010730Y020783D01*
X010730Y020676D01*
X010837Y020783D02*
X010890Y020729D01*
X010890Y020623D01*
X010890Y020901D02*
X010890Y021061D01*
X010837Y021114D01*
X010730Y021114D01*
X010677Y021061D01*
X010677Y020901D01*
X010570Y020901D02*
X010890Y020901D01*
X011120Y021065D02*
X011120Y021225D01*
X011120Y021343D02*
X011120Y021449D01*
X011120Y021396D02*
X011440Y021396D01*
X011440Y021343D01*
X011334Y021225D02*
X011334Y021065D01*
X011280Y021011D01*
X011173Y021011D01*
X011120Y021065D01*
X010890Y021232D02*
X010890Y021339D01*
X010890Y021286D02*
X010570Y021286D01*
X010570Y021339D02*
X010570Y021232D01*
X010623Y021453D02*
X010570Y021507D01*
X010570Y021613D01*
X010623Y021667D01*
X010837Y021667D01*
X010890Y021613D01*
X010890Y021507D01*
X010837Y021453D01*
X010623Y021453D01*
X010623Y021785D02*
X010570Y021838D01*
X010570Y021945D01*
X010623Y021998D01*
X010730Y021998D01*
X010784Y021945D01*
X010784Y021891D01*
X010730Y021785D01*
X010890Y021785D01*
X010890Y021998D01*
X011120Y022055D02*
X011173Y022109D01*
X011227Y022055D01*
X011227Y021949D01*
X011280Y021895D01*
X011334Y021949D01*
X011334Y022109D01*
X011280Y022227D02*
X011334Y022280D01*
X011334Y022387D01*
X011280Y022440D01*
X011227Y022440D01*
X011227Y022227D01*
X011280Y022227D02*
X011173Y022227D01*
X011120Y022280D01*
X011120Y022387D01*
X011120Y022055D02*
X011120Y021895D01*
X011173Y021777D02*
X011280Y021777D01*
X011334Y021724D01*
X011334Y021617D01*
X011280Y021564D01*
X011173Y021564D01*
X011120Y021617D01*
X011120Y021724D01*
X011173Y021777D01*
X011670Y021669D02*
X011723Y021722D01*
X011884Y021722D01*
X011830Y021840D02*
X011884Y021893D01*
X011884Y022000D01*
X011830Y022053D01*
X011777Y022053D01*
X011777Y021840D01*
X011830Y021840D02*
X011723Y021840D01*
X011670Y021893D01*
X011670Y022000D01*
X011670Y022171D02*
X011884Y022171D01*
X011884Y022278D02*
X011884Y022332D01*
X011884Y022278D02*
X011777Y022171D01*
X011670Y021669D02*
X011723Y021615D01*
X011670Y021562D01*
X011723Y021508D01*
X011884Y021508D01*
X011830Y021390D02*
X011884Y021337D01*
X011884Y021230D01*
X011830Y021177D01*
X011723Y021177D01*
X011670Y021230D01*
X011670Y021337D01*
X011723Y021390D01*
X011830Y021390D01*
X011830Y021059D02*
X011723Y021059D01*
X011670Y021006D01*
X011670Y020845D01*
X011563Y020845D02*
X011884Y020845D01*
X011884Y021006D01*
X011830Y021059D01*
X011280Y019567D02*
X011120Y019567D01*
X010890Y019567D02*
X010570Y019567D01*
X010570Y019407D01*
X010623Y019354D01*
X010730Y019354D01*
X010784Y019407D01*
X010784Y019567D01*
X010784Y019685D02*
X010784Y019739D01*
X010570Y019739D01*
X010570Y019792D02*
X010570Y019685D01*
X010623Y019906D02*
X010570Y019960D01*
X010570Y020066D01*
X010623Y020120D01*
X010730Y020120D01*
X010784Y020066D01*
X010784Y019960D01*
X010730Y019906D01*
X010623Y019906D01*
X010890Y019739D02*
X010944Y019739D01*
X010730Y019236D02*
X010570Y019236D01*
X010570Y019076D01*
X010623Y019022D01*
X010677Y019076D01*
X010677Y019236D01*
X010730Y019236D02*
X010784Y019182D01*
X010784Y019076D01*
X010784Y018906D02*
X010784Y018853D01*
X010677Y018746D01*
X010570Y018746D02*
X010784Y018746D01*
X010730Y018297D02*
X010570Y018297D01*
X010730Y018297D02*
X010784Y018243D01*
X010784Y018137D01*
X010730Y018083D01*
X009990Y018079D02*
X009670Y018079D01*
X009670Y017973D02*
X009670Y018186D01*
X009670Y018304D02*
X009723Y018304D01*
X009723Y018357D01*
X009670Y018357D01*
X009670Y018304D01*
X009830Y018304D02*
X009830Y018357D01*
X009884Y018357D01*
X009884Y018304D01*
X009830Y018304D01*
X009990Y018079D02*
X009884Y017973D01*
X009990Y017855D02*
X009990Y017748D01*
X009990Y017801D02*
X009723Y017801D01*
X009670Y017748D01*
X009670Y017695D01*
X009723Y017641D01*
X009723Y017523D02*
X009670Y017470D01*
X009670Y017363D01*
X009723Y017310D01*
X009830Y017363D02*
X009830Y017470D01*
X009777Y017523D01*
X009723Y017523D01*
X009830Y017363D02*
X009884Y017310D01*
X009937Y017310D01*
X009990Y017363D01*
X009990Y017470D01*
X009937Y017523D01*
X009884Y016862D02*
X009884Y016809D01*
X009777Y016702D01*
X009670Y016702D02*
X009884Y016702D01*
X009830Y016584D02*
X009777Y016584D01*
X009777Y016370D01*
X009830Y016370D02*
X009884Y016424D01*
X009884Y016531D01*
X009830Y016584D01*
X009670Y016531D02*
X009670Y016424D01*
X009723Y016370D01*
X009830Y016370D01*
X009830Y016252D02*
X009723Y016252D01*
X009670Y016199D01*
X009670Y016039D01*
X009563Y016039D02*
X009884Y016039D01*
X009884Y016199D01*
X009830Y016252D01*
X009830Y015921D02*
X009670Y015921D01*
X009670Y015814D02*
X009830Y015814D01*
X009884Y015868D01*
X009830Y015921D01*
X009830Y015814D02*
X009884Y015761D01*
X009884Y015708D01*
X009670Y015708D01*
X009670Y015590D02*
X009884Y015590D01*
X009884Y015376D02*
X009723Y015376D01*
X009670Y015429D01*
X009670Y015590D01*
X009617Y015262D02*
X009884Y015262D01*
X009990Y015262D02*
X010044Y015262D01*
X009884Y014707D02*
X009884Y014654D01*
X009777Y014547D01*
X009670Y014547D02*
X009884Y014547D01*
X009830Y014429D02*
X009777Y014429D01*
X009777Y014216D01*
X009830Y014216D02*
X009884Y014269D01*
X009884Y014376D01*
X009830Y014429D01*
X009670Y014376D02*
X009670Y014269D01*
X009723Y014216D01*
X009830Y014216D01*
X009884Y014098D02*
X009884Y013938D01*
X009830Y013884D01*
X009723Y013884D01*
X009670Y013938D01*
X009670Y014098D01*
X009990Y014098D01*
X009990Y013717D02*
X009670Y013717D01*
X009670Y013770D02*
X009670Y013663D01*
X009723Y013545D02*
X009670Y013492D01*
X009670Y013385D01*
X009723Y013332D01*
X009830Y013332D01*
X009884Y013385D01*
X009884Y013492D01*
X009830Y013545D01*
X009723Y013545D01*
X009990Y013663D02*
X009990Y013717D01*
X009937Y013214D02*
X009990Y013161D01*
X009990Y013054D01*
X009937Y013000D01*
X009884Y013000D01*
X009830Y013054D01*
X009830Y013161D01*
X009777Y013214D01*
X009723Y013214D01*
X009670Y013161D01*
X009670Y013054D01*
X009723Y013000D01*
X009334Y013000D02*
X009334Y013161D01*
X009280Y013214D01*
X009173Y013214D01*
X009120Y013161D01*
X009120Y013000D01*
X009013Y013000D02*
X009334Y013000D01*
X009334Y013332D02*
X009120Y013332D01*
X009227Y013332D02*
X009334Y013439D01*
X009334Y013492D01*
X009280Y013608D02*
X009173Y013608D01*
X009120Y013661D01*
X009120Y013768D01*
X009173Y013822D01*
X009280Y013822D01*
X009334Y013768D01*
X009334Y013661D01*
X009280Y013608D01*
X009334Y013940D02*
X009120Y014046D01*
X009334Y014153D01*
X009334Y014271D02*
X009334Y014324D01*
X009120Y014324D01*
X009120Y014271D02*
X009120Y014378D01*
X009173Y014492D02*
X009280Y014492D01*
X009334Y014545D01*
X009334Y014706D01*
X009440Y014706D02*
X009120Y014706D01*
X009120Y014545D01*
X009173Y014492D01*
X009440Y014324D02*
X009494Y014324D01*
X009334Y014824D02*
X009334Y014877D01*
X009120Y014877D01*
X009120Y014824D02*
X009120Y014930D01*
X009120Y015045D02*
X009334Y015045D01*
X009334Y015205D01*
X009280Y015258D01*
X009120Y015258D01*
X009173Y015376D02*
X009120Y015429D01*
X009120Y015590D01*
X009067Y015590D02*
X009334Y015590D01*
X009334Y015429D01*
X009280Y015376D01*
X009173Y015376D01*
X009013Y015483D02*
X009013Y015536D01*
X009067Y015590D01*
X008784Y015542D02*
X008784Y015702D01*
X008730Y015755D01*
X008570Y015755D01*
X008570Y015873D02*
X008784Y015873D01*
X008784Y016033D01*
X008730Y016087D01*
X008570Y016087D01*
X008623Y016205D02*
X008730Y016205D01*
X008784Y016258D01*
X008784Y016365D01*
X008730Y016418D01*
X008677Y016418D01*
X008677Y016205D01*
X008623Y016205D02*
X008570Y016258D01*
X008570Y016365D01*
X008623Y016536D02*
X008570Y016590D01*
X008570Y016750D01*
X008623Y016921D02*
X008570Y016974D01*
X008623Y016921D02*
X008837Y016921D01*
X008784Y016868D02*
X008784Y016974D01*
X008730Y017089D02*
X008784Y017142D01*
X008784Y017249D01*
X008730Y017302D01*
X008677Y017302D01*
X008677Y017089D01*
X008730Y017089D02*
X008623Y017089D01*
X008570Y017142D01*
X008570Y017249D01*
X008623Y017420D02*
X008730Y017420D01*
X008784Y017474D01*
X008784Y017634D01*
X008890Y017634D02*
X008570Y017634D01*
X008570Y017474D01*
X008623Y017420D01*
X008730Y018083D02*
X008730Y018190D01*
X008730Y018304D02*
X008623Y018304D01*
X008570Y018357D01*
X008570Y018464D01*
X008623Y018518D01*
X008730Y018518D01*
X008784Y018464D01*
X008784Y018357D01*
X008730Y018304D01*
X008890Y018190D02*
X008837Y018137D01*
X008570Y018137D01*
X008570Y018636D02*
X008784Y018636D01*
X008784Y018742D02*
X008784Y018796D01*
X008784Y018742D02*
X008677Y018636D01*
X008623Y019243D02*
X008570Y019297D01*
X008570Y019403D01*
X008623Y019457D01*
X008677Y019457D01*
X008730Y019403D01*
X008730Y019350D01*
X008730Y019403D02*
X008784Y019457D01*
X008837Y019457D01*
X008890Y019403D01*
X008890Y019297D01*
X008837Y019243D01*
X009120Y019243D02*
X009120Y019297D01*
X009173Y019297D01*
X009173Y019243D01*
X009120Y019243D01*
X009120Y019125D02*
X009120Y018912D01*
X009334Y019125D01*
X009387Y019125D01*
X009440Y019072D01*
X009440Y018965D01*
X009387Y018912D01*
X009440Y018798D02*
X009334Y018691D01*
X009227Y018691D01*
X009120Y018798D01*
X009280Y019409D02*
X009280Y019623D01*
X009227Y019741D02*
X009120Y019847D01*
X009227Y019954D01*
X009440Y019954D01*
X009280Y020072D02*
X009280Y020286D01*
X009173Y020404D02*
X009120Y020457D01*
X009120Y020564D01*
X009173Y020617D01*
X009227Y020617D01*
X009280Y020564D01*
X009280Y020510D01*
X009280Y020564D02*
X009334Y020617D01*
X009387Y020617D01*
X009440Y020564D01*
X009440Y020457D01*
X009387Y020404D01*
X009670Y020567D02*
X009670Y020728D01*
X009830Y020728D01*
X009884Y020674D01*
X009884Y020567D01*
X009777Y020567D02*
X009777Y020728D01*
X009830Y020845D02*
X009723Y020845D01*
X009670Y020899D01*
X009670Y021059D01*
X009723Y021177D02*
X009670Y021230D01*
X009670Y021337D01*
X009777Y021390D02*
X009777Y021177D01*
X009830Y021177D02*
X009884Y021230D01*
X009884Y021337D01*
X009830Y021390D01*
X009777Y021390D01*
X009723Y021177D02*
X009830Y021177D01*
X009884Y021059D02*
X009884Y020899D01*
X009830Y020845D01*
X009777Y020567D02*
X009723Y020514D01*
X009670Y020567D01*
X009884Y020398D02*
X009884Y020345D01*
X009777Y020238D01*
X009670Y020238D02*
X009884Y020238D01*
X009884Y020124D02*
X009884Y020017D01*
X009937Y020070D02*
X009723Y020070D01*
X009670Y020124D01*
X009440Y019741D02*
X009227Y019741D01*
X009120Y019569D02*
X009440Y019569D01*
X009280Y019409D01*
X009670Y019346D02*
X009670Y019186D01*
X009723Y019133D01*
X009884Y019133D01*
X009884Y019015D02*
X009884Y018855D01*
X009830Y018801D01*
X009723Y018801D01*
X009670Y018855D01*
X009670Y019015D01*
X009670Y019346D02*
X009884Y019346D01*
X009884Y019464D02*
X009884Y019571D01*
X009937Y019518D02*
X009723Y019518D01*
X009670Y019571D01*
X008890Y019794D02*
X008890Y019901D01*
X008837Y019954D01*
X008784Y019954D01*
X008730Y019901D01*
X008677Y019954D01*
X008623Y019954D01*
X008570Y019901D01*
X008570Y019794D01*
X008623Y019741D01*
X008623Y019628D02*
X008570Y019628D01*
X008570Y019575D01*
X008623Y019575D01*
X008623Y019628D01*
X008837Y019741D02*
X008890Y019794D01*
X008730Y019847D02*
X008730Y019901D01*
X008677Y020072D02*
X008570Y020179D01*
X008677Y020286D01*
X008890Y020286D01*
X008890Y020072D02*
X008677Y020072D01*
X008730Y020735D02*
X008784Y020788D01*
X008784Y020948D01*
X008890Y020948D02*
X008570Y020948D01*
X008570Y020788D01*
X008623Y020735D01*
X008730Y020735D01*
X008730Y021066D02*
X008784Y021120D01*
X008784Y021227D01*
X008730Y021280D01*
X008677Y021280D01*
X008677Y021066D01*
X008730Y021066D02*
X008623Y021066D01*
X008570Y021120D01*
X008570Y021227D01*
X008570Y021451D02*
X008837Y021451D01*
X008890Y021505D01*
X008730Y021505D02*
X008730Y021398D01*
X008623Y021619D02*
X008677Y021672D01*
X008677Y021832D01*
X008730Y021832D02*
X008570Y021832D01*
X008570Y021672D01*
X008623Y021619D01*
X008784Y021672D02*
X008784Y021779D01*
X008730Y021832D01*
X008784Y021950D02*
X008623Y021950D01*
X008570Y022004D01*
X008570Y022164D01*
X008784Y022164D01*
X008890Y022282D02*
X008890Y022335D01*
X008570Y022335D01*
X008570Y022282D02*
X008570Y022389D01*
X008623Y022556D02*
X008570Y022610D01*
X008623Y022556D02*
X008837Y022556D01*
X008784Y022503D02*
X008784Y022610D01*
X009120Y021891D02*
X009120Y021838D01*
X009173Y021838D01*
X009173Y021891D01*
X009120Y021891D01*
X009013Y021785D01*
X009227Y021670D02*
X009120Y021564D01*
X009227Y021670D02*
X009334Y021670D01*
X009440Y021564D01*
X009440Y021446D02*
X009227Y021446D01*
X009120Y021339D01*
X009227Y021232D01*
X009440Y021232D01*
X009387Y021114D02*
X009334Y021114D01*
X009280Y021061D01*
X009227Y021114D01*
X009173Y021114D01*
X009120Y021061D01*
X009120Y020954D01*
X009173Y020901D01*
X009173Y020788D02*
X009120Y020788D01*
X009120Y020735D01*
X009173Y020735D01*
X009173Y020788D01*
X009387Y020901D02*
X009440Y020954D01*
X009440Y021061D01*
X009387Y021114D01*
X009280Y021061D02*
X009280Y021007D01*
X009280Y021838D02*
X009280Y021891D01*
X009334Y021891D01*
X009334Y021838D01*
X009280Y021838D01*
X009670Y021893D02*
X009723Y021947D01*
X009670Y022000D01*
X009723Y022053D01*
X009884Y022053D01*
X009830Y022171D02*
X009884Y022225D01*
X009884Y022332D01*
X009830Y022385D01*
X009670Y022385D01*
X009723Y022503D02*
X009670Y022556D01*
X009670Y022663D01*
X009777Y022716D02*
X009777Y022503D01*
X009830Y022503D02*
X009884Y022556D01*
X009884Y022663D01*
X009830Y022716D01*
X009777Y022716D01*
X009884Y022834D02*
X009884Y022995D01*
X009830Y023048D01*
X009670Y023048D01*
X009670Y022834D02*
X009884Y022834D01*
X009830Y022503D02*
X009723Y022503D01*
X009670Y022171D02*
X009990Y022171D01*
X009884Y021840D02*
X009723Y021840D01*
X009670Y021893D01*
X007940Y021341D02*
X007620Y021341D01*
X007620Y021394D02*
X007620Y021287D01*
X007620Y021169D02*
X007620Y021009D01*
X007673Y020956D01*
X007780Y020956D01*
X007834Y021009D01*
X007834Y021169D01*
X007940Y021287D02*
X007940Y021341D01*
X007780Y021508D02*
X007673Y021508D01*
X007620Y021562D01*
X007620Y021669D01*
X007673Y021722D01*
X007780Y021722D01*
X007834Y021669D01*
X007834Y021562D01*
X007780Y021508D01*
X007780Y021840D02*
X007834Y021893D01*
X007834Y022053D01*
X007727Y022000D02*
X007727Y021893D01*
X007780Y021840D01*
X007620Y021840D02*
X007620Y022000D01*
X007673Y022053D01*
X007727Y022000D01*
X007727Y022171D02*
X007727Y022385D01*
X007780Y022385D01*
X007834Y022332D01*
X007834Y022225D01*
X007780Y022171D01*
X007673Y022171D01*
X007620Y022225D01*
X007620Y022332D01*
X007673Y022503D02*
X007780Y022503D01*
X007834Y022556D01*
X007834Y022716D01*
X007940Y022716D02*
X007620Y022716D01*
X007620Y022556D01*
X007673Y022503D01*
X007390Y022448D02*
X007390Y022608D01*
X007337Y022661D01*
X007123Y022661D01*
X007070Y022608D01*
X007070Y022448D01*
X007390Y022448D01*
X007284Y022330D02*
X007390Y022223D01*
X007284Y022116D01*
X007070Y022116D01*
X007230Y022116D02*
X007230Y022330D01*
X007284Y022330D02*
X007070Y022330D01*
X007123Y022779D02*
X007070Y022833D01*
X007070Y022939D01*
X007123Y022993D01*
X007070Y023111D02*
X007284Y023324D01*
X007337Y023324D01*
X007390Y023271D01*
X007390Y023164D01*
X007337Y023111D01*
X007337Y022993D02*
X007390Y022939D01*
X007390Y022833D01*
X007337Y022779D01*
X007123Y022779D01*
X007070Y023111D02*
X007070Y023324D01*
X007070Y021667D02*
X007230Y021667D01*
X007284Y021613D01*
X007284Y021453D01*
X007070Y021453D01*
X007123Y021335D02*
X007230Y021335D01*
X007284Y021282D01*
X007284Y021175D01*
X007230Y021122D01*
X007123Y021122D01*
X007070Y021175D01*
X007070Y021282D01*
X007123Y021335D01*
X007177Y020672D02*
X007177Y020459D01*
X007230Y020459D02*
X007284Y020512D01*
X007284Y020619D01*
X007230Y020672D01*
X007177Y020672D01*
X007070Y020619D02*
X007070Y020512D01*
X007123Y020459D01*
X007230Y020459D01*
X007284Y020341D02*
X007284Y020181D01*
X007230Y020127D01*
X007123Y020127D01*
X007070Y020181D01*
X007070Y020341D01*
X007017Y020341D02*
X007284Y020341D01*
X007017Y020341D02*
X006963Y020287D01*
X006963Y020234D01*
X007070Y020009D02*
X007070Y019849D01*
X007123Y019796D01*
X007177Y019849D01*
X007177Y020009D01*
X007230Y020009D02*
X007070Y020009D01*
X007230Y020009D02*
X007284Y019956D01*
X007284Y019849D01*
X007284Y019682D02*
X007284Y019575D01*
X007337Y019628D02*
X007123Y019628D01*
X007070Y019682D01*
X007070Y019461D02*
X007070Y019354D01*
X007070Y019407D02*
X007390Y019407D01*
X007390Y019354D01*
X007230Y019236D02*
X007284Y019182D01*
X007284Y019076D01*
X007230Y019022D01*
X007123Y019022D01*
X007070Y019076D01*
X007070Y019182D01*
X007123Y019236D01*
X007230Y019236D01*
X007284Y018904D02*
X007070Y018798D01*
X007284Y018691D01*
X007284Y018241D02*
X007017Y018241D01*
X006963Y018188D01*
X006963Y018135D01*
X007070Y018081D02*
X007070Y018241D01*
X007070Y018081D02*
X007123Y018028D01*
X007284Y018028D01*
X007390Y017860D02*
X007390Y017807D01*
X007390Y017860D02*
X007070Y017860D01*
X007070Y017807D02*
X007070Y017914D01*
X007123Y017689D02*
X007070Y017636D01*
X007070Y017475D01*
X006963Y017475D02*
X007284Y017475D01*
X007284Y017636D01*
X007230Y017689D01*
X007123Y017689D01*
X007123Y017357D02*
X007070Y017304D01*
X007070Y017144D01*
X006963Y017144D02*
X007284Y017144D01*
X007284Y017304D01*
X007230Y017357D01*
X007123Y017357D01*
X007070Y017026D02*
X007284Y017026D01*
X007284Y016812D02*
X007123Y016812D01*
X007070Y016866D01*
X007070Y017026D01*
X007123Y016694D02*
X007177Y016641D01*
X007177Y016534D01*
X007230Y016481D01*
X007284Y016534D01*
X007284Y016694D01*
X007123Y016694D02*
X007070Y016641D01*
X007070Y016481D01*
X007177Y016032D02*
X007177Y015818D01*
X007230Y015818D02*
X007284Y015871D01*
X007284Y015978D01*
X007230Y016032D01*
X007177Y016032D01*
X007070Y015978D02*
X007070Y015871D01*
X007123Y015818D01*
X007230Y015818D01*
X007284Y015702D02*
X007284Y015649D01*
X007177Y015542D01*
X007070Y015542D02*
X007284Y015542D01*
X007284Y015424D02*
X007070Y015424D01*
X007070Y015264D01*
X007123Y015210D01*
X007284Y015210D01*
X007284Y015092D02*
X007284Y014932D01*
X007230Y014879D01*
X007177Y014932D01*
X007177Y015039D01*
X007123Y015092D01*
X007070Y015039D01*
X007070Y014879D01*
X007070Y014761D02*
X007070Y014601D01*
X007123Y014547D01*
X007177Y014601D01*
X007177Y014761D01*
X007230Y014761D02*
X007070Y014761D01*
X007230Y014761D02*
X007284Y014707D01*
X007284Y014601D01*
X007230Y014429D02*
X007177Y014429D01*
X007177Y014216D01*
X007230Y014216D02*
X007284Y014269D01*
X007284Y014376D01*
X007230Y014429D01*
X007070Y014376D02*
X007070Y014269D01*
X007123Y014216D01*
X007230Y014216D01*
X007230Y014098D02*
X007070Y014098D01*
X007070Y013991D02*
X007230Y013991D01*
X007284Y014044D01*
X007230Y014098D01*
X007230Y013991D02*
X007284Y013938D01*
X007284Y013884D01*
X007070Y013884D01*
X007123Y013435D02*
X007230Y013435D01*
X007284Y013382D01*
X007284Y013275D01*
X007230Y013221D01*
X007123Y013221D01*
X007070Y013275D01*
X007070Y013382D01*
X007123Y013435D01*
X007070Y013107D02*
X007123Y013054D01*
X007337Y013054D01*
X007284Y013107D02*
X007284Y013000D01*
X007620Y013054D02*
X007673Y013000D01*
X007620Y013054D02*
X007620Y013161D01*
X007673Y013214D01*
X007727Y013214D01*
X007780Y013161D01*
X007780Y013054D01*
X007834Y013000D01*
X007887Y013000D01*
X007940Y013054D01*
X007940Y013161D01*
X007887Y013214D01*
X007780Y013332D02*
X007673Y013332D01*
X007620Y013385D01*
X007620Y013492D01*
X007673Y013545D01*
X007780Y013545D01*
X007834Y013492D01*
X007834Y013385D01*
X007780Y013332D01*
X007620Y013663D02*
X007620Y013770D01*
X007620Y013717D02*
X007940Y013717D01*
X007940Y013663D01*
X007780Y013884D02*
X007834Y013938D01*
X007834Y014098D01*
X007940Y014098D02*
X007620Y014098D01*
X007620Y013938D01*
X007673Y013884D01*
X007780Y013884D01*
X007780Y014216D02*
X007834Y014269D01*
X007834Y014376D01*
X007780Y014429D01*
X007727Y014429D01*
X007727Y014216D01*
X007780Y014216D02*
X007673Y014216D01*
X007620Y014269D01*
X007620Y014376D01*
X007620Y014547D02*
X007834Y014547D01*
X007727Y014547D02*
X007834Y014654D01*
X007834Y014707D01*
X007513Y015155D02*
X007513Y015208D01*
X007567Y015262D01*
X007834Y015262D01*
X007940Y015262D02*
X007994Y015262D01*
X007834Y015376D02*
X007673Y015376D01*
X007620Y015429D01*
X007620Y015590D01*
X007834Y015590D01*
X007834Y015708D02*
X007834Y015761D01*
X007780Y015814D01*
X007834Y015868D01*
X007780Y015921D01*
X007620Y015921D01*
X007620Y015814D02*
X007780Y015814D01*
X007834Y015708D02*
X007620Y015708D01*
X007620Y016039D02*
X007620Y016199D01*
X007673Y016252D01*
X007780Y016252D01*
X007834Y016199D01*
X007834Y016039D01*
X007513Y016039D01*
X007673Y016370D02*
X007780Y016370D01*
X007834Y016424D01*
X007834Y016531D01*
X007780Y016584D01*
X007727Y016584D01*
X007727Y016370D01*
X007673Y016370D02*
X007620Y016424D01*
X007620Y016531D01*
X007620Y016702D02*
X007834Y016702D01*
X007834Y016809D02*
X007834Y016862D01*
X007834Y016809D02*
X007727Y016702D01*
X007673Y017310D02*
X007620Y017363D01*
X007620Y017470D01*
X007673Y017523D01*
X007727Y017523D01*
X007780Y017470D01*
X007780Y017363D01*
X007834Y017310D01*
X007887Y017310D01*
X007940Y017363D01*
X007940Y017470D01*
X007887Y017523D01*
X007940Y017748D02*
X007940Y017855D01*
X007940Y017801D02*
X007673Y017801D01*
X007620Y017748D01*
X007620Y017695D01*
X007673Y017641D01*
X007620Y017973D02*
X007834Y018186D01*
X007887Y018186D01*
X007940Y018133D01*
X007940Y018026D01*
X007887Y017973D01*
X007620Y017973D02*
X007620Y018186D01*
X007620Y018304D02*
X007673Y018304D01*
X007673Y018357D01*
X007620Y018357D01*
X007620Y018304D01*
X007780Y018304D02*
X007834Y018304D01*
X007834Y018357D01*
X007780Y018357D01*
X007780Y018304D01*
X007780Y018801D02*
X007834Y018855D01*
X007834Y019015D01*
X007727Y018961D02*
X007727Y018855D01*
X007780Y018801D01*
X007620Y018801D02*
X007620Y018961D01*
X007673Y019015D01*
X007727Y018961D01*
X007780Y019133D02*
X007673Y019133D01*
X007620Y019186D01*
X007620Y019293D01*
X007673Y019346D01*
X007780Y019346D01*
X007834Y019293D01*
X007834Y019186D01*
X007780Y019133D01*
X007620Y019464D02*
X007620Y019571D01*
X007620Y019518D02*
X007940Y019518D01*
X007940Y019464D01*
X007780Y019685D02*
X007834Y019739D01*
X007834Y019899D01*
X007940Y019899D02*
X007620Y019899D01*
X007620Y019739D01*
X007673Y019685D01*
X007780Y019685D01*
X007780Y020017D02*
X007834Y020070D01*
X007834Y020177D01*
X007780Y020230D01*
X007727Y020230D01*
X007727Y020017D01*
X007780Y020017D02*
X007673Y020017D01*
X007620Y020070D01*
X007620Y020177D01*
X007620Y020348D02*
X007834Y020348D01*
X007834Y020455D02*
X007834Y020508D01*
X007834Y020455D02*
X007727Y020348D01*
X009120Y018028D02*
X009440Y018028D01*
X009440Y018241D01*
X009280Y018135D02*
X009280Y018028D01*
X009120Y017910D02*
X009120Y017696D01*
X009440Y017696D01*
X009440Y017910D01*
X009280Y017803D02*
X009280Y017696D01*
X009280Y017578D02*
X009227Y017525D01*
X009227Y017365D01*
X009227Y017472D02*
X009120Y017578D01*
X009280Y017578D02*
X009387Y017578D01*
X009440Y017525D01*
X009440Y017365D01*
X009120Y017365D01*
X009067Y017247D02*
X009067Y017033D01*
X009173Y016915D02*
X009120Y016862D01*
X009120Y016755D01*
X009173Y016702D01*
X009387Y016702D01*
X009440Y016755D01*
X009440Y016862D01*
X009387Y016915D01*
X009387Y016584D02*
X009173Y016584D01*
X009120Y016531D01*
X009120Y016370D01*
X009440Y016370D01*
X009440Y016531D01*
X009387Y016584D01*
X009334Y016252D02*
X009120Y016252D01*
X009280Y016252D02*
X009280Y016039D01*
X009334Y016039D02*
X009440Y016146D01*
X009334Y016252D01*
X009334Y016039D02*
X009120Y016039D01*
X008784Y015542D02*
X008570Y015542D01*
X008623Y015424D02*
X008730Y015424D01*
X008784Y015370D01*
X008784Y015264D01*
X008730Y015210D01*
X008623Y015210D01*
X008570Y015264D01*
X008570Y015370D01*
X008623Y015424D01*
X008570Y015092D02*
X008570Y014932D01*
X008623Y014879D01*
X008730Y014879D01*
X008784Y014932D01*
X008784Y015092D01*
X008730Y014429D02*
X008677Y014429D01*
X008677Y014216D01*
X008730Y014216D02*
X008784Y014269D01*
X008784Y014376D01*
X008730Y014429D01*
X008570Y014376D02*
X008570Y014269D01*
X008623Y014216D01*
X008730Y014216D01*
X008784Y014098D02*
X008570Y013991D01*
X008784Y013884D01*
X008730Y013766D02*
X008784Y013713D01*
X008784Y013606D01*
X008677Y013606D02*
X008677Y013766D01*
X008730Y013766D02*
X008570Y013766D01*
X008570Y013606D01*
X008623Y013553D01*
X008677Y013606D01*
X008677Y013435D02*
X008677Y013221D01*
X008730Y013221D02*
X008784Y013275D01*
X008784Y013382D01*
X008730Y013435D01*
X008677Y013435D01*
X008570Y013382D02*
X008570Y013275D01*
X008623Y013221D01*
X008730Y013221D01*
X008570Y013107D02*
X008570Y013000D01*
X008570Y013054D02*
X008890Y013054D01*
X008890Y013000D01*
X009440Y014877D02*
X009494Y014877D01*
X009563Y015155D02*
X009563Y015208D01*
X009617Y015262D01*
X008730Y016536D02*
X008784Y016590D01*
X008784Y016750D01*
X008730Y016536D02*
X008623Y016536D01*
X010570Y016531D02*
X010570Y016424D01*
X010623Y016370D01*
X010730Y016370D01*
X010784Y016424D01*
X010784Y016531D01*
X010730Y016584D01*
X010677Y016584D01*
X010677Y016370D01*
X010623Y016252D02*
X010784Y016252D01*
X010623Y016252D02*
X010570Y016199D01*
X010623Y016146D01*
X010570Y016092D01*
X010623Y016039D01*
X010784Y016039D01*
X010730Y015921D02*
X010784Y015868D01*
X010784Y015761D01*
X010730Y015708D01*
X010623Y015708D01*
X010570Y015761D01*
X010570Y015868D01*
X010623Y015921D01*
X010730Y015921D01*
X010730Y015590D02*
X010623Y015590D01*
X010570Y015536D01*
X010570Y015376D01*
X010463Y015376D02*
X010784Y015376D01*
X010784Y015536D01*
X010730Y015590D01*
X011013Y015649D02*
X011013Y015702D01*
X011067Y015755D01*
X011334Y015755D01*
X011334Y015542D02*
X011173Y015542D01*
X011120Y015595D01*
X011120Y015755D01*
X011334Y015426D02*
X011334Y015372D01*
X011227Y015266D01*
X011120Y015266D02*
X011334Y015266D01*
X011334Y015149D02*
X011334Y015096D01*
X011227Y014989D01*
X011120Y014989D02*
X011334Y014989D01*
X011280Y014871D02*
X011334Y014818D01*
X011334Y014711D01*
X011280Y014658D01*
X011173Y014658D01*
X011120Y014711D01*
X011120Y014818D01*
X011227Y014871D02*
X011227Y014658D01*
X011280Y014540D02*
X011334Y014486D01*
X011334Y014326D01*
X011440Y014326D02*
X011120Y014326D01*
X011120Y014486D01*
X011173Y014540D01*
X011280Y014540D01*
X011280Y014871D02*
X011227Y014871D01*
X010890Y014877D02*
X010570Y014877D01*
X010570Y014824D02*
X010570Y014930D01*
X010623Y014706D02*
X010570Y014652D01*
X010570Y014545D01*
X010623Y014492D01*
X010730Y014492D01*
X010784Y014545D01*
X010784Y014652D01*
X010730Y014706D01*
X010623Y014706D01*
X010890Y014824D02*
X010890Y014877D01*
X010784Y014376D02*
X010784Y014323D01*
X010677Y014216D01*
X010570Y014216D02*
X010784Y014216D01*
X010784Y014102D02*
X010784Y013995D01*
X010837Y014048D02*
X010623Y014048D01*
X010570Y014102D01*
X010570Y013877D02*
X010730Y013877D01*
X010784Y013823D01*
X010784Y013663D01*
X010570Y013663D01*
X010623Y013545D02*
X010570Y013492D01*
X010570Y013385D01*
X010623Y013332D01*
X010730Y013332D01*
X010784Y013385D01*
X010784Y013492D01*
X010730Y013545D01*
X010623Y013545D01*
X010570Y013214D02*
X010570Y013054D01*
X010623Y013000D01*
X010730Y013000D01*
X010784Y013054D01*
X010784Y013214D01*
X011013Y013995D02*
X011334Y013995D01*
X011334Y014155D01*
X011280Y014208D01*
X011173Y014208D01*
X011120Y014155D01*
X011120Y013995D01*
X011173Y013877D02*
X011227Y013823D01*
X011227Y013717D01*
X011280Y013663D01*
X011334Y013717D01*
X011334Y013877D01*
X011173Y013877D02*
X011120Y013823D01*
X011120Y013663D01*
X011120Y013545D02*
X011120Y013385D01*
X011173Y013332D01*
X011227Y013385D01*
X011227Y013545D01*
X011280Y013545D02*
X011120Y013545D01*
X011280Y013545D02*
X011334Y013492D01*
X011334Y013385D01*
X011387Y013214D02*
X011280Y013214D01*
X011227Y013161D01*
X011227Y013000D01*
X011120Y013000D02*
X011440Y013000D01*
X011440Y013161D01*
X011387Y013214D01*
X011227Y013107D02*
X011120Y013214D01*
X011670Y013107D02*
X011723Y013161D01*
X011990Y013161D01*
X011990Y013214D02*
X011990Y013107D01*
X011884Y013332D02*
X011723Y013332D01*
X011670Y013385D01*
X011670Y013545D01*
X011884Y013545D01*
X011884Y013663D02*
X011670Y013663D01*
X011670Y013770D02*
X011830Y013770D01*
X011884Y013823D01*
X011830Y013877D01*
X011670Y013877D01*
X011670Y013995D02*
X011670Y014155D01*
X011723Y014208D01*
X011830Y014208D01*
X011884Y014155D01*
X011884Y013995D01*
X011563Y013995D01*
X011830Y013770D02*
X011884Y013717D01*
X011884Y013663D01*
X011830Y014326D02*
X011723Y014326D01*
X011670Y014380D01*
X011670Y014486D01*
X011777Y014540D02*
X011777Y014326D01*
X011830Y014326D02*
X011884Y014380D01*
X011884Y014486D01*
X011830Y014540D01*
X011777Y014540D01*
X011777Y014658D02*
X011884Y014765D01*
X011884Y014818D01*
X011884Y014658D02*
X011670Y014658D01*
X011723Y015266D02*
X011670Y015319D01*
X011670Y015372D01*
X011723Y015426D01*
X011990Y015426D01*
X011990Y015479D02*
X011990Y015372D01*
X011990Y015597D02*
X011990Y015811D01*
X011937Y015811D01*
X011723Y015597D01*
X011670Y015597D01*
X011670Y015928D02*
X011723Y015928D01*
X011723Y015982D01*
X011670Y015982D01*
X011670Y015928D01*
X011830Y015928D02*
X011830Y015982D01*
X011884Y015982D01*
X011884Y015928D01*
X011830Y015928D01*
X011440Y016205D02*
X011440Y016365D01*
X011387Y016418D01*
X011280Y016418D01*
X011227Y016365D01*
X011227Y016205D01*
X011120Y016205D02*
X011440Y016205D01*
X010784Y016702D02*
X010570Y016702D01*
X010677Y016702D02*
X010784Y016809D01*
X010784Y016862D01*
X011670Y013107D02*
X011670Y013054D01*
X011723Y013000D01*
X011334Y022890D02*
X011334Y022996D01*
X011387Y022943D02*
X011173Y022943D01*
X011120Y022996D01*
X011173Y023111D02*
X011120Y023164D01*
X011120Y023271D01*
X011173Y023324D01*
X011280Y023324D01*
X011334Y023271D01*
X011334Y023164D01*
X011280Y023111D01*
X011173Y023111D01*
X004701Y023725D02*
X004685Y023666D01*
X004610Y023623D01*
X004551Y023639D01*
X004507Y023714D01*
X004583Y023757D01*
X004614Y023876D02*
X004701Y023725D01*
X004614Y023876D02*
X004555Y023891D01*
X004480Y023848D01*
X004464Y023789D01*
X004353Y023775D02*
X004483Y023550D01*
X004440Y023625D02*
X004327Y023560D01*
X004268Y023576D01*
X004225Y023651D01*
X004241Y023710D01*
X004353Y023775D01*
X004114Y023637D02*
X004039Y023593D01*
X004077Y023615D02*
X004207Y023390D01*
X004244Y023411D02*
X004169Y023368D01*
X004063Y023357D02*
X003976Y023507D01*
X003917Y023523D01*
X003842Y023480D01*
X003826Y023420D01*
X003913Y023270D01*
X003972Y023254D01*
X004047Y023298D01*
X004063Y023357D01*
X003780Y023294D02*
X003630Y023207D01*
X003733Y023116D02*
X003603Y023342D01*
X003780Y023294D01*
X003610Y023623D02*
X003551Y023639D01*
X003507Y023714D01*
X003583Y023757D01*
X003701Y023725D02*
X003685Y023666D01*
X003610Y023623D01*
X003701Y023725D02*
X003614Y023876D01*
X003555Y023891D01*
X003480Y023848D01*
X003464Y023789D01*
X003353Y023775D02*
X003483Y023550D01*
X003440Y023625D02*
X003327Y023560D01*
X003268Y023576D01*
X003225Y023651D01*
X003241Y023710D01*
X003353Y023775D01*
X003114Y023637D02*
X003039Y023593D01*
X003077Y023615D02*
X003207Y023390D01*
X003244Y023411D02*
X003169Y023368D01*
X003063Y023357D02*
X003047Y023298D01*
X002972Y023254D01*
X002913Y023270D01*
X002826Y023420D01*
X002842Y023480D01*
X002917Y023523D01*
X002976Y023507D01*
X003063Y023357D01*
X002824Y023219D02*
X002808Y023160D01*
X002733Y023116D01*
X002674Y023132D01*
X002630Y023207D01*
X002646Y023266D01*
X002684Y023288D01*
X002780Y023294D01*
X002715Y023407D01*
X002565Y023320D01*
X003166Y012711D02*
X003166Y012537D01*
X003253Y012450D01*
X003339Y012537D01*
X003339Y012711D01*
X003442Y012667D02*
X003442Y012624D01*
X003486Y012581D01*
X003442Y012537D01*
X003442Y012494D01*
X003486Y012450D01*
X003572Y012450D01*
X003616Y012494D01*
X003710Y012494D02*
X003710Y012450D01*
X003754Y012450D01*
X003754Y012494D01*
X003710Y012494D01*
X003857Y012494D02*
X003900Y012450D01*
X003987Y012450D01*
X004030Y012494D01*
X003943Y012581D02*
X003900Y012581D01*
X003857Y012537D01*
X003857Y012494D01*
X003900Y012581D02*
X003857Y012624D01*
X003857Y012667D01*
X003900Y012711D01*
X003987Y012711D01*
X004030Y012667D01*
X003616Y012667D02*
X003572Y012711D01*
X003486Y012711D01*
X003442Y012667D01*
X003486Y012581D02*
X003529Y012581D01*
X003580Y011711D02*
X003580Y011450D01*
X003754Y011711D01*
X003754Y011450D01*
X003857Y011494D02*
X003857Y011581D01*
X003943Y011581D01*
X003857Y011667D02*
X003900Y011711D01*
X003987Y011711D01*
X004030Y011667D01*
X004030Y011494D01*
X003987Y011450D01*
X003900Y011450D01*
X003857Y011494D01*
X003478Y011450D02*
X003347Y011450D01*
X003304Y011494D01*
X003304Y011667D01*
X003347Y011711D01*
X003478Y011711D01*
X003478Y011450D01*
X003478Y010711D02*
X003478Y010450D01*
X003304Y010450D01*
X003580Y010494D02*
X003624Y010450D01*
X003710Y010450D01*
X003754Y010494D01*
X003754Y010667D01*
X003710Y010711D01*
X003624Y010711D01*
X003580Y010667D01*
X003857Y010667D02*
X003900Y010711D01*
X003987Y010711D01*
X004030Y010667D01*
X004030Y010624D01*
X003987Y010581D01*
X003900Y010581D01*
X003857Y010537D01*
X003857Y010494D01*
X003900Y010450D01*
X003987Y010450D01*
X004030Y010494D01*
X003987Y009711D02*
X003900Y009711D01*
X003857Y009667D01*
X003900Y009581D02*
X003857Y009537D01*
X003857Y009494D01*
X003900Y009450D01*
X003987Y009450D01*
X004030Y009494D01*
X003987Y009581D02*
X003900Y009581D01*
X003987Y009581D02*
X004030Y009624D01*
X004030Y009667D01*
X003987Y009711D01*
X003754Y009711D02*
X003624Y009711D01*
X003580Y009667D01*
X003580Y009494D01*
X003624Y009450D01*
X003754Y009450D01*
X003754Y009711D01*
X003478Y009624D02*
X003391Y009711D01*
X003304Y009624D01*
X003304Y009450D01*
X003304Y009581D02*
X003478Y009581D01*
X003478Y009624D02*
X003478Y009450D01*
X019493Y004170D02*
X019616Y004292D01*
X019800Y004108D01*
X019872Y004181D02*
X019995Y004304D01*
X019811Y004488D01*
X019688Y004365D01*
X019842Y004334D02*
X019903Y004396D01*
X019976Y004468D02*
X020037Y004468D01*
X020129Y004560D01*
X020068Y004499D02*
X020068Y004376D01*
X019976Y004468D02*
X019914Y004530D01*
X019914Y004591D01*
X020006Y004683D01*
X020190Y004499D01*
X020294Y004541D02*
X020416Y004664D01*
X020428Y004798D02*
X020489Y004798D01*
X020550Y004859D01*
X020550Y004920D01*
X020428Y005043D01*
X020366Y005043D01*
X020305Y004982D01*
X020305Y004920D01*
X020500Y005116D02*
X020500Y005177D01*
X020592Y005269D01*
X020776Y005085D01*
X020684Y004993D01*
X020623Y004993D01*
X020500Y005116D01*
X020726Y005280D02*
X020849Y005158D01*
X020757Y005250D02*
X020880Y005372D01*
X020849Y005403D02*
X020726Y005403D01*
X020726Y005280D01*
X020849Y005403D02*
X020972Y005280D01*
X020787Y006550D02*
X020700Y006550D01*
X020657Y006594D01*
X020657Y006681D01*
X020743Y006681D01*
X020657Y006767D02*
X020700Y006811D01*
X020787Y006811D01*
X020830Y006767D01*
X020830Y006594D01*
X020787Y006550D01*
X020554Y006550D02*
X020554Y006811D01*
X020380Y006550D01*
X020380Y006811D01*
X020278Y006811D02*
X020278Y006550D01*
X020147Y006550D01*
X020104Y006594D01*
X020104Y006767D01*
X020147Y006811D01*
X020278Y006811D01*
X020286Y007550D02*
X020242Y007594D01*
X020242Y007637D01*
X020286Y007681D01*
X020329Y007681D01*
X020286Y007681D02*
X020242Y007724D01*
X020242Y007767D01*
X020286Y007811D01*
X020372Y007811D01*
X020416Y007767D01*
X020416Y007594D02*
X020372Y007550D01*
X020286Y007550D01*
X020139Y007637D02*
X020053Y007550D01*
X019966Y007637D01*
X019966Y007811D01*
X020139Y007811D02*
X020139Y007637D01*
X020510Y007594D02*
X020510Y007550D01*
X020554Y007550D01*
X020554Y007594D01*
X020510Y007594D01*
X020657Y007594D02*
X020700Y007550D01*
X020787Y007550D01*
X020830Y007594D01*
X020743Y007681D02*
X020700Y007681D01*
X020657Y007637D01*
X020657Y007594D01*
X020700Y007681D02*
X020657Y007724D01*
X020657Y007767D01*
X020700Y007811D01*
X020787Y007811D01*
X020830Y007767D01*
X020787Y008550D02*
X020700Y008550D01*
X020657Y008594D01*
X020657Y008681D01*
X020743Y008681D01*
X020657Y008767D02*
X020700Y008811D01*
X020787Y008811D01*
X020830Y008767D01*
X020830Y008594D01*
X020787Y008550D01*
X020554Y008550D02*
X020554Y008811D01*
X020424Y008811D01*
X020380Y008767D01*
X020380Y008681D01*
X020424Y008637D01*
X020554Y008637D01*
X020278Y008550D02*
X020191Y008550D01*
X020234Y008550D02*
X020234Y008811D01*
X020191Y008811D02*
X020278Y008811D01*
X020093Y008767D02*
X020093Y008594D01*
X020050Y008550D01*
X019963Y008550D01*
X019920Y008594D01*
X019920Y008767D01*
X019963Y008811D01*
X020050Y008811D01*
X020093Y008767D01*
X019817Y008767D02*
X019774Y008811D01*
X019687Y008811D01*
X019644Y008767D01*
X019817Y008594D01*
X019774Y008550D01*
X019687Y008550D01*
X019644Y008594D01*
X019644Y008767D01*
X019817Y008767D02*
X019817Y008594D01*
X019817Y009550D02*
X019644Y009550D01*
X019730Y009550D02*
X019730Y009811D01*
X019817Y009724D01*
X019920Y009767D02*
X019963Y009811D01*
X020050Y009811D01*
X020093Y009767D01*
X020093Y009594D01*
X020050Y009550D01*
X019963Y009550D01*
X019920Y009594D01*
X019920Y009767D01*
X020191Y009811D02*
X020278Y009811D01*
X020234Y009811D02*
X020234Y009550D01*
X020191Y009550D02*
X020278Y009550D01*
X020380Y009681D02*
X020424Y009637D01*
X020554Y009637D01*
X020554Y009550D02*
X020554Y009811D01*
X020424Y009811D01*
X020380Y009767D01*
X020380Y009681D01*
X020657Y009681D02*
X020743Y009681D01*
X020657Y009681D02*
X020657Y009594D01*
X020700Y009550D01*
X020787Y009550D01*
X020830Y009594D01*
X020830Y009767D01*
X020787Y009811D01*
X020700Y009811D01*
X020657Y009767D01*
X020700Y010550D02*
X020657Y010594D01*
X020657Y010681D01*
X020743Y010681D01*
X020657Y010767D02*
X020700Y010811D01*
X020787Y010811D01*
X020830Y010767D01*
X020830Y010594D01*
X020787Y010550D01*
X020700Y010550D01*
X020554Y010550D02*
X020554Y010811D01*
X020424Y010811D01*
X020380Y010767D01*
X020380Y010681D01*
X020424Y010637D01*
X020554Y010637D01*
X020278Y010550D02*
X020191Y010550D01*
X020234Y010550D02*
X020234Y010811D01*
X020191Y010811D02*
X020278Y010811D01*
X020093Y010767D02*
X020093Y010594D01*
X020050Y010550D01*
X019963Y010550D01*
X019920Y010594D01*
X019920Y010767D01*
X019963Y010811D01*
X020050Y010811D01*
X020093Y010767D01*
X019817Y010767D02*
X019774Y010811D01*
X019687Y010811D01*
X019644Y010767D01*
X019644Y010724D01*
X019817Y010550D01*
X019644Y010550D01*
X019687Y011550D02*
X019774Y011550D01*
X019817Y011594D01*
X019920Y011594D02*
X019920Y011767D01*
X019963Y011811D01*
X020050Y011811D01*
X020093Y011767D01*
X020093Y011594D01*
X020050Y011550D01*
X019963Y011550D01*
X019920Y011594D01*
X019817Y011767D02*
X019774Y011811D01*
X019687Y011811D01*
X019644Y011767D01*
X019644Y011724D01*
X019687Y011681D01*
X019644Y011637D01*
X019644Y011594D01*
X019687Y011550D01*
X019687Y011681D02*
X019730Y011681D01*
X020191Y011811D02*
X020278Y011811D01*
X020234Y011811D02*
X020234Y011550D01*
X020191Y011550D02*
X020278Y011550D01*
X020380Y011681D02*
X020380Y011767D01*
X020424Y011811D01*
X020554Y011811D01*
X020554Y011550D01*
X020554Y011637D02*
X020424Y011637D01*
X020380Y011681D01*
X020657Y011681D02*
X020743Y011681D01*
X020657Y011681D02*
X020657Y011594D01*
X020700Y011550D01*
X020787Y011550D01*
X020830Y011594D01*
X020830Y011767D01*
X020787Y011811D01*
X020700Y011811D01*
X020657Y011767D01*
X020554Y012550D02*
X020467Y012637D01*
X020380Y012550D01*
X020380Y012811D01*
X020278Y012811D02*
X020278Y012550D01*
X020104Y012550D02*
X020104Y012811D01*
X020191Y012724D01*
X020278Y012811D01*
X020001Y012767D02*
X020001Y012594D01*
X019828Y012767D01*
X019828Y012594D01*
X019871Y012550D01*
X019958Y012550D01*
X020001Y012594D01*
X020001Y012767D02*
X019958Y012811D01*
X019871Y012811D01*
X019828Y012767D01*
X019828Y013400D02*
X020001Y013400D01*
X019915Y013400D02*
X019915Y013661D01*
X020001Y013574D01*
X020104Y013661D02*
X020104Y013400D01*
X020278Y013400D02*
X020278Y013661D01*
X020191Y013574D01*
X020104Y013661D01*
X020380Y013661D02*
X020380Y013400D01*
X020467Y013487D01*
X020554Y013400D01*
X020554Y013661D01*
X020657Y013617D02*
X020657Y013531D01*
X020700Y013487D01*
X020830Y013487D01*
X020830Y013400D02*
X020830Y013661D01*
X020700Y013661D01*
X020657Y013617D01*
X020700Y012811D02*
X020657Y012767D01*
X020657Y012681D01*
X020700Y012637D01*
X020830Y012637D01*
X020830Y012550D02*
X020830Y012811D01*
X020700Y012811D01*
X020554Y012811D02*
X020554Y012550D01*
X020554Y014900D02*
X020424Y014900D01*
X020380Y014944D01*
X020380Y015117D01*
X020424Y015161D01*
X020554Y015161D01*
X020554Y014900D01*
X020657Y014900D02*
X020657Y015074D01*
X020743Y015161D01*
X020830Y015074D01*
X020830Y014900D01*
X020830Y015031D02*
X020657Y015031D01*
X020657Y015900D02*
X020657Y016074D01*
X020743Y016161D01*
X020830Y016074D01*
X020830Y015900D01*
X020830Y016031D02*
X020657Y016031D01*
X020554Y016161D02*
X020424Y016161D01*
X020380Y016117D01*
X020380Y015944D01*
X020424Y015900D01*
X020554Y015900D01*
X020554Y016161D01*
X020554Y016900D02*
X020424Y016900D01*
X020380Y016944D01*
X020380Y017117D01*
X020424Y017161D01*
X020554Y017161D01*
X020554Y016900D01*
X020657Y016900D02*
X020657Y017074D01*
X020743Y017161D01*
X020830Y017074D01*
X020830Y016900D01*
X020830Y017031D02*
X020657Y017031D01*
X020700Y017550D02*
X020787Y017550D01*
X020830Y017594D01*
X020830Y017681D02*
X020743Y017724D01*
X020700Y017724D01*
X020657Y017681D01*
X020657Y017594D01*
X020700Y017550D01*
X020554Y017637D02*
X020467Y017550D01*
X020380Y017637D01*
X020380Y017811D01*
X020554Y017811D02*
X020554Y017637D01*
X020657Y017811D02*
X020830Y017811D01*
X020830Y017681D01*
X020787Y018550D02*
X020700Y018550D01*
X020657Y018594D01*
X020657Y018681D01*
X020743Y018681D01*
X020657Y018767D02*
X020700Y018811D01*
X020787Y018811D01*
X020830Y018767D01*
X020830Y018594D01*
X020787Y018550D01*
X020554Y018550D02*
X020554Y018811D01*
X020380Y018550D01*
X020380Y018811D01*
X020278Y018811D02*
X020278Y018550D01*
X020147Y018550D01*
X020104Y018594D01*
X020104Y018767D01*
X020147Y018811D01*
X020278Y018811D01*
X020234Y017161D02*
X020278Y017117D01*
X020278Y016944D01*
X020234Y016900D01*
X020147Y016900D01*
X020104Y016944D01*
X020001Y016944D02*
X019958Y016900D01*
X019871Y016900D01*
X019828Y016944D01*
X019828Y017117D01*
X020001Y016944D01*
X020001Y017117D01*
X019958Y017161D01*
X019871Y017161D01*
X019828Y017117D01*
X020104Y017117D02*
X020147Y017161D01*
X020234Y017161D01*
X020234Y016161D02*
X020278Y016117D01*
X020278Y015944D01*
X020234Y015900D01*
X020147Y015900D01*
X020104Y015944D01*
X020001Y015900D02*
X019828Y015900D01*
X019915Y015900D02*
X019915Y016161D01*
X020001Y016074D01*
X020104Y016117D02*
X020147Y016161D01*
X020234Y016161D01*
X020234Y015161D02*
X020278Y015117D01*
X020278Y014944D01*
X020234Y014900D01*
X020147Y014900D01*
X020104Y014944D01*
X020001Y014900D02*
X019828Y015074D01*
X019828Y015117D01*
X019871Y015161D01*
X019958Y015161D01*
X020001Y015117D01*
X020104Y015117D02*
X020147Y015161D01*
X020234Y015161D01*
X020001Y014900D02*
X019828Y014900D01*
X019708Y004200D02*
X019646Y004139D01*
D12*
X021933Y008000D02*
X021875Y008059D01*
X021875Y008176D01*
X021933Y008234D01*
X021992Y008234D01*
X022050Y008176D01*
X022050Y008059D01*
X022109Y008000D01*
X022167Y008000D01*
X022225Y008059D01*
X022225Y008176D01*
X022167Y008234D01*
X022225Y008486D02*
X022225Y008602D01*
X022225Y008544D02*
X021933Y008544D01*
X021875Y008486D01*
X021875Y008427D01*
X021933Y008369D01*
X021875Y008737D02*
X021875Y008971D01*
X021875Y008854D02*
X022225Y008854D01*
X022109Y008737D01*
X022067Y013700D02*
X022009Y013700D01*
X021950Y013759D01*
X021950Y013876D01*
X021892Y013934D01*
X021833Y013934D01*
X021775Y013876D01*
X021775Y013759D01*
X021833Y013700D01*
X022067Y013700D02*
X022125Y013759D01*
X022125Y013876D01*
X022067Y013934D01*
X022125Y014186D02*
X022125Y014302D01*
X022125Y014244D02*
X021833Y014244D01*
X021775Y014186D01*
X021775Y014127D01*
X021833Y014069D01*
X021775Y014437D02*
X022009Y014671D01*
X022067Y014671D01*
X022125Y014612D01*
X022125Y014495D01*
X022067Y014437D01*
X021775Y014437D02*
X021775Y014671D01*
X020725Y020405D02*
X020491Y020405D01*
X020608Y020405D02*
X020608Y020756D01*
X020725Y020639D01*
X020357Y020697D02*
X020298Y020756D01*
X020182Y020756D01*
X020123Y020697D01*
X020123Y020639D01*
X020357Y020405D01*
X020123Y020405D01*
X019988Y020522D02*
X019988Y020756D01*
X019755Y020756D02*
X019755Y020522D01*
X019872Y020405D01*
X019988Y020522D01*
X019988Y021405D02*
X019813Y021405D01*
X019755Y021464D01*
X019755Y021697D01*
X019813Y021756D01*
X019988Y021756D01*
X019988Y021405D01*
X020123Y021405D02*
X020123Y021756D01*
X020357Y021756D02*
X020123Y021405D01*
X020357Y021405D02*
X020357Y021756D01*
X020491Y021697D02*
X020550Y021756D01*
X020667Y021756D01*
X020725Y021697D01*
X020725Y021464D01*
X020667Y021405D01*
X020550Y021405D01*
X020491Y021464D01*
X020491Y021581D01*
X020608Y021581D01*
X018475Y020361D02*
X018125Y020361D01*
X018475Y020128D01*
X018125Y020128D01*
X018183Y019993D02*
X018417Y019993D01*
X018475Y019935D01*
X018475Y019818D01*
X018417Y019759D01*
X018183Y019759D01*
X018125Y019818D01*
X018125Y019935D01*
X018183Y019993D01*
X018125Y019631D02*
X018125Y019514D01*
X018125Y019572D02*
X018475Y019572D01*
X018475Y019514D02*
X018475Y019631D01*
X018475Y019379D02*
X018475Y019146D01*
X018475Y019262D02*
X018125Y019262D01*
X018183Y019011D02*
X018475Y019011D01*
X018475Y018777D02*
X018183Y018777D01*
X018125Y018836D01*
X018125Y018952D01*
X018183Y019011D01*
X017934Y018836D02*
X017875Y018836D01*
X017759Y018836D02*
X017525Y018836D01*
X017525Y018894D02*
X017525Y018777D01*
X017583Y018642D02*
X017525Y018584D01*
X017525Y018409D01*
X017408Y018409D02*
X017759Y018409D01*
X017759Y018584D01*
X017700Y018642D01*
X017583Y018642D01*
X017759Y018777D02*
X017759Y018836D01*
X017759Y019023D02*
X017759Y019198D01*
X017700Y019256D01*
X017525Y019256D01*
X017525Y019391D02*
X017525Y019566D01*
X017583Y019625D01*
X017642Y019566D01*
X017642Y019449D01*
X017700Y019391D01*
X017759Y019449D01*
X017759Y019625D01*
X017700Y020128D02*
X017759Y020186D01*
X017759Y020361D01*
X017875Y020361D02*
X017525Y020361D01*
X017525Y020186D01*
X017583Y020128D01*
X017700Y020128D01*
X017700Y020496D02*
X017583Y020496D01*
X017525Y020554D01*
X017525Y020671D01*
X017583Y020730D01*
X017700Y020730D01*
X017759Y020671D01*
X017759Y020554D01*
X017700Y020496D01*
X018125Y020496D02*
X018183Y020496D01*
X018183Y020554D01*
X018125Y020554D01*
X018125Y020496D01*
X018300Y020496D02*
X018359Y020496D01*
X018359Y020554D01*
X018300Y020554D01*
X018300Y020496D01*
X018300Y021048D02*
X018183Y021048D01*
X018125Y021107D01*
X018125Y021224D01*
X018242Y021282D02*
X018242Y021048D01*
X018300Y021048D02*
X018359Y021107D01*
X018359Y021224D01*
X018300Y021282D01*
X018242Y021282D01*
X018359Y021417D02*
X018359Y021592D01*
X018300Y021650D01*
X018125Y021650D01*
X018125Y021785D02*
X018125Y021960D01*
X018183Y022019D01*
X018242Y021960D01*
X018242Y021843D01*
X018300Y021785D01*
X018359Y021843D01*
X018359Y022019D01*
X018359Y022153D02*
X018183Y022153D01*
X018125Y022212D01*
X018125Y022387D01*
X018359Y022387D01*
X018359Y022522D02*
X018125Y022522D01*
X018242Y022522D02*
X018359Y022638D01*
X018359Y022697D01*
X018300Y022829D02*
X018359Y022887D01*
X018359Y023004D01*
X018300Y023062D01*
X018242Y023062D01*
X018242Y022829D01*
X018300Y022829D02*
X018183Y022829D01*
X018125Y022887D01*
X018125Y023004D01*
X017759Y023004D02*
X017759Y022887D01*
X017700Y022829D01*
X017583Y022829D01*
X017525Y022887D01*
X017525Y023004D01*
X017583Y023062D01*
X017700Y023062D01*
X017759Y023004D01*
X017759Y023197D02*
X017583Y023197D01*
X017525Y023255D01*
X017525Y023430D01*
X017759Y023430D01*
X017700Y023565D02*
X017583Y023565D01*
X017525Y023624D01*
X017525Y023799D01*
X017525Y023934D02*
X017875Y023934D01*
X017759Y023992D02*
X017759Y024109D01*
X017700Y024167D01*
X017525Y024167D01*
X017700Y023934D02*
X017759Y023992D01*
X017759Y023799D02*
X017759Y023624D01*
X017700Y023565D01*
X018125Y023565D02*
X018125Y023799D01*
X018125Y023682D02*
X018475Y023682D01*
X018359Y023565D01*
X018417Y023934D02*
X018475Y023992D01*
X018475Y024109D01*
X018417Y024167D01*
X018359Y024167D01*
X018125Y023934D01*
X018125Y024167D01*
X018242Y024302D02*
X018125Y024419D01*
X018242Y024535D01*
X018475Y024535D01*
X018475Y024302D02*
X018242Y024302D01*
X017759Y022700D02*
X017759Y022583D01*
X017817Y022641D02*
X017583Y022641D01*
X017525Y022700D01*
X017525Y022086D02*
X017583Y022028D01*
X017817Y022028D01*
X017759Y021969D02*
X017759Y022086D01*
X017700Y021834D02*
X017759Y021776D01*
X017759Y021659D01*
X017700Y021601D01*
X017583Y021601D01*
X017525Y021659D01*
X017525Y021776D01*
X017583Y021834D01*
X017700Y021834D01*
X017700Y021466D02*
X017525Y021466D01*
X017700Y021466D02*
X017759Y021408D01*
X017759Y021233D01*
X017525Y021233D01*
X017159Y021193D02*
X017159Y021076D01*
X017100Y021018D01*
X016983Y021018D01*
X016925Y021076D01*
X016925Y021193D01*
X016983Y021251D01*
X017100Y021251D01*
X017159Y021193D01*
X017159Y021386D02*
X017159Y021561D01*
X017100Y021620D01*
X016925Y021620D01*
X016925Y021754D02*
X017159Y021754D01*
X017159Y021930D01*
X017100Y021988D01*
X016925Y021988D01*
X016983Y022123D02*
X017100Y022123D01*
X017159Y022181D01*
X017159Y022298D01*
X017100Y022356D01*
X017042Y022356D01*
X017042Y022123D01*
X016983Y022123D02*
X016925Y022181D01*
X016925Y022298D01*
X016983Y022491D02*
X016925Y022549D01*
X016925Y022725D01*
X016983Y022918D02*
X016925Y022976D01*
X016983Y022918D02*
X017217Y022918D01*
X017159Y022859D02*
X017159Y022976D01*
X017100Y023105D02*
X016983Y023105D01*
X016925Y023163D01*
X016925Y023280D01*
X016983Y023338D01*
X017100Y023338D01*
X017159Y023280D01*
X017159Y023163D01*
X017100Y023105D01*
X017042Y023473D02*
X017159Y023590D01*
X017159Y023648D01*
X017159Y023473D02*
X016925Y023473D01*
X017159Y022725D02*
X017159Y022549D01*
X017100Y022491D01*
X016983Y022491D01*
X016925Y021386D02*
X017159Y021386D01*
X017159Y020883D02*
X017159Y020708D01*
X017100Y020649D01*
X016983Y020649D01*
X016925Y020708D01*
X016925Y020883D01*
X016925Y020152D02*
X016925Y020036D01*
X016925Y020094D02*
X017275Y020094D01*
X017275Y020036D02*
X017275Y020152D01*
X017275Y019901D02*
X016925Y019901D01*
X016925Y019667D02*
X017275Y019667D01*
X017159Y019784D01*
X017275Y019901D01*
X017217Y019533D02*
X016983Y019533D01*
X016925Y019474D01*
X016925Y019299D01*
X017275Y019299D01*
X017275Y019474D01*
X017217Y019533D01*
X017275Y019164D02*
X016925Y019164D01*
X017100Y019164D02*
X017100Y018931D01*
X016925Y018931D02*
X017275Y018931D01*
X017525Y019023D02*
X017759Y019023D01*
X018125Y018642D02*
X018359Y018642D01*
X018475Y018526D01*
X018359Y018409D01*
X018125Y018409D01*
X018183Y018274D02*
X018125Y018216D01*
X018125Y018099D01*
X018183Y018041D01*
X018417Y018041D01*
X018475Y018099D01*
X018475Y018216D01*
X018417Y018274D01*
X018300Y018409D02*
X018300Y018642D01*
X018125Y016352D02*
X018125Y016235D01*
X018125Y016293D02*
X018475Y016293D01*
X018475Y016235D01*
X018475Y016048D02*
X018125Y016048D01*
X018125Y015990D02*
X018125Y016106D01*
X018125Y015855D02*
X018125Y015680D01*
X018183Y015621D01*
X018242Y015680D01*
X018242Y015855D01*
X018300Y015855D02*
X018125Y015855D01*
X018300Y015855D02*
X018359Y015796D01*
X018359Y015680D01*
X018359Y015492D02*
X018359Y015376D01*
X018417Y015434D02*
X018183Y015434D01*
X018125Y015492D01*
X018183Y015241D02*
X018242Y015183D01*
X018242Y015066D01*
X018300Y015007D01*
X018359Y015066D01*
X018359Y015241D01*
X018183Y015241D02*
X018125Y015183D01*
X018125Y015007D01*
X018125Y014873D02*
X018300Y014873D01*
X018359Y014814D01*
X018359Y014639D01*
X018125Y014639D01*
X018125Y014510D02*
X018125Y014393D01*
X018125Y014452D02*
X018359Y014452D01*
X018359Y014393D01*
X018475Y014452D02*
X018534Y014452D01*
X018359Y013896D02*
X018359Y013780D01*
X018417Y013838D02*
X018183Y013838D01*
X018125Y013896D01*
X018183Y013645D02*
X018300Y013645D01*
X018359Y013586D01*
X018359Y013470D01*
X018300Y013411D01*
X018183Y013411D01*
X018125Y013470D01*
X018125Y013586D01*
X018183Y013645D01*
X017934Y013562D02*
X017875Y013562D01*
X017759Y013562D02*
X017525Y013562D01*
X017525Y013620D02*
X017525Y013503D01*
X017525Y013375D02*
X017583Y013316D01*
X017817Y013316D01*
X017759Y013258D02*
X017759Y013375D01*
X017759Y013503D02*
X017759Y013562D01*
X017759Y013749D02*
X017525Y013749D01*
X017525Y013982D02*
X017700Y013982D01*
X017759Y013924D01*
X017759Y013749D01*
X017700Y014117D02*
X017583Y014117D01*
X017525Y014176D01*
X017525Y014351D01*
X017467Y014351D02*
X017759Y014351D01*
X017759Y014176D01*
X017700Y014117D01*
X017408Y014234D02*
X017408Y014292D01*
X017467Y014351D01*
X017525Y014854D02*
X017525Y015029D01*
X017583Y015087D01*
X017700Y015087D01*
X017759Y015029D01*
X017759Y014854D01*
X017408Y014854D01*
X017583Y015222D02*
X017525Y015281D01*
X017525Y015397D01*
X017583Y015456D01*
X017700Y015456D01*
X017759Y015397D01*
X017759Y015281D01*
X017700Y015222D01*
X017583Y015222D01*
X017525Y015591D02*
X017525Y015766D01*
X017583Y015824D01*
X017642Y015766D01*
X017642Y015649D01*
X017700Y015591D01*
X017759Y015649D01*
X017759Y015824D01*
X017759Y015959D02*
X017759Y016076D01*
X017817Y016017D02*
X017583Y016017D01*
X017525Y016076D01*
X018475Y016048D02*
X018475Y015990D01*
X018300Y013277D02*
X018125Y013277D01*
X018300Y013277D02*
X018359Y013218D01*
X018359Y013043D01*
X018125Y013043D01*
X017759Y013065D02*
X017700Y013123D01*
X017525Y013123D01*
X017525Y012890D02*
X017759Y012890D01*
X017759Y013065D01*
X017759Y012755D02*
X017525Y012755D01*
X017525Y012580D01*
X017583Y012521D01*
X017759Y012521D01*
X017700Y012386D02*
X017759Y012328D01*
X017759Y012211D01*
X017700Y012153D01*
X017583Y012153D01*
X017525Y012211D01*
X017525Y012328D01*
X017583Y012386D01*
X017700Y012386D01*
X017700Y012018D02*
X017525Y012018D01*
X017525Y011901D02*
X017700Y011901D01*
X017759Y011960D01*
X017700Y012018D01*
X017700Y011901D02*
X017759Y011843D01*
X017759Y011785D01*
X017525Y011785D01*
X017525Y011288D02*
X017583Y011229D01*
X017817Y011229D01*
X017759Y011171D02*
X017759Y011288D01*
X017759Y011036D02*
X017525Y011036D01*
X017525Y010861D01*
X017583Y010802D01*
X017759Y010802D01*
X017700Y010668D02*
X017759Y010609D01*
X017759Y010493D01*
X017700Y010434D01*
X017583Y010434D01*
X017525Y010493D01*
X017525Y010609D01*
X017583Y010668D01*
X017700Y010668D01*
X017700Y010299D02*
X017525Y010299D01*
X017700Y010299D02*
X017759Y010241D01*
X017759Y010124D01*
X017700Y010066D01*
X017759Y009937D02*
X017759Y009820D01*
X017817Y009879D02*
X017583Y009879D01*
X017525Y009937D01*
X017525Y010066D02*
X017875Y010066D01*
X018125Y010152D02*
X018475Y010152D01*
X018475Y010035D02*
X018475Y010269D01*
X018475Y010403D02*
X018475Y010520D01*
X018475Y010462D02*
X018125Y010462D01*
X018125Y010520D02*
X018125Y010403D01*
X018183Y010649D02*
X018125Y010707D01*
X018125Y010824D01*
X018183Y010883D01*
X018417Y010883D01*
X018475Y010824D01*
X018475Y010707D01*
X018417Y010649D01*
X018183Y010649D01*
X018125Y011017D02*
X018475Y011017D01*
X018125Y011251D01*
X018475Y011251D01*
X018359Y011386D02*
X018300Y011386D01*
X018300Y011444D01*
X018359Y011444D01*
X018359Y011386D01*
X018183Y011386D02*
X018125Y011386D01*
X018125Y011444D01*
X018183Y011444D01*
X018183Y011386D01*
X018183Y011938D02*
X018300Y011938D01*
X018359Y011996D01*
X018359Y012172D01*
X018475Y012172D02*
X018125Y012172D01*
X018125Y011996D01*
X018183Y011938D01*
X018183Y012306D02*
X018125Y012365D01*
X018125Y012482D01*
X018183Y012540D01*
X018300Y012540D01*
X018359Y012482D01*
X018359Y012365D01*
X018300Y012306D01*
X018183Y012306D01*
X018183Y009900D02*
X018475Y009900D01*
X018475Y009667D02*
X018183Y009667D01*
X018125Y009725D01*
X018125Y009842D01*
X018183Y009900D01*
X017934Y009633D02*
X017875Y009633D01*
X017759Y009633D02*
X017525Y009633D01*
X017525Y009575D02*
X017525Y009691D01*
X017759Y009633D02*
X017759Y009575D01*
X017759Y009440D02*
X017583Y009440D01*
X017525Y009382D01*
X017583Y009323D01*
X017525Y009265D01*
X017583Y009206D01*
X017759Y009206D01*
X018125Y009298D02*
X018359Y009298D01*
X018475Y009415D01*
X018359Y009532D01*
X018125Y009532D01*
X018300Y009532D02*
X018300Y009298D01*
X018183Y009164D02*
X018125Y009105D01*
X018125Y008989D01*
X018183Y008930D01*
X018417Y008930D01*
X018475Y008989D01*
X018475Y009105D01*
X018417Y009164D01*
X016708Y004556D02*
X016708Y004205D01*
X016825Y004205D02*
X016591Y004205D01*
X016457Y004205D02*
X016223Y004439D01*
X016223Y004497D01*
X016282Y004556D01*
X016398Y004556D01*
X016457Y004497D01*
X016708Y004556D02*
X016825Y004439D01*
X016457Y004205D02*
X016223Y004205D01*
X016088Y004322D02*
X015972Y004205D01*
X015855Y004322D01*
X015855Y004556D01*
X016088Y004556D02*
X016088Y004322D01*
X015500Y003689D02*
X015500Y003455D01*
X015617Y003572D02*
X015383Y003572D01*
X017110Y003581D02*
X017343Y003581D01*
X012280Y006964D02*
X012222Y006905D01*
X012105Y006905D01*
X012046Y006964D01*
X011912Y007022D02*
X011736Y007022D01*
X011678Y007081D01*
X011678Y007197D01*
X011736Y007256D01*
X011912Y007256D01*
X011912Y006905D01*
X011795Y007022D02*
X011678Y006905D01*
X011543Y006905D02*
X011310Y006905D01*
X011427Y006905D02*
X011427Y007256D01*
X011543Y007139D01*
X011543Y007705D02*
X011368Y007705D01*
X011310Y007764D01*
X011310Y007822D01*
X011368Y007881D01*
X011543Y007881D01*
X011543Y008056D02*
X011543Y007705D01*
X011368Y007881D02*
X011310Y007939D01*
X011310Y007997D01*
X011368Y008056D01*
X011543Y008056D01*
X011175Y007939D02*
X011058Y008056D01*
X011058Y007705D01*
X011175Y007705D02*
X010941Y007705D01*
X011000Y007256D02*
X011117Y007256D01*
X011175Y007197D01*
X011000Y007256D02*
X010941Y007197D01*
X010941Y007139D01*
X011175Y006905D01*
X010941Y006905D01*
X010807Y006905D02*
X010573Y007139D01*
X010573Y007197D01*
X010632Y007256D01*
X010748Y007256D01*
X010807Y007197D01*
X010807Y006905D02*
X010573Y006905D01*
X010438Y006964D02*
X010205Y007197D01*
X010205Y006964D01*
X010263Y006905D01*
X010380Y006905D01*
X010438Y006964D01*
X010438Y007197D01*
X010380Y007256D01*
X010263Y007256D01*
X010205Y007197D01*
X012046Y007197D02*
X012105Y007256D01*
X012222Y007256D01*
X012280Y007197D01*
X012280Y006964D01*
X005675Y008070D02*
X005675Y008220D01*
X005600Y008295D01*
X005450Y008295D02*
X005375Y008145D01*
X005375Y008070D01*
X005450Y007995D01*
X005600Y007995D01*
X005675Y008070D01*
X005450Y008295D02*
X005225Y008295D01*
X005225Y007995D01*
X005300Y008455D02*
X005450Y008455D01*
X005525Y008530D01*
X005525Y008755D01*
X005675Y008755D02*
X005225Y008755D01*
X005225Y008530D01*
X005300Y008455D01*
X003675Y014995D02*
X003675Y015295D01*
X003675Y015145D02*
X003225Y015145D01*
X003375Y015295D01*
X003450Y015455D02*
X003525Y015530D01*
X003525Y015755D01*
X003675Y015755D02*
X003225Y015755D01*
X003225Y015530D01*
X003300Y015455D01*
X003450Y015455D01*
X002025Y017105D02*
X002175Y017406D01*
X001875Y017406D02*
X002025Y017105D01*
X001715Y017105D02*
X001414Y017105D01*
X001564Y017105D02*
X001564Y017556D01*
X001715Y017406D01*
X018125Y021417D02*
X018359Y021417D01*
D13*
X018700Y021180D02*
X019600Y021180D01*
X019600Y019880D01*
X021700Y019880D01*
X021700Y022280D01*
X019600Y022280D01*
X019600Y021180D01*
X018700Y021180D02*
X018700Y024780D01*
X016700Y024780D01*
X016700Y017880D01*
X018700Y017880D01*
X018700Y021180D01*
X018700Y016580D02*
X017300Y016580D01*
X017300Y012680D01*
X016900Y012680D01*
X017300Y012680D02*
X017300Y008780D01*
X018700Y008780D01*
X018700Y016580D01*
X020085Y014574D02*
X020715Y014574D01*
X020731Y014569D01*
X020747Y014561D01*
X020761Y014551D01*
X020773Y014539D01*
X020783Y014524D01*
X020790Y014508D01*
X020794Y014491D01*
X020795Y014474D01*
X020793Y014456D01*
X020900Y014180D02*
X021600Y014180D01*
X020793Y013905D02*
X020795Y013887D01*
X020794Y013870D01*
X020790Y013853D01*
X020783Y013837D01*
X020773Y013822D01*
X020761Y013810D01*
X020747Y013800D01*
X020731Y013792D01*
X020715Y013787D01*
X020085Y013787D01*
X020069Y013792D01*
X020053Y013800D01*
X020039Y013810D01*
X020027Y013822D01*
X020017Y013837D01*
X020010Y013853D01*
X020006Y013870D01*
X020005Y013887D01*
X020007Y013905D01*
X020007Y014456D02*
X020005Y014474D01*
X020006Y014491D01*
X020010Y014508D01*
X020017Y014524D01*
X020027Y014539D01*
X020039Y014551D01*
X020053Y014561D01*
X020069Y014569D01*
X020085Y014574D01*
X021650Y007505D02*
X021650Y006855D01*
X021652Y006838D01*
X021656Y006821D01*
X021663Y006805D01*
X021673Y006791D01*
X021686Y006778D01*
X021700Y006768D01*
X021716Y006761D01*
X021733Y006757D01*
X021750Y006755D01*
X021650Y007505D02*
X021652Y007522D01*
X021656Y007539D01*
X021663Y007555D01*
X021673Y007569D01*
X021686Y007582D01*
X021700Y007592D01*
X021716Y007599D01*
X021733Y007603D01*
X021750Y007605D01*
X022350Y007605D02*
X022367Y007603D01*
X022384Y007599D01*
X022400Y007592D01*
X022414Y007582D01*
X022427Y007569D01*
X022437Y007555D01*
X022444Y007539D01*
X022448Y007522D01*
X022450Y007505D01*
X022450Y006855D01*
X022448Y006838D01*
X022444Y006821D01*
X022437Y006805D01*
X022427Y006791D01*
X022414Y006778D01*
X022400Y006768D01*
X022384Y006761D01*
X022367Y006757D01*
X022350Y006755D01*
X016300Y003780D02*
X016325Y003802D01*
X016352Y003821D01*
X016382Y003837D01*
X016413Y003849D01*
X016445Y003858D01*
X016478Y003862D01*
X016511Y003863D01*
X016544Y003860D01*
X016577Y003852D01*
X016608Y003841D01*
X016638Y003827D01*
X016666Y003809D01*
X016692Y003788D01*
X016715Y003764D01*
X016735Y003737D01*
X016752Y003708D01*
X016766Y003678D01*
X016775Y003646D01*
X016781Y003613D01*
X016783Y003580D01*
X016781Y003547D01*
X016775Y003514D01*
X016766Y003482D01*
X016752Y003452D01*
X016735Y003423D01*
X016715Y003396D01*
X016692Y003372D01*
X016666Y003351D01*
X016638Y003333D01*
X016608Y003319D01*
X016577Y003308D01*
X016544Y003300D01*
X016511Y003297D01*
X016478Y003298D01*
X016445Y003302D01*
X016413Y003311D01*
X016382Y003323D01*
X016352Y003339D01*
X016325Y003358D01*
X016300Y003380D01*
X016500Y003580D02*
X015900Y003580D01*
X012605Y007525D02*
X013800Y008720D01*
X013800Y009236D01*
X013800Y011125D02*
X013800Y012275D01*
X012710Y012275D01*
X012710Y012276D02*
X012664Y012230D01*
X012615Y012186D01*
X012564Y012145D01*
X012512Y012106D01*
X012457Y012070D01*
X012401Y012036D01*
X012344Y012006D01*
X012284Y011978D01*
X012224Y011953D01*
X010176Y011953D02*
X010116Y011978D01*
X010056Y012006D01*
X009999Y012036D01*
X009943Y012070D01*
X009888Y012106D01*
X009836Y012145D01*
X009785Y012186D01*
X009736Y012230D01*
X009690Y012276D01*
X009690Y012275D02*
X008600Y012275D01*
X008600Y011125D01*
X008600Y009236D02*
X008600Y008720D01*
X009795Y007525D01*
X012605Y007525D01*
X014031Y012620D02*
X014033Y012695D01*
X014039Y012771D01*
X014049Y012846D01*
X014063Y012920D01*
X014081Y012993D01*
X014102Y013065D01*
X014128Y013137D01*
X014157Y013206D01*
X014189Y013274D01*
X014226Y013340D01*
X014265Y013405D01*
X014309Y013467D01*
X014355Y013526D01*
X014404Y013583D01*
X014457Y013638D01*
X014512Y013689D01*
X014569Y013738D01*
X014630Y013784D01*
X014692Y013826D01*
X014757Y013865D01*
X014824Y013900D01*
X014892Y013932D01*
X014962Y013960D01*
X015033Y013985D01*
X015106Y014005D01*
X015180Y014022D01*
X015254Y014035D01*
X015329Y014044D01*
X015404Y014049D01*
X015480Y014050D01*
X015555Y014047D01*
X015630Y014040D01*
X015705Y014029D01*
X015779Y014014D01*
X015852Y013995D01*
X015924Y013973D01*
X015995Y013947D01*
X016064Y013916D01*
X016132Y013883D01*
X016198Y013846D01*
X016261Y013805D01*
X016323Y013761D01*
X016382Y013714D01*
X016438Y013664D01*
X016492Y013611D01*
X016543Y013555D01*
X016591Y013497D01*
X016635Y013436D01*
X016677Y013373D01*
X016715Y013308D01*
X016749Y013240D01*
X016780Y013172D01*
X016808Y013101D01*
X016831Y013029D01*
X016851Y012957D01*
X016867Y012883D01*
X016879Y012808D01*
X016887Y012733D01*
X016891Y012658D01*
X016891Y012582D01*
X016887Y012507D01*
X016879Y012432D01*
X016867Y012357D01*
X016851Y012283D01*
X016831Y012211D01*
X016808Y012139D01*
X016780Y012068D01*
X016749Y012000D01*
X016715Y011932D01*
X016677Y011867D01*
X016635Y011804D01*
X016591Y011743D01*
X016543Y011685D01*
X016492Y011629D01*
X016438Y011576D01*
X016382Y011526D01*
X016323Y011479D01*
X016261Y011435D01*
X016198Y011394D01*
X016132Y011357D01*
X016064Y011324D01*
X015995Y011293D01*
X015924Y011267D01*
X015852Y011245D01*
X015779Y011226D01*
X015705Y011211D01*
X015630Y011200D01*
X015555Y011193D01*
X015480Y011190D01*
X015404Y011191D01*
X015329Y011196D01*
X015254Y011205D01*
X015180Y011218D01*
X015106Y011235D01*
X015033Y011255D01*
X014962Y011280D01*
X014892Y011308D01*
X014824Y011340D01*
X014757Y011375D01*
X014692Y011414D01*
X014630Y011456D01*
X014569Y011502D01*
X014512Y011551D01*
X014457Y011602D01*
X014404Y011657D01*
X014355Y011714D01*
X014309Y011773D01*
X014265Y011835D01*
X014226Y011900D01*
X014189Y011966D01*
X014157Y012034D01*
X014128Y012103D01*
X014102Y012175D01*
X014081Y012247D01*
X014063Y012320D01*
X014049Y012394D01*
X014039Y012469D01*
X014033Y012545D01*
X014031Y012620D01*
D14*
X016480Y003580D02*
X016482Y003588D01*
X016487Y003595D01*
X016494Y003599D01*
X016502Y003600D01*
X016510Y003597D01*
X016516Y003592D01*
X016520Y003584D01*
X016520Y003576D01*
X016516Y003568D01*
X016510Y003563D01*
X016502Y003560D01*
X016494Y003561D01*
X016487Y003565D01*
X016482Y003572D01*
X016480Y003580D01*
D15*
X005000Y004880D02*
X005000Y008880D01*
X003000Y008880D01*
X003000Y015880D01*
X001000Y015880D01*
X001000Y002880D01*
X003000Y002880D01*
X003000Y004880D01*
X005000Y004880D01*
X003000Y004880D02*
X003000Y008880D01*
M02*
