G75*
G70*
%OFA0B0*%
%FSLAX24Y24*%
%IPPOS*%
%LPD*%
%AMOC8*
5,1,8,0,0,1.08239X$1,22.5*
%
%ADD10C,0.0000*%
%ADD11C,0.0600*%
%ADD12C,0.0650*%
%ADD13C,0.0886*%
%ADD14C,0.0945*%
%ADD15C,0.0080*%
%ADD16R,0.0500X0.0250*%
%ADD17C,0.0315*%
%ADD18C,0.0591*%
%ADD19C,0.3937*%
%ADD20R,0.1654X0.1654*%
%ADD21C,0.0353*%
%ADD22R,0.0250X0.0500*%
%ADD23C,0.0100*%
%ADD24C,0.0317*%
%ADD25C,0.0160*%
D10*
X001581Y002580D02*
X021266Y002580D01*
X020736Y003761D02*
X020738Y003811D01*
X020744Y003861D01*
X020754Y003910D01*
X020768Y003958D01*
X020785Y004005D01*
X020806Y004050D01*
X020831Y004094D01*
X020859Y004135D01*
X020891Y004174D01*
X020925Y004211D01*
X020962Y004245D01*
X021002Y004275D01*
X021044Y004302D01*
X021088Y004326D01*
X021134Y004347D01*
X021181Y004363D01*
X021229Y004376D01*
X021279Y004385D01*
X021328Y004390D01*
X021379Y004391D01*
X021429Y004388D01*
X021478Y004381D01*
X021527Y004370D01*
X021575Y004355D01*
X021621Y004337D01*
X021666Y004315D01*
X021709Y004289D01*
X021750Y004260D01*
X021789Y004228D01*
X021825Y004193D01*
X021857Y004155D01*
X021887Y004115D01*
X021914Y004072D01*
X021937Y004028D01*
X021956Y003982D01*
X021972Y003934D01*
X021984Y003885D01*
X021992Y003836D01*
X021996Y003786D01*
X021996Y003736D01*
X021992Y003686D01*
X021984Y003637D01*
X021972Y003588D01*
X021956Y003540D01*
X021937Y003494D01*
X021914Y003450D01*
X021887Y003407D01*
X021857Y003367D01*
X021825Y003329D01*
X021789Y003294D01*
X021750Y003262D01*
X021709Y003233D01*
X021666Y003207D01*
X021621Y003185D01*
X021575Y003167D01*
X021527Y003152D01*
X021478Y003141D01*
X021429Y003134D01*
X021379Y003131D01*
X021328Y003132D01*
X021279Y003137D01*
X021229Y003146D01*
X021181Y003159D01*
X021134Y003175D01*
X021088Y003196D01*
X021044Y003220D01*
X021002Y003247D01*
X020962Y003277D01*
X020925Y003311D01*
X020891Y003348D01*
X020859Y003387D01*
X020831Y003428D01*
X020806Y003472D01*
X020785Y003517D01*
X020768Y003564D01*
X020754Y003612D01*
X020744Y003661D01*
X020738Y003711D01*
X020736Y003761D01*
X021266Y002580D02*
X021335Y002579D01*
X021404Y002582D01*
X021473Y002589D01*
X021541Y002600D01*
X021609Y002614D01*
X021675Y002633D01*
X021741Y002655D01*
X021805Y002680D01*
X021868Y002709D01*
X021929Y002742D01*
X021988Y002778D01*
X022044Y002817D01*
X022099Y002860D01*
X022151Y002905D01*
X022201Y002953D01*
X022247Y003004D01*
X022291Y003058D01*
X022332Y003114D01*
X022369Y003172D01*
X022403Y003232D01*
X022434Y003294D01*
X022461Y003357D01*
X022485Y003422D01*
X022505Y003488D01*
X022521Y003556D01*
X022534Y003623D01*
X022542Y003692D01*
X022547Y003761D01*
X022547Y024099D01*
X020736Y024099D02*
X020738Y024149D01*
X020744Y024199D01*
X020754Y024248D01*
X020768Y024296D01*
X020785Y024343D01*
X020806Y024388D01*
X020831Y024432D01*
X020859Y024473D01*
X020891Y024512D01*
X020925Y024549D01*
X020962Y024583D01*
X021002Y024613D01*
X021044Y024640D01*
X021088Y024664D01*
X021134Y024685D01*
X021181Y024701D01*
X021229Y024714D01*
X021279Y024723D01*
X021328Y024728D01*
X021379Y024729D01*
X021429Y024726D01*
X021478Y024719D01*
X021527Y024708D01*
X021575Y024693D01*
X021621Y024675D01*
X021666Y024653D01*
X021709Y024627D01*
X021750Y024598D01*
X021789Y024566D01*
X021825Y024531D01*
X021857Y024493D01*
X021887Y024453D01*
X021914Y024410D01*
X021937Y024366D01*
X021956Y024320D01*
X021972Y024272D01*
X021984Y024223D01*
X021992Y024174D01*
X021996Y024124D01*
X021996Y024074D01*
X021992Y024024D01*
X021984Y023975D01*
X021972Y023926D01*
X021956Y023878D01*
X021937Y023832D01*
X021914Y023788D01*
X021887Y023745D01*
X021857Y023705D01*
X021825Y023667D01*
X021789Y023632D01*
X021750Y023600D01*
X021709Y023571D01*
X021666Y023545D01*
X021621Y023523D01*
X021575Y023505D01*
X021527Y023490D01*
X021478Y023479D01*
X021429Y023472D01*
X021379Y023469D01*
X021328Y023470D01*
X021279Y023475D01*
X021229Y023484D01*
X021181Y023497D01*
X021134Y023513D01*
X021088Y023534D01*
X021044Y023558D01*
X021002Y023585D01*
X020962Y023615D01*
X020925Y023649D01*
X020891Y023686D01*
X020859Y023725D01*
X020831Y023766D01*
X020806Y023810D01*
X020785Y023855D01*
X020768Y023902D01*
X020754Y023950D01*
X020744Y023999D01*
X020738Y024049D01*
X020736Y024099D01*
X021366Y025280D02*
X021432Y025278D01*
X021498Y025273D01*
X021564Y025263D01*
X021629Y025250D01*
X021693Y025234D01*
X021756Y025214D01*
X021818Y025190D01*
X021878Y025163D01*
X021937Y025133D01*
X021994Y025099D01*
X022049Y025062D01*
X022102Y025022D01*
X022153Y024980D01*
X022201Y024934D01*
X022247Y024886D01*
X022289Y024835D01*
X022329Y024782D01*
X022366Y024727D01*
X022400Y024670D01*
X022430Y024611D01*
X022457Y024551D01*
X022481Y024489D01*
X022501Y024426D01*
X022517Y024362D01*
X022530Y024297D01*
X022540Y024231D01*
X022545Y024165D01*
X022547Y024099D01*
X021366Y025280D02*
X001681Y025280D01*
X001051Y024099D02*
X001053Y024149D01*
X001059Y024199D01*
X001069Y024248D01*
X001083Y024296D01*
X001100Y024343D01*
X001121Y024388D01*
X001146Y024432D01*
X001174Y024473D01*
X001206Y024512D01*
X001240Y024549D01*
X001277Y024583D01*
X001317Y024613D01*
X001359Y024640D01*
X001403Y024664D01*
X001449Y024685D01*
X001496Y024701D01*
X001544Y024714D01*
X001594Y024723D01*
X001643Y024728D01*
X001694Y024729D01*
X001744Y024726D01*
X001793Y024719D01*
X001842Y024708D01*
X001890Y024693D01*
X001936Y024675D01*
X001981Y024653D01*
X002024Y024627D01*
X002065Y024598D01*
X002104Y024566D01*
X002140Y024531D01*
X002172Y024493D01*
X002202Y024453D01*
X002229Y024410D01*
X002252Y024366D01*
X002271Y024320D01*
X002287Y024272D01*
X002299Y024223D01*
X002307Y024174D01*
X002311Y024124D01*
X002311Y024074D01*
X002307Y024024D01*
X002299Y023975D01*
X002287Y023926D01*
X002271Y023878D01*
X002252Y023832D01*
X002229Y023788D01*
X002202Y023745D01*
X002172Y023705D01*
X002140Y023667D01*
X002104Y023632D01*
X002065Y023600D01*
X002024Y023571D01*
X001981Y023545D01*
X001936Y023523D01*
X001890Y023505D01*
X001842Y023490D01*
X001793Y023479D01*
X001744Y023472D01*
X001694Y023469D01*
X001643Y023470D01*
X001594Y023475D01*
X001544Y023484D01*
X001496Y023497D01*
X001449Y023513D01*
X001403Y023534D01*
X001359Y023558D01*
X001317Y023585D01*
X001277Y023615D01*
X001240Y023649D01*
X001206Y023686D01*
X001174Y023725D01*
X001146Y023766D01*
X001121Y023810D01*
X001100Y023855D01*
X001083Y023902D01*
X001069Y023950D01*
X001059Y023999D01*
X001053Y024049D01*
X001051Y024099D01*
X000500Y024099D02*
X000500Y022830D01*
X005600Y022830D01*
X005600Y018580D01*
X000500Y018580D01*
X000500Y003780D01*
X000500Y003761D01*
X000499Y003695D01*
X000502Y003629D01*
X000509Y003564D01*
X000519Y003499D01*
X000533Y003435D01*
X000551Y003371D01*
X000573Y003309D01*
X000598Y003248D01*
X000627Y003189D01*
X000659Y003131D01*
X000694Y003076D01*
X000733Y003022D01*
X000774Y002971D01*
X000819Y002923D01*
X000866Y002877D01*
X000916Y002834D01*
X000968Y002794D01*
X001022Y002757D01*
X001079Y002723D01*
X001137Y002692D01*
X001197Y002665D01*
X001259Y002642D01*
X001322Y002622D01*
X001385Y002606D01*
X001450Y002594D01*
X001515Y002585D01*
X001581Y002580D01*
X000500Y024099D02*
X000502Y024165D01*
X000507Y024231D01*
X000517Y024297D01*
X000530Y024362D01*
X000546Y024426D01*
X000566Y024489D01*
X000590Y024551D01*
X000617Y024611D01*
X000647Y024670D01*
X000681Y024727D01*
X000718Y024782D01*
X000758Y024835D01*
X000800Y024886D01*
X000846Y024934D01*
X000894Y024980D01*
X000945Y025022D01*
X000998Y025062D01*
X001053Y025099D01*
X001110Y025133D01*
X001169Y025163D01*
X001229Y025190D01*
X001291Y025214D01*
X001354Y025234D01*
X001418Y025250D01*
X001483Y025263D01*
X001549Y025273D01*
X001615Y025278D01*
X001681Y025280D01*
X014890Y012620D02*
X014892Y012667D01*
X014898Y012714D01*
X014907Y012760D01*
X014921Y012805D01*
X014938Y012849D01*
X014959Y012892D01*
X014983Y012932D01*
X015010Y012971D01*
X015041Y013007D01*
X015074Y013040D01*
X015110Y013071D01*
X015149Y013098D01*
X015189Y013122D01*
X015232Y013143D01*
X015276Y013160D01*
X015321Y013174D01*
X015367Y013183D01*
X015414Y013189D01*
X015461Y013191D01*
X015508Y013189D01*
X015555Y013183D01*
X015601Y013174D01*
X015646Y013160D01*
X015690Y013143D01*
X015733Y013122D01*
X015773Y013098D01*
X015812Y013071D01*
X015848Y013040D01*
X015881Y013007D01*
X015912Y012971D01*
X015939Y012932D01*
X015963Y012892D01*
X015984Y012849D01*
X016001Y012805D01*
X016015Y012760D01*
X016024Y012714D01*
X016030Y012667D01*
X016032Y012620D01*
X016030Y012573D01*
X016024Y012526D01*
X016015Y012480D01*
X016001Y012435D01*
X015984Y012391D01*
X015963Y012348D01*
X015939Y012308D01*
X015912Y012269D01*
X015881Y012233D01*
X015848Y012200D01*
X015812Y012169D01*
X015773Y012142D01*
X015733Y012118D01*
X015690Y012097D01*
X015646Y012080D01*
X015601Y012066D01*
X015555Y012057D01*
X015508Y012051D01*
X015461Y012049D01*
X015414Y012051D01*
X015367Y012057D01*
X015321Y012066D01*
X015276Y012080D01*
X015232Y012097D01*
X015189Y012118D01*
X015149Y012142D01*
X015110Y012169D01*
X015074Y012200D01*
X015041Y012233D01*
X015010Y012269D01*
X014983Y012308D01*
X014959Y012348D01*
X014938Y012391D01*
X014921Y012435D01*
X014907Y012480D01*
X014898Y012526D01*
X014892Y012573D01*
X014890Y012620D01*
D11*
X019200Y012680D03*
X019200Y013680D03*
X019200Y014680D03*
X019200Y015680D03*
X019200Y016680D03*
X019200Y017680D03*
X019200Y018680D03*
X019200Y019680D03*
X019200Y020680D03*
X019200Y021680D03*
X019200Y022680D03*
X021300Y018680D03*
X021300Y017680D03*
X021300Y016680D03*
X021300Y015680D03*
X021300Y014680D03*
X021300Y013680D03*
X021300Y012680D03*
X021300Y011680D03*
X021300Y010680D03*
X021300Y009680D03*
X021300Y008680D03*
X021300Y007680D03*
X021300Y006680D03*
X021300Y005680D03*
X019200Y005680D03*
X019200Y006680D03*
X019200Y007680D03*
X019200Y008680D03*
X019200Y009680D03*
X019200Y010680D03*
X019200Y011680D03*
X019200Y004680D03*
X019200Y003680D03*
X006600Y003680D03*
X006600Y004680D03*
X006600Y005680D03*
X006600Y006680D03*
X006600Y007680D03*
X006600Y008680D03*
X006600Y009680D03*
X006600Y010680D03*
X006600Y011680D03*
X006600Y012680D03*
X006600Y013680D03*
X006600Y014680D03*
X006600Y015680D03*
X006600Y016680D03*
X006600Y017680D03*
X006600Y018680D03*
X006600Y019680D03*
X006600Y020680D03*
X006600Y021680D03*
X006600Y022680D03*
X005000Y024080D03*
X004000Y024080D03*
X004300Y017830D03*
X005300Y017830D03*
X004500Y012580D03*
X004500Y011580D03*
X004500Y010580D03*
X004500Y009580D03*
X004500Y008380D03*
X004500Y007380D03*
X003500Y007380D03*
X003500Y008380D03*
X002500Y008380D03*
X002500Y007380D03*
X002500Y006380D03*
X002500Y005380D03*
X002500Y004380D03*
X002500Y003380D03*
X001500Y003380D03*
X001500Y004380D03*
X001500Y005380D03*
X001500Y006380D03*
X001500Y007380D03*
X001500Y008380D03*
X001500Y009380D03*
X001500Y010380D03*
X001500Y011380D03*
X001500Y012380D03*
X001500Y013380D03*
X001500Y014380D03*
X001500Y015380D03*
X002500Y015380D03*
X002500Y014380D03*
X002500Y013380D03*
X002500Y012380D03*
X002500Y011380D03*
X002500Y010380D03*
X002500Y009380D03*
D12*
X021200Y020391D03*
X021200Y021769D03*
D13*
X011500Y004480D03*
D14*
X010500Y003480D03*
X010500Y005480D03*
X012500Y005480D03*
X012500Y003480D03*
D15*
X022050Y007030D02*
X022050Y007330D01*
D16*
X022050Y007380D03*
X022050Y006980D03*
D17*
X018286Y007423D02*
X018286Y006163D01*
X017814Y006163D01*
X017814Y007423D01*
X018286Y007423D01*
X018286Y006477D02*
X017814Y006477D01*
X017814Y006791D02*
X018286Y006791D01*
X018286Y007105D02*
X017814Y007105D01*
X017814Y007419D02*
X018286Y007419D01*
X016929Y007738D02*
X015471Y007738D01*
X015471Y008210D01*
X016929Y008210D01*
X016929Y007738D01*
X016929Y008052D02*
X015471Y008052D01*
X015570Y005376D02*
X016830Y005376D01*
X015570Y005376D02*
X015570Y005848D01*
X016830Y005848D01*
X016830Y005376D01*
X016830Y005690D02*
X015570Y005690D01*
D18*
X005536Y013801D03*
X005536Y016360D03*
X003764Y016360D03*
X003764Y013801D03*
D19*
X011200Y010180D03*
D20*
X007978Y010180D03*
X014422Y010180D03*
D21*
X005717Y004427D02*
X005717Y004074D01*
X005283Y004074D02*
X005283Y004427D01*
D22*
X020223Y014180D03*
X020577Y014180D03*
D23*
X020577Y014680D01*
X020852Y014450D02*
X020908Y014450D01*
X020919Y014425D01*
X021045Y014299D01*
X021210Y014230D01*
X021390Y014230D01*
X021555Y014299D01*
X021681Y014425D01*
X021750Y014591D01*
X021750Y014770D01*
X021681Y014935D01*
X021555Y015062D01*
X021390Y015130D01*
X021210Y015130D01*
X021045Y015062D01*
X020919Y014935D01*
X020908Y014910D01*
X019592Y014910D01*
X019581Y014935D01*
X019455Y015062D01*
X019290Y015130D01*
X019110Y015130D01*
X018945Y015062D01*
X018819Y014935D01*
X018750Y014770D01*
X018750Y014591D01*
X018819Y014425D01*
X018864Y014380D01*
X018817Y014380D01*
X018700Y014263D01*
X018400Y013963D01*
X018400Y013817D01*
X018339Y013755D01*
X018292Y013642D01*
X018292Y013519D01*
X018339Y013406D01*
X018425Y013319D01*
X018539Y013272D01*
X018661Y013272D01*
X018775Y013319D01*
X018850Y013394D01*
X018945Y013299D01*
X019110Y013230D01*
X019290Y013230D01*
X019455Y013299D01*
X019581Y013425D01*
X019650Y013591D01*
X019650Y013770D01*
X019581Y013935D01*
X019536Y013980D01*
X019948Y013980D01*
X019948Y013868D01*
X020036Y013780D01*
X020764Y013780D01*
X020852Y013868D01*
X020852Y014450D01*
X020852Y014400D02*
X020944Y014400D01*
X020852Y014302D02*
X021042Y014302D01*
X020852Y014203D02*
X022297Y014203D01*
X022297Y014105D02*
X021451Y014105D01*
X021390Y014130D02*
X021555Y014062D01*
X021681Y013935D01*
X021750Y013770D01*
X021750Y013591D01*
X021681Y013425D01*
X021555Y013299D01*
X021390Y013230D01*
X021210Y013230D01*
X021045Y013299D01*
X020919Y013425D01*
X020850Y013591D01*
X020850Y013770D01*
X020919Y013935D01*
X021045Y014062D01*
X021210Y014130D01*
X021390Y014130D01*
X021558Y014302D02*
X022297Y014302D01*
X022297Y014400D02*
X021656Y014400D01*
X021712Y014499D02*
X022297Y014499D01*
X022297Y014597D02*
X021750Y014597D01*
X021750Y014696D02*
X022297Y014696D01*
X022297Y014794D02*
X021740Y014794D01*
X021699Y014893D02*
X022297Y014893D01*
X022297Y014991D02*
X021625Y014991D01*
X021487Y015090D02*
X022297Y015090D01*
X022297Y015188D02*
X002907Y015188D01*
X002917Y015208D02*
X002939Y015275D01*
X002948Y015330D01*
X002550Y015330D01*
X002550Y014933D01*
X002605Y014941D01*
X002673Y014963D01*
X002736Y014996D01*
X002793Y015037D01*
X002843Y015087D01*
X002885Y015145D01*
X002917Y015208D01*
X002941Y015287D02*
X006374Y015287D01*
X006345Y015299D02*
X006510Y015230D01*
X006690Y015230D01*
X006855Y015299D01*
X006981Y015425D01*
X007050Y015591D01*
X007050Y015770D01*
X006981Y015935D01*
X006855Y016062D01*
X006690Y016130D01*
X006510Y016130D01*
X006345Y016062D01*
X006219Y015935D01*
X006150Y015770D01*
X006150Y015591D01*
X006219Y015425D01*
X006345Y015299D01*
X006259Y015385D02*
X002550Y015385D01*
X002550Y015430D02*
X002948Y015430D01*
X002939Y015486D01*
X002917Y015553D01*
X002885Y015616D01*
X002843Y015674D01*
X002793Y015724D01*
X002736Y015765D01*
X002673Y015797D01*
X002605Y015819D01*
X002550Y015828D01*
X002550Y015430D01*
X002550Y015330D01*
X002450Y015330D01*
X002450Y014933D01*
X002395Y014941D01*
X002327Y014963D01*
X002264Y014996D01*
X002207Y015037D01*
X002157Y015087D01*
X002115Y015145D01*
X002083Y015208D01*
X002061Y015275D01*
X002052Y015330D01*
X002450Y015330D01*
X002450Y015430D01*
X002052Y015430D01*
X002061Y015486D01*
X002083Y015553D01*
X002115Y015616D01*
X002157Y015674D01*
X002207Y015724D01*
X002264Y015765D01*
X002327Y015797D01*
X002395Y015819D01*
X002450Y015828D01*
X002450Y015430D01*
X002550Y015430D01*
X002550Y015484D02*
X002450Y015484D01*
X002450Y015582D02*
X002550Y015582D01*
X002550Y015681D02*
X002450Y015681D01*
X002450Y015779D02*
X002550Y015779D01*
X002708Y015779D02*
X006154Y015779D01*
X006150Y015681D02*
X002836Y015681D01*
X002902Y015582D02*
X006154Y015582D01*
X006194Y015484D02*
X002939Y015484D01*
X002845Y015090D02*
X006413Y015090D01*
X006345Y015062D02*
X006219Y014935D01*
X006150Y014770D01*
X006150Y014591D01*
X006219Y014425D01*
X006345Y014299D01*
X006510Y014230D01*
X006690Y014230D01*
X006855Y014299D01*
X006981Y014425D01*
X007050Y014591D01*
X007050Y014770D01*
X006981Y014935D01*
X006855Y015062D01*
X006690Y015130D01*
X006510Y015130D01*
X006345Y015062D01*
X006275Y014991D02*
X002728Y014991D01*
X002550Y014991D02*
X002450Y014991D01*
X002450Y015090D02*
X002550Y015090D01*
X002550Y015188D02*
X002450Y015188D01*
X002450Y015287D02*
X002550Y015287D01*
X002450Y015385D02*
X001950Y015385D01*
X001950Y015470D02*
X001881Y015635D01*
X001755Y015762D01*
X001590Y015830D01*
X001410Y015830D01*
X001245Y015762D01*
X001200Y015717D01*
X001200Y016098D01*
X001262Y016160D01*
X003365Y016160D01*
X003387Y016108D01*
X003512Y015982D01*
X003676Y015915D01*
X003853Y015915D01*
X004016Y015982D01*
X004142Y016108D01*
X004209Y016271D01*
X004209Y016448D01*
X004142Y016612D01*
X004016Y016737D01*
X003853Y016805D01*
X003676Y016805D01*
X003512Y016737D01*
X003387Y016612D01*
X003365Y016560D01*
X001097Y016560D01*
X001000Y016463D01*
X001000Y017598D01*
X001483Y018080D01*
X003916Y018080D01*
X003850Y017920D01*
X003850Y017741D01*
X003919Y017575D01*
X004045Y017449D01*
X004210Y017380D01*
X004390Y017380D01*
X004555Y017449D01*
X004681Y017575D01*
X004750Y017741D01*
X004750Y017920D01*
X004684Y018080D01*
X004916Y018080D01*
X004850Y017920D01*
X004850Y017741D01*
X004919Y017575D01*
X005045Y017449D01*
X005210Y017380D01*
X005390Y017380D01*
X005555Y017449D01*
X005681Y017575D01*
X005750Y017741D01*
X005750Y017920D01*
X005684Y018080D01*
X005917Y018080D01*
X006173Y017825D01*
X006150Y017770D01*
X006150Y017591D01*
X006219Y017425D01*
X006345Y017299D01*
X006510Y017230D01*
X006690Y017230D01*
X006855Y017299D01*
X006981Y017425D01*
X007050Y017591D01*
X007050Y017770D01*
X006981Y017935D01*
X006855Y018062D01*
X006690Y018130D01*
X006510Y018130D01*
X006456Y018108D01*
X006083Y018480D01*
X005829Y018480D01*
X005850Y018531D01*
X005850Y019148D01*
X006173Y018825D01*
X006150Y018770D01*
X006150Y018591D01*
X006219Y018425D01*
X006345Y018299D01*
X006510Y018230D01*
X006690Y018230D01*
X006855Y018299D01*
X006981Y018425D01*
X007050Y018591D01*
X007050Y018770D01*
X006981Y018935D01*
X006855Y019062D01*
X006690Y019130D01*
X006510Y019130D01*
X006456Y019108D01*
X006100Y019463D01*
X006100Y024149D01*
X006108Y024169D01*
X006108Y024292D01*
X006061Y024405D01*
X005975Y024492D01*
X005861Y024539D01*
X005739Y024539D01*
X005625Y024492D01*
X005539Y024405D01*
X005492Y024292D01*
X005492Y024169D01*
X005539Y024056D01*
X005625Y023969D01*
X005700Y023938D01*
X005700Y023060D01*
X005650Y023080D01*
X002540Y023080D01*
X002553Y023093D01*
X002594Y023124D01*
X002596Y023136D01*
X002644Y023184D01*
X002657Y023186D01*
X002687Y023227D01*
X002724Y023264D01*
X002724Y023276D01*
X002765Y023331D01*
X002777Y023334D01*
X002801Y023379D01*
X002832Y023421D01*
X002830Y023433D01*
X002863Y023493D01*
X002874Y023498D01*
X002892Y023546D01*
X002917Y023591D01*
X002913Y023603D01*
X002937Y023667D01*
X002948Y023674D01*
X002959Y023724D01*
X002977Y023772D01*
X002972Y023783D01*
X002986Y023851D01*
X002995Y023859D01*
X002999Y023910D01*
X003010Y023960D01*
X003003Y023970D01*
X003008Y024033D01*
X003012Y024037D01*
X003012Y024094D01*
X003016Y024151D01*
X003012Y024155D01*
X003012Y025030D01*
X020035Y025030D01*
X020035Y024155D01*
X020031Y024151D01*
X020035Y024094D01*
X020035Y024037D01*
X020039Y024033D01*
X020044Y023970D01*
X020037Y023960D01*
X020048Y023910D01*
X020052Y023859D01*
X020061Y023851D01*
X020076Y023783D01*
X020071Y023772D01*
X020089Y023724D01*
X020100Y023674D01*
X020110Y023667D01*
X020134Y023603D01*
X020130Y023591D01*
X020155Y023546D01*
X020173Y023498D01*
X020184Y023493D01*
X020217Y023433D01*
X020215Y023421D01*
X020246Y023379D01*
X020271Y023334D01*
X020282Y023331D01*
X020324Y023276D01*
X020324Y023264D01*
X020360Y023227D01*
X020391Y023186D01*
X020403Y023184D01*
X020451Y023136D01*
X020453Y023124D01*
X020494Y023093D01*
X020531Y023057D01*
X020543Y023057D01*
X020598Y023016D01*
X020601Y023004D01*
X020646Y022979D01*
X020687Y022948D01*
X020700Y022950D01*
X020760Y022917D01*
X020765Y022906D01*
X020813Y022888D01*
X020858Y022863D01*
X020870Y022867D01*
X020934Y022843D01*
X020941Y022833D01*
X020991Y022822D01*
X021039Y022804D01*
X021050Y022809D01*
X021117Y022794D01*
X021125Y022785D01*
X021177Y022781D01*
X021227Y022770D01*
X021237Y022777D01*
X021300Y022773D01*
X021304Y022768D01*
X021361Y022768D01*
X021417Y022764D01*
X021422Y022768D01*
X022297Y022768D01*
X022297Y007980D01*
X021636Y007980D01*
X021555Y008062D01*
X021390Y008130D01*
X021210Y008130D01*
X021045Y008062D01*
X020919Y007935D01*
X020850Y007770D01*
X020850Y007591D01*
X020919Y007425D01*
X021045Y007299D01*
X021210Y007230D01*
X021350Y007230D01*
X021350Y007128D01*
X021350Y007128D01*
X021350Y006730D01*
X021250Y006730D01*
X021250Y006630D01*
X021350Y006630D01*
X021350Y006233D01*
X021350Y006130D01*
X021210Y006130D01*
X021045Y006062D01*
X020919Y005935D01*
X020850Y005770D01*
X020850Y005591D01*
X020919Y005425D01*
X021045Y005299D01*
X021210Y005230D01*
X021390Y005230D01*
X021555Y005299D01*
X021681Y005425D01*
X021750Y005591D01*
X021750Y005770D01*
X021740Y005795D01*
X021825Y005880D01*
X022297Y005880D01*
X022297Y005093D01*
X021422Y005093D01*
X021417Y005097D01*
X021361Y005093D01*
X021304Y005093D01*
X021300Y005088D01*
X021237Y005084D01*
X021227Y005090D01*
X021177Y005079D01*
X021125Y005076D01*
X021117Y005067D01*
X021050Y005052D01*
X021039Y005057D01*
X020991Y005039D01*
X020941Y005028D01*
X020934Y005018D01*
X020870Y004994D01*
X020858Y004997D01*
X020813Y004973D01*
X020765Y004955D01*
X020760Y004944D01*
X019572Y004944D01*
X019581Y004935D02*
X019455Y005062D01*
X019290Y005130D01*
X019110Y005130D01*
X018945Y005062D01*
X018819Y004935D01*
X018750Y004770D01*
X018750Y004591D01*
X018819Y004425D01*
X018945Y004299D01*
X019110Y004230D01*
X019290Y004230D01*
X019455Y004299D01*
X019581Y004425D01*
X019650Y004591D01*
X019650Y004770D01*
X019581Y004935D01*
X019619Y004846D02*
X020598Y004846D01*
X020598Y004845D02*
X020543Y004804D01*
X020531Y004804D01*
X020494Y004768D01*
X020453Y004737D01*
X020451Y004725D01*
X020403Y004676D01*
X020391Y004675D01*
X020360Y004633D01*
X020324Y004597D01*
X020324Y004585D01*
X020282Y004530D01*
X020271Y004526D01*
X020246Y004481D01*
X020215Y004440D01*
X020217Y004428D01*
X020184Y004368D01*
X020173Y004363D01*
X020155Y004315D01*
X020130Y004269D01*
X020134Y004258D01*
X020110Y004193D01*
X020100Y004187D01*
X020089Y004137D01*
X020071Y004088D01*
X020076Y004077D01*
X020061Y004010D01*
X020052Y004002D01*
X020048Y003951D01*
X020037Y003901D01*
X020044Y003890D01*
X020039Y003828D01*
X020035Y003824D01*
X020035Y003767D01*
X020031Y003710D01*
X020035Y003706D01*
X020035Y002830D01*
X013400Y002830D01*
X013400Y005407D01*
X013406Y005413D01*
X013400Y005488D01*
X013400Y005548D01*
X013405Y005556D01*
X013390Y005621D01*
X013384Y005688D01*
X013380Y005692D01*
X013382Y005697D01*
X013357Y005759D01*
X013341Y005824D01*
X013336Y005827D01*
X013338Y005832D01*
X013302Y005889D01*
X013277Y005951D01*
X013272Y005953D01*
X013272Y005959D01*
X013229Y006010D01*
X013194Y006067D01*
X013188Y006068D01*
X013188Y006074D01*
X013137Y006117D01*
X013093Y006168D01*
X013088Y006169D01*
X013087Y006174D01*
X013029Y006209D01*
X012978Y006253D01*
X012973Y006252D01*
X012971Y006257D01*
X012909Y006283D01*
X012852Y006318D01*
X012846Y006317D01*
X012844Y006321D01*
X012778Y006337D01*
X012716Y006363D01*
X012711Y006361D01*
X012708Y006365D01*
X012641Y006370D01*
X012576Y006386D01*
X012567Y006380D01*
X012508Y006380D01*
X012433Y006386D01*
X012426Y006380D01*
X008373Y006380D01*
X008365Y006387D01*
X008291Y006380D01*
X008234Y006380D01*
X008224Y006386D01*
X008161Y006369D01*
X008096Y006363D01*
X008092Y006358D01*
X008085Y006360D01*
X008026Y006333D01*
X007963Y006316D01*
X007960Y006310D01*
X007953Y006311D01*
X007900Y006274D01*
X007840Y006246D01*
X007838Y006240D01*
X007831Y006240D01*
X007785Y006194D01*
X007732Y006156D01*
X007731Y006150D01*
X007724Y006149D01*
X007687Y006095D01*
X007640Y006049D01*
X007640Y006042D01*
X007634Y006040D01*
X007607Y005981D01*
X007569Y005927D01*
X007570Y005921D01*
X007564Y005917D01*
X007548Y005854D01*
X007520Y005795D01*
X007522Y005789D01*
X007517Y005785D01*
X007511Y005719D01*
X007494Y005656D01*
X007500Y005647D01*
X007500Y005589D01*
X007494Y005515D01*
X007500Y005508D01*
X007500Y002830D01*
X007033Y002830D01*
X007300Y003098D01*
X007300Y004263D01*
X007183Y004380D01*
X007027Y004536D01*
X007050Y004591D01*
X007050Y004770D01*
X006981Y004935D01*
X006855Y005062D01*
X006690Y005130D01*
X006510Y005130D01*
X006345Y005062D01*
X006219Y004935D01*
X006150Y004770D01*
X006150Y004591D01*
X006219Y004425D01*
X006345Y004299D01*
X006510Y004230D01*
X006690Y004230D01*
X006744Y004253D01*
X006900Y004098D01*
X006900Y004017D01*
X006855Y004062D01*
X006690Y004130D01*
X006510Y004130D01*
X006345Y004062D01*
X006219Y003935D01*
X006150Y003770D01*
X006150Y003591D01*
X006219Y003425D01*
X006345Y003299D01*
X006510Y003230D01*
X006690Y003230D01*
X006855Y003299D01*
X006900Y003344D01*
X006900Y003263D01*
X006717Y003080D01*
X003783Y003080D01*
X002810Y004054D01*
X002881Y004125D01*
X002950Y004291D01*
X002950Y004470D01*
X002881Y004635D01*
X002755Y004762D01*
X002590Y004830D01*
X002410Y004830D01*
X002245Y004762D01*
X002119Y004635D01*
X002050Y004470D01*
X002050Y004291D01*
X002119Y004125D01*
X002164Y004080D01*
X001836Y004080D01*
X001881Y004125D01*
X001950Y004291D01*
X001950Y004470D01*
X001881Y004635D01*
X001755Y004762D01*
X001590Y004830D01*
X001410Y004830D01*
X001245Y004762D01*
X001200Y004717D01*
X001200Y005044D01*
X001207Y005037D01*
X001264Y004996D01*
X001327Y004963D01*
X001395Y004941D01*
X001450Y004933D01*
X001450Y005330D01*
X001550Y005330D01*
X001550Y004933D01*
X001605Y004941D01*
X001673Y004963D01*
X001736Y004996D01*
X001793Y005037D01*
X001843Y005087D01*
X001885Y005145D01*
X001917Y005208D01*
X001939Y005275D01*
X001948Y005330D01*
X001550Y005330D01*
X001550Y005430D01*
X001948Y005430D01*
X001939Y005486D01*
X001917Y005553D01*
X001885Y005616D01*
X001843Y005674D01*
X001793Y005724D01*
X001736Y005765D01*
X001673Y005797D01*
X001605Y005819D01*
X001550Y005828D01*
X001550Y005430D01*
X001450Y005430D01*
X001450Y005828D01*
X001395Y005819D01*
X001327Y005797D01*
X001264Y005765D01*
X001207Y005724D01*
X001200Y005717D01*
X001200Y006044D01*
X001245Y005999D01*
X001410Y005930D01*
X001590Y005930D01*
X001755Y005999D01*
X001881Y006125D01*
X001950Y006291D01*
X001950Y006470D01*
X001881Y006635D01*
X001755Y006762D01*
X001590Y006830D01*
X001410Y006830D01*
X001245Y006762D01*
X001200Y006717D01*
X001200Y007044D01*
X001245Y006999D01*
X001410Y006930D01*
X001590Y006930D01*
X001755Y006999D01*
X001881Y007125D01*
X001950Y007291D01*
X001950Y007470D01*
X001881Y007635D01*
X001755Y007762D01*
X001590Y007830D01*
X001410Y007830D01*
X001245Y007762D01*
X001200Y007717D01*
X001200Y008044D01*
X001245Y007999D01*
X001410Y007930D01*
X001590Y007930D01*
X001755Y007999D01*
X001881Y008125D01*
X001950Y008291D01*
X001950Y008470D01*
X001881Y008635D01*
X001755Y008762D01*
X001590Y008830D01*
X001410Y008830D01*
X001245Y008762D01*
X001200Y008717D01*
X001200Y009044D01*
X001207Y009037D01*
X001264Y008996D01*
X001327Y008963D01*
X001395Y008941D01*
X001450Y008933D01*
X001450Y009330D01*
X001550Y009330D01*
X001550Y008933D01*
X001605Y008941D01*
X001673Y008963D01*
X001736Y008996D01*
X001793Y009037D01*
X001843Y009087D01*
X001885Y009145D01*
X001917Y009208D01*
X001939Y009275D01*
X001948Y009330D01*
X001550Y009330D01*
X001550Y009430D01*
X001948Y009430D01*
X001939Y009486D01*
X001917Y009553D01*
X001885Y009616D01*
X001843Y009674D01*
X001793Y009724D01*
X001736Y009765D01*
X001673Y009797D01*
X001605Y009819D01*
X001550Y009828D01*
X001550Y009430D01*
X001450Y009430D01*
X001450Y009828D01*
X001395Y009819D01*
X001327Y009797D01*
X001264Y009765D01*
X001207Y009724D01*
X001200Y009717D01*
X001200Y010044D01*
X001245Y009999D01*
X001410Y009930D01*
X001590Y009930D01*
X001755Y009999D01*
X001881Y010125D01*
X001950Y010291D01*
X001950Y010470D01*
X001881Y010635D01*
X001755Y010762D01*
X001590Y010830D01*
X001410Y010830D01*
X001245Y010762D01*
X001200Y010717D01*
X001200Y011044D01*
X001245Y010999D01*
X001410Y010930D01*
X001590Y010930D01*
X001755Y010999D01*
X001881Y011125D01*
X001950Y011291D01*
X001950Y011470D01*
X001881Y011635D01*
X001755Y011762D01*
X001590Y011830D01*
X001410Y011830D01*
X001245Y011762D01*
X001200Y011717D01*
X001200Y012044D01*
X001207Y012037D01*
X001264Y011996D01*
X001327Y011963D01*
X001395Y011941D01*
X001450Y011933D01*
X001450Y012330D01*
X001550Y012330D01*
X001550Y011933D01*
X001605Y011941D01*
X001673Y011963D01*
X001736Y011996D01*
X001793Y012037D01*
X001843Y012087D01*
X001885Y012145D01*
X001917Y012208D01*
X001939Y012275D01*
X001948Y012330D01*
X001550Y012330D01*
X001550Y012430D01*
X001948Y012430D01*
X001939Y012486D01*
X001917Y012553D01*
X001885Y012616D01*
X001843Y012674D01*
X001793Y012724D01*
X001736Y012765D01*
X001673Y012797D01*
X001605Y012819D01*
X001550Y012828D01*
X001550Y012430D01*
X001450Y012430D01*
X001450Y012828D01*
X001395Y012819D01*
X001327Y012797D01*
X001264Y012765D01*
X001207Y012724D01*
X001200Y012717D01*
X001200Y013044D01*
X001245Y012999D01*
X001410Y012930D01*
X001590Y012930D01*
X001755Y012999D01*
X001881Y013125D01*
X001950Y013291D01*
X001950Y013470D01*
X001881Y013635D01*
X001755Y013762D01*
X001590Y013830D01*
X001410Y013830D01*
X001245Y013762D01*
X001200Y013717D01*
X001200Y014044D01*
X001245Y013999D01*
X001410Y013930D01*
X001590Y013930D01*
X001755Y013999D01*
X001881Y014125D01*
X001950Y014291D01*
X001950Y014470D01*
X001881Y014635D01*
X001755Y014762D01*
X001590Y014830D01*
X001410Y014830D01*
X001245Y014762D01*
X001200Y014717D01*
X001200Y015044D01*
X001245Y014999D01*
X001410Y014930D01*
X001590Y014930D01*
X001755Y014999D01*
X001881Y015125D01*
X001950Y015291D01*
X001950Y015470D01*
X001944Y015484D02*
X002061Y015484D01*
X002098Y015582D02*
X001903Y015582D01*
X001836Y015681D02*
X002164Y015681D01*
X002292Y015779D02*
X001713Y015779D01*
X001948Y015287D02*
X002059Y015287D01*
X002093Y015188D02*
X001908Y015188D01*
X001846Y015090D02*
X002155Y015090D01*
X002272Y014991D02*
X001737Y014991D01*
X001676Y014794D02*
X002324Y014794D01*
X002245Y014762D02*
X002410Y014830D01*
X002590Y014830D01*
X002755Y014762D01*
X002881Y014635D01*
X002950Y014470D01*
X002950Y014291D01*
X002881Y014125D01*
X002755Y013999D01*
X002590Y013930D01*
X002410Y013930D01*
X002245Y013999D01*
X002119Y014125D01*
X002050Y014291D01*
X002050Y014470D01*
X002119Y014635D01*
X002245Y014762D01*
X002179Y014696D02*
X001821Y014696D01*
X001897Y014597D02*
X002103Y014597D01*
X002062Y014499D02*
X001938Y014499D01*
X001950Y014400D02*
X002050Y014400D01*
X002050Y014302D02*
X001950Y014302D01*
X001914Y014203D02*
X002086Y014203D01*
X002139Y014105D02*
X001861Y014105D01*
X001762Y014006D02*
X002238Y014006D01*
X002360Y013809D02*
X001640Y013809D01*
X001806Y013711D02*
X002194Y013711D01*
X002245Y013762D02*
X002119Y013635D01*
X002050Y013470D01*
X002050Y013291D01*
X002119Y013125D01*
X002245Y012999D01*
X002410Y012930D01*
X002590Y012930D01*
X002755Y012999D01*
X002881Y013125D01*
X002950Y013291D01*
X002950Y013470D01*
X002881Y013635D01*
X002755Y013762D01*
X002590Y013830D01*
X002410Y013830D01*
X002245Y013762D01*
X002109Y013612D02*
X001891Y013612D01*
X001932Y013514D02*
X002068Y013514D01*
X002050Y013415D02*
X001950Y013415D01*
X001950Y013317D02*
X002050Y013317D01*
X002080Y013218D02*
X001920Y013218D01*
X001876Y013120D02*
X002124Y013120D01*
X002223Y013021D02*
X001777Y013021D01*
X001573Y012824D02*
X002396Y012824D01*
X002410Y012830D02*
X002245Y012762D01*
X002119Y012635D01*
X002050Y012470D01*
X002050Y012291D01*
X002119Y012125D01*
X002245Y011999D01*
X002410Y011930D01*
X002590Y011930D01*
X002755Y011999D01*
X002881Y012125D01*
X002950Y012291D01*
X002950Y012470D01*
X002881Y012635D01*
X002755Y012762D01*
X002590Y012830D01*
X002410Y012830D01*
X002604Y012824D02*
X004114Y012824D01*
X004119Y012835D02*
X004050Y012670D01*
X004050Y012491D01*
X004119Y012325D01*
X004245Y012199D01*
X004410Y012130D01*
X004590Y012130D01*
X004755Y012199D01*
X004881Y012325D01*
X004950Y012491D01*
X004950Y012670D01*
X004881Y012835D01*
X004755Y012962D01*
X004590Y013030D01*
X004410Y013030D01*
X004245Y012962D01*
X004119Y012835D01*
X004073Y012726D02*
X002791Y012726D01*
X002885Y012627D02*
X004050Y012627D01*
X004050Y012529D02*
X002926Y012529D01*
X002950Y012430D02*
X004075Y012430D01*
X004116Y012332D02*
X002950Y012332D01*
X002926Y012233D02*
X004211Y012233D01*
X004400Y012135D02*
X002885Y012135D01*
X002792Y012036D02*
X005350Y012036D01*
X005350Y011938D02*
X004773Y011938D01*
X004793Y011924D02*
X004736Y011965D01*
X004673Y011997D01*
X004605Y012019D01*
X004550Y012028D01*
X004550Y011630D01*
X004948Y011630D01*
X004939Y011686D01*
X004917Y011753D01*
X004885Y011816D01*
X004843Y011874D01*
X004793Y011924D01*
X004868Y011839D02*
X005350Y011839D01*
X005350Y011741D02*
X004921Y011741D01*
X004946Y011642D02*
X005326Y011642D01*
X005350Y011667D02*
X005289Y011605D01*
X005242Y011492D01*
X005242Y011369D01*
X005289Y011256D01*
X005375Y011169D01*
X005489Y011122D01*
X005611Y011122D01*
X005725Y011169D01*
X005811Y011256D01*
X005858Y011369D01*
X005858Y011492D01*
X005811Y011605D01*
X005750Y011667D01*
X005750Y012194D01*
X005811Y012256D01*
X005858Y012369D01*
X005858Y012492D01*
X005811Y012605D01*
X005725Y012692D01*
X005611Y012739D01*
X005489Y012739D01*
X005375Y012692D01*
X005289Y012605D01*
X005242Y012492D01*
X005242Y012369D01*
X005289Y012256D01*
X005350Y012194D01*
X005350Y011667D01*
X005263Y011544D02*
X004550Y011544D01*
X004550Y011530D02*
X004550Y011630D01*
X004450Y011630D01*
X004450Y011530D01*
X004550Y011530D01*
X004550Y011133D01*
X004605Y011141D01*
X004673Y011163D01*
X004736Y011196D01*
X004793Y011237D01*
X004843Y011287D01*
X004885Y011345D01*
X004917Y011408D01*
X004939Y011475D01*
X004948Y011530D01*
X004550Y011530D01*
X004550Y011445D02*
X004450Y011445D01*
X004450Y011530D02*
X004450Y011133D01*
X004395Y011141D01*
X004327Y011163D01*
X004264Y011196D01*
X004207Y011237D01*
X004157Y011287D01*
X004115Y011345D01*
X004083Y011408D01*
X004061Y011475D01*
X004052Y011530D01*
X004450Y011530D01*
X004450Y011544D02*
X002919Y011544D01*
X002950Y011470D02*
X002881Y011635D01*
X002755Y011762D01*
X002590Y011830D01*
X002410Y011830D01*
X002245Y011762D01*
X002119Y011635D01*
X002050Y011470D01*
X002050Y011291D01*
X002119Y011125D01*
X002245Y010999D01*
X002410Y010930D01*
X002590Y010930D01*
X002755Y010999D01*
X002881Y011125D01*
X002950Y011291D01*
X002950Y011470D01*
X002950Y011445D02*
X004071Y011445D01*
X004114Y011347D02*
X002950Y011347D01*
X002932Y011248D02*
X004196Y011248D01*
X004369Y011150D02*
X002892Y011150D01*
X002807Y011051D02*
X006335Y011051D01*
X006345Y011062D02*
X006219Y010935D01*
X006150Y010770D01*
X006150Y010591D01*
X006219Y010425D01*
X006290Y010354D01*
X006076Y010139D01*
X005989Y010139D01*
X005875Y010092D01*
X005789Y010005D01*
X005742Y009892D01*
X005742Y009769D01*
X005789Y009656D01*
X005875Y009569D01*
X005989Y009522D01*
X006111Y009522D01*
X006169Y009546D01*
X006219Y009425D01*
X006345Y009299D01*
X006510Y009230D01*
X006690Y009230D01*
X006855Y009299D01*
X006981Y009425D01*
X007001Y009472D01*
X007001Y009291D01*
X007089Y009204D01*
X008866Y009204D01*
X008954Y009291D01*
X008954Y011069D01*
X008866Y011157D01*
X007089Y011157D01*
X007001Y011069D01*
X007001Y010889D01*
X006981Y010935D01*
X006855Y011062D01*
X006690Y011130D01*
X006510Y011130D01*
X006345Y011062D01*
X006236Y010953D02*
X004764Y010953D01*
X004755Y010962D02*
X004590Y011030D01*
X004410Y011030D01*
X004245Y010962D01*
X004119Y010835D01*
X004050Y010670D01*
X004050Y010491D01*
X004119Y010325D01*
X004245Y010199D01*
X004410Y010130D01*
X004590Y010130D01*
X004755Y010199D01*
X004881Y010325D01*
X004950Y010491D01*
X004950Y010670D01*
X004881Y010835D01*
X004755Y010962D01*
X004862Y010854D02*
X006185Y010854D01*
X006150Y010756D02*
X004914Y010756D01*
X004950Y010657D02*
X006150Y010657D01*
X006163Y010559D02*
X004950Y010559D01*
X004937Y010460D02*
X006204Y010460D01*
X006282Y010362D02*
X004897Y010362D01*
X004819Y010263D02*
X006200Y010263D01*
X006102Y010165D02*
X004673Y010165D01*
X004590Y010030D02*
X004755Y009962D01*
X004881Y009835D01*
X004950Y009670D01*
X004950Y009491D01*
X004881Y009325D01*
X004755Y009199D01*
X004590Y009130D01*
X004410Y009130D01*
X004245Y009199D01*
X004119Y009325D01*
X004050Y009491D01*
X004050Y009670D01*
X004119Y009835D01*
X004245Y009962D01*
X004410Y010030D01*
X004590Y010030D01*
X004740Y009968D02*
X005773Y009968D01*
X005742Y009869D02*
X004847Y009869D01*
X004908Y009771D02*
X005742Y009771D01*
X005782Y009672D02*
X004949Y009672D01*
X004950Y009574D02*
X005870Y009574D01*
X006050Y009830D02*
X006400Y010180D01*
X007978Y010180D01*
X008954Y010165D02*
X013446Y010165D01*
X013446Y010263D02*
X008954Y010263D01*
X008954Y010362D02*
X013446Y010362D01*
X013446Y010460D02*
X008954Y010460D01*
X008954Y010559D02*
X013446Y010559D01*
X013446Y010657D02*
X008954Y010657D01*
X008954Y010756D02*
X013446Y010756D01*
X013446Y010854D02*
X008954Y010854D01*
X008954Y010953D02*
X013446Y010953D01*
X013446Y011051D02*
X008954Y011051D01*
X008874Y011150D02*
X013526Y011150D01*
X013534Y011157D02*
X013446Y011069D01*
X013446Y009291D01*
X013534Y009204D01*
X015311Y009204D01*
X015399Y009291D01*
X015399Y011069D01*
X015311Y011157D01*
X013534Y011157D01*
X013446Y010066D02*
X008954Y010066D01*
X008954Y009968D02*
X013446Y009968D01*
X013446Y009869D02*
X008954Y009869D01*
X008954Y009771D02*
X013446Y009771D01*
X013446Y009672D02*
X008954Y009672D01*
X008954Y009574D02*
X013446Y009574D01*
X013446Y009475D02*
X008954Y009475D01*
X008954Y009377D02*
X013446Y009377D01*
X013459Y009278D02*
X008941Y009278D01*
X007991Y006323D02*
X006879Y006323D01*
X006855Y006299D02*
X006981Y006425D01*
X007050Y006591D01*
X007050Y006770D01*
X006981Y006935D01*
X006855Y007062D01*
X006690Y007130D01*
X006510Y007130D01*
X006345Y007062D01*
X006219Y006935D01*
X006150Y006770D01*
X006150Y006591D01*
X006219Y006425D01*
X006345Y006299D01*
X006510Y006230D01*
X006690Y006230D01*
X006855Y006299D01*
X006978Y006422D02*
X017507Y006422D01*
X017507Y006520D02*
X007021Y006520D01*
X007050Y006619D02*
X017507Y006619D01*
X017507Y006717D02*
X007050Y006717D01*
X007031Y006816D02*
X017507Y006816D01*
X017507Y006914D02*
X006990Y006914D01*
X006904Y007013D02*
X017507Y007013D01*
X017507Y007111D02*
X006735Y007111D01*
X006690Y007230D02*
X006855Y007299D01*
X006981Y007425D01*
X007050Y007591D01*
X007050Y007770D01*
X006981Y007935D01*
X006855Y008062D01*
X006690Y008130D01*
X006510Y008130D01*
X006345Y008062D01*
X006219Y007935D01*
X006150Y007770D01*
X006150Y007591D01*
X006219Y007425D01*
X006345Y007299D01*
X006510Y007230D01*
X006690Y007230D01*
X006864Y007308D02*
X017507Y007308D01*
X017507Y007210D02*
X004916Y007210D01*
X004950Y007291D02*
X004881Y007125D01*
X004755Y006999D01*
X004635Y006949D01*
X004658Y006892D01*
X004658Y006769D01*
X004611Y006656D01*
X004525Y006569D01*
X004411Y006522D01*
X004289Y006522D01*
X004175Y006569D01*
X004089Y006656D01*
X004042Y006769D01*
X004042Y006856D01*
X003827Y007071D01*
X003755Y006999D01*
X003590Y006930D01*
X003410Y006930D01*
X003245Y006999D01*
X003119Y007125D01*
X003050Y007291D01*
X003050Y007470D01*
X003119Y007635D01*
X003245Y007762D01*
X003410Y007830D01*
X003590Y007830D01*
X003755Y007762D01*
X003881Y007635D01*
X003919Y007544D01*
X004000Y007463D01*
X004050Y007413D01*
X004050Y007470D01*
X004119Y007635D01*
X004245Y007762D01*
X004410Y007830D01*
X004590Y007830D01*
X004755Y007762D01*
X004881Y007635D01*
X004950Y007470D01*
X004950Y007291D01*
X004950Y007308D02*
X006336Y007308D01*
X006237Y007407D02*
X004950Y007407D01*
X004935Y007505D02*
X006185Y007505D01*
X006150Y007604D02*
X004894Y007604D01*
X004814Y007702D02*
X006150Y007702D01*
X006163Y007801D02*
X004661Y007801D01*
X004605Y007941D02*
X004673Y007963D01*
X004736Y007996D01*
X004793Y008037D01*
X004843Y008087D01*
X004885Y008145D01*
X004917Y008208D01*
X004939Y008275D01*
X004948Y008330D01*
X004550Y008330D01*
X004550Y007933D01*
X004605Y007941D01*
X004550Y007998D02*
X004450Y007998D01*
X004450Y007933D02*
X004450Y008330D01*
X004550Y008330D01*
X004550Y008430D01*
X004948Y008430D01*
X004939Y008486D01*
X004917Y008553D01*
X004885Y008616D01*
X004843Y008674D01*
X004793Y008724D01*
X004736Y008765D01*
X004673Y008797D01*
X004605Y008819D01*
X004550Y008828D01*
X004550Y008430D01*
X004450Y008430D01*
X004450Y008330D01*
X004052Y008330D01*
X004061Y008275D01*
X004083Y008208D01*
X004115Y008145D01*
X004157Y008087D01*
X004207Y008037D01*
X004264Y007996D01*
X004327Y007963D01*
X004395Y007941D01*
X004450Y007933D01*
X004450Y008096D02*
X004550Y008096D01*
X004550Y008195D02*
X004450Y008195D01*
X004450Y008293D02*
X004550Y008293D01*
X004550Y008392D02*
X006252Y008392D01*
X006219Y008425D02*
X006345Y008299D01*
X006510Y008230D01*
X006690Y008230D01*
X006855Y008299D01*
X006981Y008425D01*
X007050Y008591D01*
X007050Y008770D01*
X006981Y008935D01*
X006855Y009062D01*
X006690Y009130D01*
X006510Y009130D01*
X006345Y009062D01*
X006219Y008935D01*
X006150Y008770D01*
X006150Y008591D01*
X006219Y008425D01*
X006192Y008490D02*
X004937Y008490D01*
X004899Y008589D02*
X006151Y008589D01*
X006150Y008687D02*
X004829Y008687D01*
X004695Y008786D02*
X006157Y008786D01*
X006197Y008884D02*
X001200Y008884D01*
X001200Y008786D02*
X001303Y008786D01*
X001289Y008983D02*
X001200Y008983D01*
X001450Y008983D02*
X001550Y008983D01*
X001550Y009081D02*
X001450Y009081D01*
X001450Y009180D02*
X001550Y009180D01*
X001550Y009278D02*
X001450Y009278D01*
X001550Y009377D02*
X002050Y009377D01*
X002050Y009291D02*
X002119Y009125D01*
X002245Y008999D01*
X002410Y008930D01*
X002590Y008930D01*
X002755Y008999D01*
X002881Y009125D01*
X002950Y009291D01*
X002950Y009470D01*
X002881Y009635D01*
X002755Y009762D01*
X002590Y009830D01*
X002410Y009830D01*
X002245Y009762D01*
X002119Y009635D01*
X002050Y009470D01*
X002050Y009291D01*
X002055Y009278D02*
X001939Y009278D01*
X001903Y009180D02*
X002096Y009180D01*
X002163Y009081D02*
X001837Y009081D01*
X001711Y008983D02*
X002284Y008983D01*
X002303Y008786D02*
X001697Y008786D01*
X001829Y008687D02*
X002171Y008687D01*
X002119Y008635D02*
X002050Y008470D01*
X002050Y008291D01*
X002119Y008125D01*
X002245Y007999D01*
X002410Y007930D01*
X002590Y007930D01*
X002755Y007999D01*
X002881Y008125D01*
X002950Y008291D01*
X002950Y008470D01*
X002881Y008635D01*
X002755Y008762D01*
X002590Y008830D01*
X002410Y008830D01*
X002245Y008762D01*
X002119Y008635D01*
X002099Y008589D02*
X001901Y008589D01*
X001942Y008490D02*
X002058Y008490D01*
X002050Y008392D02*
X001950Y008392D01*
X001950Y008293D02*
X002050Y008293D01*
X002090Y008195D02*
X001910Y008195D01*
X001852Y008096D02*
X002148Y008096D01*
X002247Y007998D02*
X001753Y007998D01*
X001661Y007801D02*
X002338Y007801D01*
X002327Y007797D02*
X002264Y007765D01*
X002207Y007724D01*
X002157Y007674D01*
X002115Y007616D01*
X002083Y007553D01*
X002061Y007486D01*
X002052Y007430D01*
X002450Y007430D01*
X002450Y007330D01*
X002550Y007330D01*
X002550Y006933D01*
X002605Y006941D01*
X002673Y006963D01*
X002736Y006996D01*
X002793Y007037D01*
X002843Y007087D01*
X002885Y007145D01*
X002917Y007208D01*
X002939Y007275D01*
X002948Y007330D01*
X002550Y007330D01*
X002550Y007430D01*
X002948Y007430D01*
X002939Y007486D01*
X002917Y007553D01*
X002885Y007616D01*
X002843Y007674D01*
X002793Y007724D01*
X002736Y007765D01*
X002673Y007797D01*
X002605Y007819D01*
X002550Y007828D01*
X002550Y007430D01*
X002450Y007430D01*
X002450Y007828D01*
X002395Y007819D01*
X002327Y007797D01*
X002450Y007801D02*
X002550Y007801D01*
X002550Y007702D02*
X002450Y007702D01*
X002450Y007604D02*
X002550Y007604D01*
X002550Y007505D02*
X002450Y007505D01*
X002450Y007407D02*
X001950Y007407D01*
X001950Y007308D02*
X002056Y007308D01*
X002052Y007330D02*
X002061Y007275D01*
X002083Y007208D01*
X002115Y007145D01*
X002157Y007087D01*
X002207Y007037D01*
X002264Y006996D01*
X002327Y006963D01*
X002395Y006941D01*
X002450Y006933D01*
X002450Y007330D01*
X002052Y007330D01*
X002082Y007210D02*
X001916Y007210D01*
X001867Y007111D02*
X002139Y007111D01*
X002240Y007013D02*
X001769Y007013D01*
X001624Y006816D02*
X002376Y006816D01*
X002410Y006830D02*
X002245Y006762D01*
X002119Y006635D01*
X002050Y006470D01*
X002050Y006291D01*
X002119Y006125D01*
X002245Y005999D01*
X002410Y005930D01*
X002590Y005930D01*
X002755Y005999D01*
X002881Y006125D01*
X002950Y006291D01*
X002950Y006470D01*
X002881Y006635D01*
X002755Y006762D01*
X002590Y006830D01*
X002410Y006830D01*
X002450Y007013D02*
X002550Y007013D01*
X002550Y007111D02*
X002450Y007111D01*
X002450Y007210D02*
X002550Y007210D01*
X002550Y007308D02*
X002450Y007308D01*
X002550Y007407D02*
X003050Y007407D01*
X003050Y007308D02*
X002944Y007308D01*
X002918Y007210D02*
X003084Y007210D01*
X003133Y007111D02*
X002861Y007111D01*
X002760Y007013D02*
X003231Y007013D01*
X003500Y007380D02*
X003800Y007380D01*
X004350Y006830D01*
X004125Y006619D02*
X002888Y006619D01*
X002929Y006520D02*
X006179Y006520D01*
X006150Y006619D02*
X004575Y006619D01*
X004637Y006717D02*
X006150Y006717D01*
X006169Y006816D02*
X004658Y006816D01*
X004649Y006914D02*
X006210Y006914D01*
X006296Y007013D02*
X004769Y007013D01*
X004867Y007111D02*
X006465Y007111D01*
X006963Y007407D02*
X017507Y007407D01*
X017507Y007484D02*
X017507Y006102D01*
X017554Y005989D01*
X017640Y005902D01*
X017753Y005856D01*
X018348Y005856D01*
X018461Y005902D01*
X018547Y005989D01*
X018594Y006102D01*
X018594Y007484D01*
X018547Y007597D01*
X018461Y007684D01*
X018348Y007730D01*
X017753Y007730D01*
X017640Y007684D01*
X017554Y007597D01*
X017507Y007484D01*
X017516Y007505D02*
X017131Y007505D01*
X017103Y007477D02*
X017189Y007564D01*
X017236Y007677D01*
X017236Y008271D01*
X017189Y008384D01*
X017103Y008471D01*
X016990Y008518D01*
X015410Y008518D01*
X015297Y008471D01*
X015211Y008384D01*
X015164Y008271D01*
X015164Y007677D01*
X015211Y007564D01*
X015297Y007477D01*
X015410Y007430D01*
X016990Y007430D01*
X017103Y007477D01*
X017206Y007604D02*
X017560Y007604D01*
X017685Y007702D02*
X017236Y007702D01*
X017236Y007801D02*
X018763Y007801D01*
X018750Y007770D02*
X018750Y007591D01*
X018819Y007425D01*
X018945Y007299D01*
X019110Y007230D01*
X019290Y007230D01*
X019455Y007299D01*
X019581Y007425D01*
X019650Y007591D01*
X019650Y007770D01*
X019581Y007935D01*
X019455Y008062D01*
X019290Y008130D01*
X019110Y008130D01*
X018945Y008062D01*
X018819Y007935D01*
X018750Y007770D01*
X018750Y007702D02*
X018415Y007702D01*
X018540Y007604D02*
X018750Y007604D01*
X018785Y007505D02*
X018585Y007505D01*
X018594Y007407D02*
X018837Y007407D01*
X018936Y007308D02*
X018594Y007308D01*
X018594Y007210D02*
X021350Y007210D01*
X021350Y007111D02*
X021250Y007111D01*
X021250Y007128D02*
X021195Y007119D01*
X021127Y007097D01*
X021064Y007065D01*
X021007Y007024D01*
X020957Y006974D01*
X020915Y006916D01*
X020883Y006853D01*
X020861Y006786D01*
X020852Y006730D01*
X021250Y006730D01*
X021250Y007128D01*
X021170Y007111D02*
X019335Y007111D01*
X019290Y007130D02*
X019110Y007130D01*
X018945Y007062D01*
X018819Y006935D01*
X018750Y006770D01*
X018750Y006591D01*
X018819Y006425D01*
X018945Y006299D01*
X019110Y006230D01*
X019290Y006230D01*
X019455Y006299D01*
X019581Y006425D01*
X019650Y006591D01*
X019650Y006770D01*
X019581Y006935D01*
X019455Y007062D01*
X019290Y007130D01*
X019065Y007111D02*
X018594Y007111D01*
X018594Y007013D02*
X018896Y007013D01*
X018810Y006914D02*
X018594Y006914D01*
X018594Y006816D02*
X018769Y006816D01*
X018750Y006717D02*
X018594Y006717D01*
X018594Y006619D02*
X018750Y006619D01*
X018779Y006520D02*
X018594Y006520D01*
X018594Y006422D02*
X018822Y006422D01*
X018921Y006323D02*
X018594Y006323D01*
X018594Y006225D02*
X021350Y006225D01*
X021350Y006233D02*
X021350Y006233D01*
X021350Y006323D02*
X021250Y006323D01*
X021250Y006233D02*
X021250Y006630D01*
X020852Y006630D01*
X020861Y006575D01*
X020883Y006508D01*
X020915Y006445D01*
X020957Y006387D01*
X021007Y006337D01*
X021064Y006296D01*
X021127Y006263D01*
X021195Y006241D01*
X021250Y006233D01*
X021201Y006126D02*
X019299Y006126D01*
X019290Y006130D02*
X019110Y006130D01*
X018945Y006062D01*
X018819Y005935D01*
X018750Y005770D01*
X018750Y005591D01*
X018819Y005425D01*
X018945Y005299D01*
X019110Y005230D01*
X019290Y005230D01*
X019455Y005299D01*
X019581Y005425D01*
X019650Y005591D01*
X019650Y005770D01*
X019581Y005935D01*
X019455Y006062D01*
X019290Y006130D01*
X019101Y006126D02*
X018594Y006126D01*
X018563Y006028D02*
X018911Y006028D01*
X018816Y005929D02*
X018488Y005929D01*
X018775Y005831D02*
X017137Y005831D01*
X017137Y005878D02*
X017126Y005938D01*
X017102Y005994D01*
X017069Y006044D01*
X017026Y006087D01*
X016976Y006121D01*
X016920Y006144D01*
X016860Y006156D01*
X016250Y006156D01*
X016250Y005662D01*
X016150Y005662D01*
X016150Y006156D01*
X015540Y006156D01*
X015480Y006144D01*
X015424Y006121D01*
X015374Y006087D01*
X015331Y006044D01*
X015298Y005994D01*
X015274Y005938D01*
X015263Y005878D01*
X015263Y005662D01*
X016150Y005662D01*
X016150Y005562D01*
X015263Y005562D01*
X015263Y005345D01*
X015274Y005286D01*
X015298Y005230D01*
X015331Y005180D01*
X015374Y005137D01*
X015424Y005103D01*
X015480Y005080D01*
X015540Y005068D01*
X016150Y005068D01*
X016150Y005562D01*
X016250Y005562D01*
X016250Y005662D01*
X017137Y005662D01*
X017137Y005878D01*
X017127Y005929D02*
X017613Y005929D01*
X017537Y006028D02*
X017080Y006028D01*
X016962Y006126D02*
X017507Y006126D01*
X017507Y006225D02*
X013011Y006225D01*
X013129Y006126D02*
X015438Y006126D01*
X015320Y006028D02*
X013217Y006028D01*
X013286Y005929D02*
X015273Y005929D01*
X015263Y005831D02*
X013337Y005831D01*
X013367Y005732D02*
X015263Y005732D01*
X015263Y005535D02*
X013400Y005535D01*
X013404Y005437D02*
X015263Y005437D01*
X015264Y005338D02*
X013400Y005338D01*
X013400Y005240D02*
X015294Y005240D01*
X015370Y005141D02*
X013400Y005141D01*
X013400Y005043D02*
X018926Y005043D01*
X018828Y004944D02*
X013400Y004944D01*
X013400Y004846D02*
X018781Y004846D01*
X018750Y004747D02*
X013400Y004747D01*
X013400Y004649D02*
X018750Y004649D01*
X018767Y004550D02*
X013400Y004550D01*
X013400Y004452D02*
X018808Y004452D01*
X018891Y004353D02*
X013400Y004353D01*
X013400Y004255D02*
X019051Y004255D01*
X019110Y004130D02*
X018945Y004062D01*
X018819Y003935D01*
X018750Y003770D01*
X018750Y003591D01*
X018819Y003425D01*
X018945Y003299D01*
X019110Y003230D01*
X019290Y003230D01*
X019455Y003299D01*
X019581Y003425D01*
X019650Y003591D01*
X019650Y003770D01*
X019581Y003935D01*
X019455Y004062D01*
X019290Y004130D01*
X019110Y004130D01*
X018941Y004058D02*
X013400Y004058D01*
X013400Y004156D02*
X020093Y004156D01*
X020071Y004058D02*
X019459Y004058D01*
X019557Y003959D02*
X020049Y003959D01*
X020042Y003861D02*
X019612Y003861D01*
X019650Y003762D02*
X020035Y003762D01*
X020035Y003664D02*
X019650Y003664D01*
X019639Y003565D02*
X020035Y003565D01*
X020035Y003467D02*
X019599Y003467D01*
X019524Y003368D02*
X020035Y003368D01*
X020035Y003270D02*
X019385Y003270D01*
X019015Y003270D02*
X013400Y003270D01*
X013400Y003368D02*
X018876Y003368D01*
X018801Y003467D02*
X013400Y003467D01*
X013400Y003565D02*
X018761Y003565D01*
X018750Y003664D02*
X013400Y003664D01*
X013400Y003762D02*
X018750Y003762D01*
X018788Y003861D02*
X013400Y003861D01*
X013400Y003959D02*
X018843Y003959D01*
X019349Y004255D02*
X020133Y004255D01*
X020169Y004353D02*
X019509Y004353D01*
X019592Y004452D02*
X020224Y004452D01*
X020298Y004550D02*
X019633Y004550D01*
X019650Y004649D02*
X020371Y004649D01*
X020467Y004747D02*
X019650Y004747D01*
X019474Y005043D02*
X021001Y005043D01*
X020760Y004944D02*
X020700Y004911D01*
X020687Y004912D01*
X020646Y004882D01*
X020601Y004857D01*
X020598Y004845D01*
X020914Y005437D02*
X019586Y005437D01*
X019627Y005535D02*
X020873Y005535D01*
X020850Y005634D02*
X019650Y005634D01*
X019650Y005732D02*
X020850Y005732D01*
X020875Y005831D02*
X019625Y005831D01*
X019584Y005929D02*
X020916Y005929D01*
X021011Y006028D02*
X019489Y006028D01*
X019479Y006323D02*
X021026Y006323D01*
X020932Y006422D02*
X019578Y006422D01*
X019621Y006520D02*
X020879Y006520D01*
X020854Y006619D02*
X019650Y006619D01*
X019650Y006717D02*
X021250Y006717D01*
X021250Y006619D02*
X021350Y006619D01*
X021350Y006520D02*
X021250Y006520D01*
X021250Y006422D02*
X021350Y006422D01*
X021350Y006816D02*
X021250Y006816D01*
X021250Y006914D02*
X021350Y006914D01*
X021350Y007013D02*
X021250Y007013D01*
X020996Y007013D02*
X019504Y007013D01*
X019590Y006914D02*
X020914Y006914D01*
X020871Y006816D02*
X019631Y006816D01*
X019464Y007308D02*
X021036Y007308D01*
X020937Y007407D02*
X019563Y007407D01*
X019615Y007505D02*
X020885Y007505D01*
X020850Y007604D02*
X019650Y007604D01*
X019650Y007702D02*
X020850Y007702D01*
X020863Y007801D02*
X019637Y007801D01*
X019596Y007899D02*
X020904Y007899D01*
X020981Y007998D02*
X019519Y007998D01*
X019372Y008096D02*
X021128Y008096D01*
X021210Y008230D02*
X021045Y008299D01*
X020919Y008425D01*
X020850Y008591D01*
X020850Y008770D01*
X020919Y008935D01*
X021045Y009062D01*
X021210Y009130D01*
X021390Y009130D01*
X021555Y009062D01*
X021681Y008935D01*
X021750Y008770D01*
X021750Y008591D01*
X021681Y008425D01*
X021555Y008299D01*
X021390Y008230D01*
X021210Y008230D01*
X021058Y008293D02*
X019442Y008293D01*
X019455Y008299D02*
X019581Y008425D01*
X019650Y008591D01*
X019650Y008770D01*
X019581Y008935D01*
X019455Y009062D01*
X019290Y009130D01*
X019110Y009130D01*
X018945Y009062D01*
X018819Y008935D01*
X018750Y008770D01*
X018750Y008591D01*
X018819Y008425D01*
X018945Y008299D01*
X019110Y008230D01*
X019290Y008230D01*
X019455Y008299D01*
X019548Y008392D02*
X020952Y008392D01*
X020892Y008490D02*
X019608Y008490D01*
X019649Y008589D02*
X020851Y008589D01*
X020850Y008687D02*
X019650Y008687D01*
X019643Y008786D02*
X020857Y008786D01*
X020897Y008884D02*
X019603Y008884D01*
X019534Y008983D02*
X020966Y008983D01*
X021092Y009081D02*
X019408Y009081D01*
X019290Y009230D02*
X019455Y009299D01*
X019581Y009425D01*
X019650Y009591D01*
X019650Y009770D01*
X019581Y009935D01*
X019455Y010062D01*
X019290Y010130D01*
X019110Y010130D01*
X018945Y010062D01*
X018819Y009935D01*
X018750Y009770D01*
X018750Y009591D01*
X018819Y009425D01*
X018945Y009299D01*
X019110Y009230D01*
X019290Y009230D01*
X019405Y009278D02*
X021095Y009278D01*
X021045Y009299D02*
X021210Y009230D01*
X021390Y009230D01*
X021555Y009299D01*
X021681Y009425D01*
X021750Y009591D01*
X021750Y009770D01*
X021681Y009935D01*
X021555Y010062D01*
X021390Y010130D01*
X021210Y010130D01*
X021045Y010062D01*
X020919Y009935D01*
X020850Y009770D01*
X020850Y009591D01*
X020919Y009425D01*
X021045Y009299D01*
X020967Y009377D02*
X019533Y009377D01*
X019602Y009475D02*
X020898Y009475D01*
X020857Y009574D02*
X019643Y009574D01*
X019650Y009672D02*
X020850Y009672D01*
X020850Y009771D02*
X019650Y009771D01*
X019609Y009869D02*
X020891Y009869D01*
X020951Y009968D02*
X019549Y009968D01*
X019444Y010066D02*
X021056Y010066D01*
X021131Y010263D02*
X019369Y010263D01*
X019290Y010230D02*
X019455Y010299D01*
X019581Y010425D01*
X019650Y010591D01*
X019650Y010770D01*
X019581Y010935D01*
X019455Y011062D01*
X019290Y011130D01*
X019110Y011130D01*
X018945Y011062D01*
X018819Y010935D01*
X018750Y010770D01*
X018750Y010591D01*
X018819Y010425D01*
X018945Y010299D01*
X019110Y010230D01*
X019290Y010230D01*
X019031Y010263D02*
X015399Y010263D01*
X015399Y010165D02*
X022297Y010165D01*
X022297Y010263D02*
X021469Y010263D01*
X021390Y010230D02*
X021555Y010299D01*
X021681Y010425D01*
X021750Y010591D01*
X021750Y010770D01*
X021681Y010935D01*
X021555Y011062D01*
X021390Y011130D01*
X021210Y011130D01*
X021045Y011062D01*
X020919Y010935D01*
X020850Y010770D01*
X020850Y010591D01*
X020919Y010425D01*
X021045Y010299D01*
X021210Y010230D01*
X021390Y010230D01*
X021544Y010066D02*
X022297Y010066D01*
X022297Y009968D02*
X021649Y009968D01*
X021709Y009869D02*
X022297Y009869D01*
X022297Y009771D02*
X021750Y009771D01*
X021750Y009672D02*
X022297Y009672D01*
X022297Y009574D02*
X021743Y009574D01*
X021702Y009475D02*
X022297Y009475D01*
X022297Y009377D02*
X021633Y009377D01*
X021505Y009278D02*
X022297Y009278D01*
X022297Y009180D02*
X004709Y009180D01*
X004834Y009278D02*
X006395Y009278D01*
X006267Y009377D02*
X004903Y009377D01*
X004944Y009475D02*
X006198Y009475D01*
X006392Y009081D02*
X002837Y009081D01*
X002904Y009180D02*
X004291Y009180D01*
X004166Y009278D02*
X002945Y009278D01*
X002950Y009377D02*
X004097Y009377D01*
X004056Y009475D02*
X002948Y009475D01*
X002907Y009574D02*
X004050Y009574D01*
X004051Y009672D02*
X002844Y009672D01*
X002733Y009771D02*
X004092Y009771D01*
X004153Y009869D02*
X001200Y009869D01*
X001200Y009771D02*
X001275Y009771D01*
X001450Y009771D02*
X001550Y009771D01*
X001550Y009672D02*
X001450Y009672D01*
X001450Y009574D02*
X001550Y009574D01*
X001550Y009475D02*
X001450Y009475D01*
X001725Y009771D02*
X002267Y009771D01*
X002156Y009672D02*
X001844Y009672D01*
X001906Y009574D02*
X002093Y009574D01*
X002052Y009475D02*
X001941Y009475D01*
X001680Y009968D02*
X002320Y009968D01*
X002245Y009999D02*
X002410Y009930D01*
X002590Y009930D01*
X002755Y009999D01*
X002881Y010125D01*
X002950Y010291D01*
X002950Y010470D01*
X002881Y010635D01*
X002755Y010762D01*
X002590Y010830D01*
X002410Y010830D01*
X002245Y010762D01*
X002119Y010635D01*
X002050Y010470D01*
X002050Y010291D01*
X002119Y010125D01*
X002245Y009999D01*
X002178Y010066D02*
X001822Y010066D01*
X001898Y010165D02*
X002102Y010165D01*
X002061Y010263D02*
X001939Y010263D01*
X001950Y010362D02*
X002050Y010362D01*
X002050Y010460D02*
X001950Y010460D01*
X001913Y010559D02*
X002087Y010559D01*
X002141Y010657D02*
X001859Y010657D01*
X001761Y010756D02*
X002239Y010756D01*
X002356Y010953D02*
X001644Y010953D01*
X001807Y011051D02*
X002193Y011051D01*
X002108Y011150D02*
X001892Y011150D01*
X001932Y011248D02*
X002068Y011248D01*
X002050Y011347D02*
X001950Y011347D01*
X001950Y011445D02*
X002050Y011445D01*
X002081Y011544D02*
X001919Y011544D01*
X001874Y011642D02*
X002126Y011642D01*
X002224Y011741D02*
X001776Y011741D01*
X001583Y011938D02*
X002392Y011938D01*
X002208Y012036D02*
X001792Y012036D01*
X001878Y012135D02*
X002115Y012135D01*
X002074Y012233D02*
X001925Y012233D01*
X002050Y012332D02*
X001550Y012332D01*
X001550Y012430D02*
X001450Y012430D01*
X001450Y012529D02*
X001550Y012529D01*
X001550Y012627D02*
X001450Y012627D01*
X001450Y012726D02*
X001550Y012726D01*
X001550Y012824D02*
X001450Y012824D01*
X001427Y012824D02*
X001200Y012824D01*
X001200Y012726D02*
X001210Y012726D01*
X001200Y012923D02*
X004206Y012923D01*
X004389Y013021D02*
X002777Y013021D01*
X002876Y013120D02*
X006485Y013120D01*
X006510Y013130D02*
X006345Y013062D01*
X006219Y012935D01*
X006150Y012770D01*
X006150Y012591D01*
X006219Y012425D01*
X006345Y012299D01*
X006510Y012230D01*
X006690Y012230D01*
X006855Y012299D01*
X006981Y012425D01*
X007050Y012591D01*
X007050Y012770D01*
X006981Y012935D01*
X006855Y013062D01*
X006690Y013130D01*
X006510Y013130D01*
X006510Y013230D02*
X006345Y013299D01*
X006219Y013425D01*
X006150Y013591D01*
X006150Y013770D01*
X006219Y013935D01*
X006345Y014062D01*
X006510Y014130D01*
X006690Y014130D01*
X006855Y014062D01*
X006981Y013935D01*
X007050Y013770D01*
X007050Y013591D01*
X006981Y013425D01*
X006855Y013299D01*
X006690Y013230D01*
X006510Y013230D01*
X006327Y013317D02*
X002950Y013317D01*
X002950Y013415D02*
X003531Y013415D01*
X003512Y013423D02*
X003676Y013356D01*
X003853Y013356D01*
X004016Y013423D01*
X004142Y013549D01*
X004209Y013712D01*
X004209Y013889D01*
X004142Y014053D01*
X004016Y014178D01*
X003853Y014246D01*
X003676Y014246D01*
X003512Y014178D01*
X003387Y014053D01*
X003319Y013889D01*
X003319Y013712D01*
X003387Y013549D01*
X003512Y013423D01*
X003421Y013514D02*
X002932Y013514D01*
X002891Y013612D02*
X003360Y013612D01*
X003319Y013711D02*
X002806Y013711D01*
X002640Y013809D02*
X003319Y013809D01*
X003327Y013908D02*
X001200Y013908D01*
X001200Y014006D02*
X001238Y014006D01*
X001200Y013809D02*
X001360Y013809D01*
X001223Y013021D02*
X001200Y013021D01*
X001450Y012233D02*
X001550Y012233D01*
X001550Y012135D02*
X001450Y012135D01*
X001450Y012036D02*
X001550Y012036D01*
X001550Y011938D02*
X001450Y011938D01*
X001417Y011938D02*
X001200Y011938D01*
X001200Y012036D02*
X001208Y012036D01*
X001200Y011839D02*
X004132Y011839D01*
X004115Y011816D02*
X004083Y011753D01*
X004061Y011686D01*
X004052Y011630D01*
X004450Y011630D01*
X004450Y012028D01*
X004395Y012019D01*
X004327Y011997D01*
X004264Y011965D01*
X004207Y011924D01*
X004157Y011874D01*
X004115Y011816D01*
X004079Y011741D02*
X002776Y011741D01*
X002874Y011642D02*
X004054Y011642D01*
X004227Y011938D02*
X002608Y011938D01*
X002074Y012529D02*
X001925Y012529D01*
X001948Y012430D02*
X002050Y012430D01*
X002115Y012627D02*
X001877Y012627D01*
X001790Y012726D02*
X002209Y012726D01*
X002762Y014006D02*
X003367Y014006D01*
X003439Y014105D02*
X002861Y014105D01*
X002914Y014203D02*
X003572Y014203D01*
X003956Y014203D02*
X005344Y014203D01*
X005284Y014178D02*
X005447Y014246D01*
X005624Y014246D01*
X005788Y014178D01*
X005913Y014053D01*
X005981Y013889D01*
X005981Y013712D01*
X005913Y013549D01*
X005788Y013423D01*
X005624Y013356D01*
X005447Y013356D01*
X005284Y013423D01*
X005158Y013549D01*
X005091Y013712D01*
X005091Y013889D01*
X005158Y014053D01*
X005284Y014178D01*
X005210Y014105D02*
X004090Y014105D01*
X004161Y014006D02*
X005139Y014006D01*
X005098Y013908D02*
X004202Y013908D01*
X004209Y013809D02*
X005091Y013809D01*
X005091Y013711D02*
X004209Y013711D01*
X004168Y013612D02*
X005132Y013612D01*
X005193Y013514D02*
X004107Y013514D01*
X003997Y013415D02*
X005303Y013415D01*
X005458Y012726D02*
X004927Y012726D01*
X004950Y012627D02*
X005311Y012627D01*
X005257Y012529D02*
X004950Y012529D01*
X004925Y012430D02*
X005242Y012430D01*
X005257Y012332D02*
X004884Y012332D01*
X004789Y012233D02*
X005311Y012233D01*
X005350Y012135D02*
X004600Y012135D01*
X004550Y011938D02*
X004450Y011938D01*
X004450Y011839D02*
X004550Y011839D01*
X004550Y011741D02*
X004450Y011741D01*
X004450Y011642D02*
X004550Y011642D01*
X004550Y011347D02*
X004450Y011347D01*
X004450Y011248D02*
X004550Y011248D01*
X004550Y011150D02*
X004450Y011150D01*
X004631Y011150D02*
X005421Y011150D01*
X005296Y011248D02*
X004804Y011248D01*
X004886Y011347D02*
X005251Y011347D01*
X005242Y011445D02*
X004929Y011445D01*
X005550Y011430D02*
X005550Y012430D01*
X005858Y012430D02*
X006216Y012430D01*
X006176Y012529D02*
X005843Y012529D01*
X005789Y012627D02*
X006150Y012627D01*
X006150Y012726D02*
X005642Y012726D01*
X005843Y012332D02*
X006312Y012332D01*
X006503Y012233D02*
X005789Y012233D01*
X005750Y012135D02*
X014111Y012135D01*
X014129Y012068D02*
X014317Y011742D01*
X014583Y011476D01*
X014909Y011288D01*
X015272Y011190D01*
X015649Y011190D01*
X016012Y011288D01*
X016338Y011476D01*
X016605Y011742D01*
X016793Y012068D01*
X016890Y012432D01*
X016890Y012808D01*
X016793Y013172D01*
X016605Y013498D01*
X016338Y013764D01*
X016012Y013952D01*
X015649Y014049D01*
X015272Y014049D01*
X014909Y013952D01*
X014583Y013764D01*
X014317Y013498D01*
X014129Y013172D01*
X014031Y012808D01*
X014031Y012432D01*
X014129Y012068D01*
X014147Y012036D02*
X006880Y012036D01*
X006855Y012062D02*
X006690Y012130D01*
X006510Y012130D01*
X006345Y012062D01*
X006219Y011935D01*
X006150Y011770D01*
X006150Y011591D01*
X006219Y011425D01*
X006345Y011299D01*
X006510Y011230D01*
X006690Y011230D01*
X006855Y011299D01*
X006981Y011425D01*
X007050Y011591D01*
X007050Y011770D01*
X006981Y011935D01*
X006855Y012062D01*
X006979Y011938D02*
X014204Y011938D01*
X014260Y011839D02*
X007021Y011839D01*
X007050Y011741D02*
X014318Y011741D01*
X014416Y011642D02*
X007050Y011642D01*
X007031Y011544D02*
X014515Y011544D01*
X014636Y011445D02*
X006990Y011445D01*
X006903Y011347D02*
X014806Y011347D01*
X015055Y011248D02*
X006733Y011248D01*
X006865Y011051D02*
X007001Y011051D01*
X007001Y010953D02*
X006964Y010953D01*
X007081Y011150D02*
X005679Y011150D01*
X005804Y011248D02*
X006467Y011248D01*
X006297Y011347D02*
X005849Y011347D01*
X005858Y011445D02*
X006210Y011445D01*
X006169Y011544D02*
X005837Y011544D01*
X005774Y011642D02*
X006150Y011642D01*
X006150Y011741D02*
X005750Y011741D01*
X005750Y011839D02*
X006179Y011839D01*
X006221Y011938D02*
X005750Y011938D01*
X005750Y012036D02*
X006320Y012036D01*
X006697Y012233D02*
X014084Y012233D01*
X014058Y012332D02*
X006888Y012332D01*
X006984Y012430D02*
X014031Y012430D01*
X014031Y012529D02*
X007024Y012529D01*
X007050Y012627D02*
X014031Y012627D01*
X014031Y012726D02*
X007050Y012726D01*
X007027Y012824D02*
X014036Y012824D01*
X014062Y012923D02*
X006987Y012923D01*
X006895Y013021D02*
X014088Y013021D01*
X014115Y013120D02*
X006715Y013120D01*
X006873Y013317D02*
X014212Y013317D01*
X014156Y013218D02*
X002920Y013218D01*
X002950Y014302D02*
X006342Y014302D01*
X006244Y014400D02*
X002950Y014400D01*
X002938Y014499D02*
X006188Y014499D01*
X006150Y014597D02*
X002897Y014597D01*
X002821Y014696D02*
X006150Y014696D01*
X006160Y014794D02*
X002676Y014794D01*
X003419Y016075D02*
X001200Y016075D01*
X001200Y015976D02*
X003526Y015976D01*
X003764Y016360D02*
X001180Y016360D01*
X001000Y016180D01*
X001000Y004080D01*
X001200Y003880D01*
X002700Y003880D01*
X003700Y002880D01*
X006800Y002880D01*
X007100Y003180D01*
X007100Y004180D01*
X006600Y004680D01*
X006291Y004353D02*
X006043Y004353D01*
X006043Y004255D02*
X006451Y004255D01*
X006341Y004058D02*
X006043Y004058D01*
X006043Y004009D02*
X006043Y004492D01*
X006000Y004596D01*
X006000Y005448D01*
X006000Y005613D01*
X005883Y005730D01*
X005267Y005730D01*
X005067Y005530D01*
X004950Y005413D01*
X004950Y004048D01*
X004957Y004041D01*
X004957Y004009D01*
X005007Y003889D01*
X005098Y003797D01*
X005219Y003747D01*
X005348Y003747D01*
X005468Y003797D01*
X005500Y003829D01*
X005532Y003797D01*
X005652Y003747D01*
X005781Y003747D01*
X005902Y003797D01*
X005993Y003889D01*
X006043Y004009D01*
X006023Y003959D02*
X006243Y003959D01*
X006188Y003861D02*
X005965Y003861D01*
X005818Y003762D02*
X006150Y003762D01*
X006150Y003664D02*
X003199Y003664D01*
X003101Y003762D02*
X005182Y003762D01*
X005035Y003861D02*
X003002Y003861D01*
X002904Y003959D02*
X004977Y003959D01*
X004950Y004058D02*
X002814Y004058D01*
X002894Y004156D02*
X004950Y004156D01*
X004950Y004255D02*
X002935Y004255D01*
X002950Y004353D02*
X004950Y004353D01*
X004950Y004452D02*
X002950Y004452D01*
X002917Y004550D02*
X004950Y004550D01*
X004950Y004649D02*
X002868Y004649D01*
X002769Y004747D02*
X004950Y004747D01*
X004950Y004846D02*
X001200Y004846D01*
X001200Y004944D02*
X001386Y004944D01*
X001450Y004944D02*
X001550Y004944D01*
X001614Y004944D02*
X002377Y004944D01*
X002410Y004930D02*
X002590Y004930D01*
X002755Y004999D01*
X002881Y005125D01*
X002950Y005291D01*
X002950Y005470D01*
X002881Y005635D01*
X002755Y005762D01*
X002590Y005830D01*
X002410Y005830D01*
X002245Y005762D01*
X002119Y005635D01*
X002050Y005470D01*
X002050Y005291D01*
X002119Y005125D01*
X002245Y004999D01*
X002410Y004930D01*
X002623Y004944D02*
X004950Y004944D01*
X004950Y005043D02*
X002799Y005043D01*
X002888Y005141D02*
X004950Y005141D01*
X004950Y005240D02*
X002929Y005240D01*
X002950Y005338D02*
X004950Y005338D01*
X004974Y005437D02*
X002950Y005437D01*
X002923Y005535D02*
X005072Y005535D01*
X005171Y005634D02*
X002882Y005634D01*
X002784Y005732D02*
X006150Y005732D01*
X006150Y005770D02*
X006150Y005591D01*
X006219Y005425D01*
X006345Y005299D01*
X006510Y005230D01*
X006690Y005230D01*
X006855Y005299D01*
X006981Y005425D01*
X007050Y005591D01*
X007050Y005770D01*
X006981Y005935D01*
X006855Y006062D01*
X006690Y006130D01*
X006510Y006130D01*
X006345Y006062D01*
X006219Y005935D01*
X006150Y005770D01*
X006175Y005831D02*
X001200Y005831D01*
X001200Y005929D02*
X006216Y005929D01*
X006311Y006028D02*
X002784Y006028D01*
X002882Y006126D02*
X006501Y006126D01*
X006699Y006126D02*
X007708Y006126D01*
X007628Y006028D02*
X006889Y006028D01*
X006984Y005929D02*
X007571Y005929D01*
X007537Y005831D02*
X007025Y005831D01*
X007050Y005732D02*
X007513Y005732D01*
X007500Y005634D02*
X007050Y005634D01*
X007027Y005535D02*
X007495Y005535D01*
X007500Y005437D02*
X006986Y005437D01*
X006894Y005338D02*
X007500Y005338D01*
X007500Y005240D02*
X006712Y005240D01*
X006488Y005240D02*
X006000Y005240D01*
X006000Y005338D02*
X006306Y005338D01*
X006214Y005437D02*
X006000Y005437D01*
X006000Y005535D02*
X006173Y005535D01*
X006150Y005634D02*
X005979Y005634D01*
X006222Y006422D02*
X002950Y006422D01*
X002950Y006323D02*
X006321Y006323D01*
X006000Y005141D02*
X007500Y005141D01*
X007500Y005043D02*
X006874Y005043D01*
X006972Y004944D02*
X007500Y004944D01*
X007500Y004846D02*
X007019Y004846D01*
X007050Y004747D02*
X007500Y004747D01*
X007500Y004649D02*
X007050Y004649D01*
X007033Y004550D02*
X007500Y004550D01*
X007500Y004452D02*
X007111Y004452D01*
X007210Y004353D02*
X007500Y004353D01*
X007500Y004255D02*
X007300Y004255D01*
X007300Y004156D02*
X007500Y004156D01*
X007500Y004058D02*
X007300Y004058D01*
X007300Y003959D02*
X007500Y003959D01*
X007500Y003861D02*
X007300Y003861D01*
X007300Y003762D02*
X007500Y003762D01*
X007500Y003664D02*
X007300Y003664D01*
X007300Y003565D02*
X007500Y003565D01*
X007500Y003467D02*
X007300Y003467D01*
X007300Y003368D02*
X007500Y003368D01*
X007500Y003270D02*
X007300Y003270D01*
X007300Y003171D02*
X007500Y003171D01*
X007500Y003073D02*
X007275Y003073D01*
X007177Y002974D02*
X007500Y002974D01*
X007500Y002876D02*
X007078Y002876D01*
X006808Y003171D02*
X003692Y003171D01*
X003593Y003270D02*
X006415Y003270D01*
X006276Y003368D02*
X003495Y003368D01*
X003396Y003467D02*
X006201Y003467D01*
X006161Y003565D02*
X003298Y003565D01*
X002106Y004156D02*
X001894Y004156D01*
X001935Y004255D02*
X002065Y004255D01*
X002050Y004353D02*
X001950Y004353D01*
X001950Y004452D02*
X002050Y004452D01*
X002083Y004550D02*
X001917Y004550D01*
X001868Y004649D02*
X002132Y004649D01*
X002231Y004747D02*
X001769Y004747D01*
X001799Y005043D02*
X002201Y005043D01*
X002112Y005141D02*
X001883Y005141D01*
X001928Y005240D02*
X002071Y005240D01*
X002050Y005338D02*
X001550Y005338D01*
X001550Y005240D02*
X001450Y005240D01*
X001450Y005141D02*
X001550Y005141D01*
X001550Y005043D02*
X001450Y005043D01*
X001201Y005043D02*
X001200Y005043D01*
X001200Y004747D02*
X001231Y004747D01*
X001450Y005437D02*
X001550Y005437D01*
X001550Y005535D02*
X001450Y005535D01*
X001450Y005634D02*
X001550Y005634D01*
X001550Y005732D02*
X001450Y005732D01*
X001219Y005732D02*
X001200Y005732D01*
X001200Y006028D02*
X001216Y006028D01*
X001784Y006028D02*
X002216Y006028D01*
X002118Y006126D02*
X001882Y006126D01*
X001923Y006225D02*
X002077Y006225D01*
X002050Y006323D02*
X001950Y006323D01*
X001950Y006422D02*
X002050Y006422D01*
X002071Y006520D02*
X001929Y006520D01*
X001888Y006619D02*
X002112Y006619D01*
X002201Y006717D02*
X001799Y006717D01*
X001935Y007505D02*
X002067Y007505D01*
X002109Y007604D02*
X001894Y007604D01*
X001814Y007702D02*
X002186Y007702D01*
X002662Y007801D02*
X003339Y007801D01*
X003395Y007941D02*
X003450Y007933D01*
X003450Y008330D01*
X003550Y008330D01*
X003550Y007933D01*
X003605Y007941D01*
X003673Y007963D01*
X003736Y007996D01*
X003793Y008037D01*
X003843Y008087D01*
X003885Y008145D01*
X003917Y008208D01*
X003939Y008275D01*
X003948Y008330D01*
X003550Y008330D01*
X003550Y008430D01*
X003948Y008430D01*
X003939Y008486D01*
X003917Y008553D01*
X003885Y008616D01*
X003843Y008674D01*
X003793Y008724D01*
X003736Y008765D01*
X003673Y008797D01*
X003605Y008819D01*
X003550Y008828D01*
X003550Y008430D01*
X003450Y008430D01*
X003450Y008330D01*
X003052Y008330D01*
X003061Y008275D01*
X003083Y008208D01*
X003115Y008145D01*
X003157Y008087D01*
X003207Y008037D01*
X003264Y007996D01*
X003327Y007963D01*
X003395Y007941D01*
X003450Y007998D02*
X003550Y007998D01*
X003550Y008096D02*
X003450Y008096D01*
X003450Y008195D02*
X003550Y008195D01*
X003550Y008293D02*
X003450Y008293D01*
X003450Y008392D02*
X002950Y008392D01*
X002950Y008293D02*
X003058Y008293D01*
X003089Y008195D02*
X002910Y008195D01*
X002852Y008096D02*
X003150Y008096D01*
X003261Y007998D02*
X002753Y007998D01*
X002814Y007702D02*
X003186Y007702D01*
X003106Y007604D02*
X002891Y007604D01*
X002933Y007505D02*
X003065Y007505D01*
X002799Y006717D02*
X004063Y006717D01*
X004042Y006816D02*
X002624Y006816D01*
X002923Y006225D02*
X007816Y006225D01*
X007914Y006040D02*
X008000Y006100D01*
X008095Y006144D01*
X008196Y006171D01*
X008300Y006180D01*
X012500Y006180D01*
X012610Y006172D01*
X012716Y006146D01*
X012818Y006104D01*
X012911Y006047D01*
X012995Y005975D01*
X013066Y005892D01*
X013124Y005798D01*
X013166Y005697D01*
X013191Y005590D01*
X013200Y005480D01*
X013200Y002830D01*
X007700Y002830D01*
X007700Y005580D01*
X007709Y005685D01*
X007736Y005786D01*
X007780Y005880D01*
X007840Y005966D01*
X007914Y006040D01*
X007902Y006028D02*
X010204Y006028D01*
X010174Y006013D02*
X010095Y005955D01*
X010025Y005886D01*
X009968Y005807D01*
X009923Y005719D01*
X009893Y005626D01*
X009878Y005530D01*
X010450Y005530D01*
X010450Y005430D01*
X010550Y005430D01*
X010550Y004858D01*
X010646Y004873D01*
X010739Y004904D01*
X010826Y004948D01*
X010905Y005006D01*
X010975Y005075D01*
X011032Y005154D01*
X011077Y005241D01*
X011107Y005335D01*
X011122Y005430D01*
X010550Y005430D01*
X010550Y005530D01*
X011122Y005530D01*
X011107Y005626D01*
X011077Y005719D01*
X011032Y005807D01*
X010975Y005886D01*
X010905Y005955D01*
X010826Y006013D01*
X010739Y006057D01*
X010646Y006088D01*
X010550Y006103D01*
X010550Y005530D01*
X010450Y005530D01*
X010450Y006103D01*
X010354Y006088D01*
X010261Y006057D01*
X010174Y006013D01*
X010069Y005929D02*
X007815Y005929D01*
X007757Y005831D02*
X009985Y005831D01*
X009930Y005732D02*
X007722Y005732D01*
X007705Y005634D02*
X009895Y005634D01*
X009879Y005535D02*
X007700Y005535D01*
X007700Y005437D02*
X010450Y005437D01*
X010450Y005430D02*
X009878Y005430D01*
X009893Y005335D01*
X009923Y005241D01*
X009968Y005154D01*
X010025Y005075D01*
X010095Y005006D01*
X010174Y004948D01*
X010261Y004904D01*
X010354Y004873D01*
X010450Y004858D01*
X010450Y005430D01*
X010450Y005338D02*
X010550Y005338D01*
X010550Y005240D02*
X010450Y005240D01*
X010450Y005141D02*
X010550Y005141D01*
X010550Y005043D02*
X010450Y005043D01*
X010450Y004944D02*
X010550Y004944D01*
X010819Y004944D02*
X011126Y004944D01*
X011164Y004983D02*
X010997Y004816D01*
X010907Y004598D01*
X010907Y004362D01*
X010997Y004145D01*
X011164Y003978D01*
X011382Y003887D01*
X011618Y003887D01*
X011836Y003978D01*
X012003Y004145D01*
X012093Y004362D01*
X012093Y004598D01*
X012003Y004816D01*
X011836Y004983D01*
X011618Y005073D01*
X011382Y005073D01*
X011164Y004983D01*
X011309Y005043D02*
X010943Y005043D01*
X011023Y005141D02*
X011977Y005141D01*
X011968Y005154D02*
X012025Y005075D01*
X012095Y005006D01*
X012174Y004948D01*
X012261Y004904D01*
X012354Y004873D01*
X012450Y004858D01*
X012450Y005430D01*
X012550Y005430D01*
X012550Y004858D01*
X012646Y004873D01*
X012739Y004904D01*
X012826Y004948D01*
X012905Y005006D01*
X012975Y005075D01*
X013032Y005154D01*
X013077Y005241D01*
X013107Y005335D01*
X013122Y005430D01*
X012550Y005430D01*
X012550Y005530D01*
X013122Y005530D01*
X013107Y005626D01*
X013077Y005719D01*
X013032Y005807D01*
X012975Y005886D01*
X012905Y005955D01*
X012826Y006013D01*
X012739Y006057D01*
X012646Y006088D01*
X012550Y006103D01*
X012550Y005530D01*
X012450Y005530D01*
X012450Y005430D01*
X011878Y005430D01*
X011893Y005335D01*
X011923Y005241D01*
X011968Y005154D01*
X011924Y005240D02*
X011076Y005240D01*
X011108Y005338D02*
X011892Y005338D01*
X011878Y005530D02*
X012450Y005530D01*
X012450Y006103D01*
X012354Y006088D01*
X012261Y006057D01*
X012174Y006013D01*
X012095Y005955D01*
X012025Y005886D01*
X011968Y005807D01*
X011923Y005719D01*
X011893Y005626D01*
X011878Y005530D01*
X011879Y005535D02*
X011121Y005535D01*
X011105Y005634D02*
X011895Y005634D01*
X011930Y005732D02*
X011070Y005732D01*
X011015Y005831D02*
X011985Y005831D01*
X012069Y005929D02*
X010931Y005929D01*
X010796Y006028D02*
X012204Y006028D01*
X012450Y006028D02*
X012550Y006028D01*
X012550Y005929D02*
X012450Y005929D01*
X012450Y005831D02*
X012550Y005831D01*
X012550Y005732D02*
X012450Y005732D01*
X012450Y005634D02*
X012550Y005634D01*
X012550Y005535D02*
X012450Y005535D01*
X012450Y005437D02*
X010550Y005437D01*
X010550Y005535D02*
X010450Y005535D01*
X010450Y005634D02*
X010550Y005634D01*
X010550Y005732D02*
X010450Y005732D01*
X010450Y005831D02*
X010550Y005831D01*
X010550Y005929D02*
X010450Y005929D01*
X010450Y006028D02*
X010550Y006028D01*
X009924Y005240D02*
X007700Y005240D01*
X007700Y005338D02*
X009892Y005338D01*
X009977Y005141D02*
X007700Y005141D01*
X007700Y005043D02*
X010057Y005043D01*
X010181Y004944D02*
X007700Y004944D01*
X007700Y004846D02*
X011027Y004846D01*
X010969Y004747D02*
X007700Y004747D01*
X007700Y004649D02*
X010928Y004649D01*
X010907Y004550D02*
X007700Y004550D01*
X007700Y004452D02*
X010907Y004452D01*
X010911Y004353D02*
X007700Y004353D01*
X007700Y004255D02*
X010952Y004255D01*
X010992Y004156D02*
X007700Y004156D01*
X007700Y004058D02*
X010263Y004058D01*
X010261Y004057D02*
X010174Y004013D01*
X010095Y003955D01*
X010025Y003886D01*
X009968Y003807D01*
X009923Y003719D01*
X009893Y003626D01*
X009878Y003530D01*
X010450Y003530D01*
X010450Y003430D01*
X010550Y003430D01*
X010550Y002858D01*
X010646Y002873D01*
X010739Y002904D01*
X010826Y002948D01*
X010905Y003006D01*
X010975Y003075D01*
X011032Y003154D01*
X011077Y003241D01*
X011107Y003335D01*
X011122Y003430D01*
X010550Y003430D01*
X010550Y003530D01*
X011122Y003530D01*
X011107Y003626D01*
X011077Y003719D01*
X011032Y003807D01*
X010975Y003886D01*
X010905Y003955D01*
X010826Y004013D01*
X010739Y004057D01*
X010646Y004088D01*
X010550Y004103D01*
X010550Y003530D01*
X010450Y003530D01*
X010450Y004103D01*
X010354Y004088D01*
X010261Y004057D01*
X010100Y003959D02*
X007700Y003959D01*
X007700Y003861D02*
X010007Y003861D01*
X009945Y003762D02*
X007700Y003762D01*
X007700Y003664D02*
X009905Y003664D01*
X009883Y003565D02*
X007700Y003565D01*
X007700Y003467D02*
X010450Y003467D01*
X010450Y003430D02*
X009878Y003430D01*
X009893Y003335D01*
X009923Y003241D01*
X009968Y003154D01*
X010025Y003075D01*
X010095Y003006D01*
X010174Y002948D01*
X010261Y002904D01*
X010354Y002873D01*
X010450Y002858D01*
X010450Y003430D01*
X010450Y003368D02*
X010550Y003368D01*
X010550Y003270D02*
X010450Y003270D01*
X010450Y003171D02*
X010550Y003171D01*
X010550Y003073D02*
X010450Y003073D01*
X010450Y002974D02*
X010550Y002974D01*
X010550Y002876D02*
X010450Y002876D01*
X010346Y002876D02*
X007700Y002876D01*
X007700Y002974D02*
X010137Y002974D01*
X010027Y003073D02*
X007700Y003073D01*
X007700Y003171D02*
X009959Y003171D01*
X009914Y003270D02*
X007700Y003270D01*
X007700Y003368D02*
X009888Y003368D01*
X010450Y003565D02*
X010550Y003565D01*
X010550Y003467D02*
X012450Y003467D01*
X012450Y003430D02*
X011878Y003430D01*
X011893Y003335D01*
X011923Y003241D01*
X011968Y003154D01*
X012025Y003075D01*
X012095Y003006D01*
X012174Y002948D01*
X012261Y002904D01*
X012354Y002873D01*
X012450Y002858D01*
X012450Y003430D01*
X012550Y003430D01*
X012550Y002858D01*
X012646Y002873D01*
X012739Y002904D01*
X012826Y002948D01*
X012905Y003006D01*
X012975Y003075D01*
X013032Y003154D01*
X013077Y003241D01*
X013107Y003335D01*
X013122Y003430D01*
X012550Y003430D01*
X012550Y003530D01*
X013122Y003530D01*
X013107Y003626D01*
X013077Y003719D01*
X013032Y003807D01*
X012975Y003886D01*
X012905Y003955D01*
X012826Y004013D01*
X012739Y004057D01*
X012646Y004088D01*
X012550Y004103D01*
X012550Y003530D01*
X012450Y003530D01*
X012450Y003430D01*
X012450Y003368D02*
X012550Y003368D01*
X012550Y003270D02*
X012450Y003270D01*
X012450Y003171D02*
X012550Y003171D01*
X012550Y003073D02*
X012450Y003073D01*
X012450Y002974D02*
X012550Y002974D01*
X012550Y002876D02*
X012450Y002876D01*
X012346Y002876D02*
X010654Y002876D01*
X010863Y002974D02*
X012137Y002974D01*
X012027Y003073D02*
X010973Y003073D01*
X011041Y003171D02*
X011959Y003171D01*
X011914Y003270D02*
X011086Y003270D01*
X011112Y003368D02*
X011888Y003368D01*
X011878Y003530D02*
X012450Y003530D01*
X012450Y004103D01*
X012354Y004088D01*
X012261Y004057D01*
X012174Y004013D01*
X012095Y003955D01*
X012025Y003886D01*
X011968Y003807D01*
X011923Y003719D01*
X011893Y003626D01*
X011878Y003530D01*
X011883Y003565D02*
X011117Y003565D01*
X011095Y003664D02*
X011905Y003664D01*
X011945Y003762D02*
X011055Y003762D01*
X010993Y003861D02*
X012007Y003861D01*
X012100Y003959D02*
X011792Y003959D01*
X011916Y004058D02*
X012263Y004058D01*
X012450Y004058D02*
X012550Y004058D01*
X012550Y003959D02*
X012450Y003959D01*
X012450Y003861D02*
X012550Y003861D01*
X012550Y003762D02*
X012450Y003762D01*
X012450Y003664D02*
X012550Y003664D01*
X012550Y003565D02*
X012450Y003565D01*
X012550Y003467D02*
X013200Y003467D01*
X013200Y003565D02*
X013117Y003565D01*
X013095Y003664D02*
X013200Y003664D01*
X013200Y003762D02*
X013055Y003762D01*
X012993Y003861D02*
X013200Y003861D01*
X013200Y003959D02*
X012900Y003959D01*
X012737Y004058D02*
X013200Y004058D01*
X013200Y004156D02*
X012008Y004156D01*
X012048Y004255D02*
X013200Y004255D01*
X013200Y004353D02*
X012089Y004353D01*
X012093Y004452D02*
X013200Y004452D01*
X013200Y004550D02*
X012093Y004550D01*
X012072Y004649D02*
X013200Y004649D01*
X013200Y004747D02*
X012031Y004747D01*
X011973Y004846D02*
X013200Y004846D01*
X013200Y004944D02*
X012819Y004944D01*
X012943Y005043D02*
X013200Y005043D01*
X013200Y005141D02*
X013023Y005141D01*
X013076Y005240D02*
X013200Y005240D01*
X013200Y005338D02*
X013108Y005338D01*
X013200Y005437D02*
X012550Y005437D01*
X012550Y005338D02*
X012450Y005338D01*
X012450Y005240D02*
X012550Y005240D01*
X012550Y005141D02*
X012450Y005141D01*
X012450Y005043D02*
X012550Y005043D01*
X012550Y004944D02*
X012450Y004944D01*
X012181Y004944D02*
X011874Y004944D01*
X011691Y005043D02*
X012057Y005043D01*
X012796Y006028D02*
X012933Y006028D01*
X012931Y005929D02*
X013034Y005929D01*
X013015Y005831D02*
X013104Y005831D01*
X013070Y005732D02*
X013151Y005732D01*
X013181Y005634D02*
X013105Y005634D01*
X013121Y005535D02*
X013196Y005535D01*
X013389Y005634D02*
X016150Y005634D01*
X016150Y005732D02*
X016250Y005732D01*
X016250Y005634D02*
X018750Y005634D01*
X018750Y005732D02*
X017137Y005732D01*
X017137Y005562D02*
X016250Y005562D01*
X016250Y005068D01*
X016860Y005068D01*
X016920Y005080D01*
X016976Y005103D01*
X017026Y005137D01*
X017069Y005180D01*
X017102Y005230D01*
X017126Y005286D01*
X017137Y005345D01*
X017137Y005562D01*
X017137Y005535D02*
X018773Y005535D01*
X018814Y005437D02*
X017137Y005437D01*
X017136Y005338D02*
X018906Y005338D01*
X019088Y005240D02*
X017106Y005240D01*
X017030Y005141D02*
X022297Y005141D01*
X022297Y005240D02*
X021412Y005240D01*
X021594Y005338D02*
X022297Y005338D01*
X022297Y005437D02*
X021686Y005437D01*
X021727Y005535D02*
X022297Y005535D01*
X022297Y005634D02*
X021750Y005634D01*
X021750Y005732D02*
X022297Y005732D01*
X022297Y005831D02*
X021776Y005831D01*
X021188Y005240D02*
X019312Y005240D01*
X019494Y005338D02*
X021006Y005338D01*
X020035Y003171D02*
X013400Y003171D01*
X013400Y003073D02*
X020035Y003073D01*
X020035Y002974D02*
X013400Y002974D01*
X013400Y002876D02*
X020035Y002876D01*
X018804Y007899D02*
X017236Y007899D01*
X017236Y007998D02*
X018881Y007998D01*
X019028Y008096D02*
X017236Y008096D01*
X017236Y008195D02*
X022297Y008195D01*
X022297Y008293D02*
X021542Y008293D01*
X021648Y008392D02*
X022297Y008392D01*
X022297Y008490D02*
X021708Y008490D01*
X021749Y008589D02*
X022297Y008589D01*
X022297Y008687D02*
X021750Y008687D01*
X021743Y008786D02*
X022297Y008786D01*
X022297Y008884D02*
X021703Y008884D01*
X021634Y008983D02*
X022297Y008983D01*
X022297Y009081D02*
X021508Y009081D01*
X021472Y008096D02*
X022297Y008096D01*
X022297Y007998D02*
X021619Y007998D01*
X021618Y010362D02*
X022297Y010362D01*
X022297Y010460D02*
X021696Y010460D01*
X021737Y010559D02*
X022297Y010559D01*
X022297Y010657D02*
X021750Y010657D01*
X021750Y010756D02*
X022297Y010756D01*
X022297Y010854D02*
X021715Y010854D01*
X021664Y010953D02*
X022297Y010953D01*
X022297Y011051D02*
X021565Y011051D01*
X021433Y011248D02*
X022297Y011248D01*
X022297Y011150D02*
X015319Y011150D01*
X015399Y011051D02*
X018935Y011051D01*
X018836Y010953D02*
X015399Y010953D01*
X015399Y010854D02*
X018785Y010854D01*
X018750Y010756D02*
X015399Y010756D01*
X015399Y010657D02*
X018750Y010657D01*
X018763Y010559D02*
X015399Y010559D01*
X015399Y010460D02*
X018804Y010460D01*
X018882Y010362D02*
X015399Y010362D01*
X015399Y010066D02*
X018956Y010066D01*
X018851Y009968D02*
X015399Y009968D01*
X015399Y009869D02*
X018791Y009869D01*
X018750Y009771D02*
X015399Y009771D01*
X015399Y009672D02*
X018750Y009672D01*
X018757Y009574D02*
X015399Y009574D01*
X015399Y009475D02*
X018798Y009475D01*
X018867Y009377D02*
X015399Y009377D01*
X015386Y009278D02*
X018995Y009278D01*
X018992Y009081D02*
X006808Y009081D01*
X006934Y008983D02*
X018866Y008983D01*
X018797Y008884D02*
X007003Y008884D01*
X007043Y008786D02*
X018757Y008786D01*
X018750Y008687D02*
X007050Y008687D01*
X007049Y008589D02*
X018751Y008589D01*
X018792Y008490D02*
X017056Y008490D01*
X017182Y008392D02*
X018852Y008392D01*
X018958Y008293D02*
X017227Y008293D01*
X017507Y006323D02*
X012835Y006323D01*
X012764Y006126D02*
X008057Y006126D01*
X007015Y007505D02*
X015269Y007505D01*
X015194Y007604D02*
X007050Y007604D01*
X007050Y007702D02*
X015164Y007702D01*
X015164Y007801D02*
X007037Y007801D01*
X006996Y007899D02*
X015164Y007899D01*
X015164Y007998D02*
X006919Y007998D01*
X006772Y008096D02*
X015164Y008096D01*
X015164Y008195D02*
X004911Y008195D01*
X004942Y008293D02*
X006358Y008293D01*
X006428Y008096D02*
X004850Y008096D01*
X004739Y007998D02*
X006281Y007998D01*
X006204Y007899D02*
X001200Y007899D01*
X001200Y007801D02*
X001339Y007801D01*
X001247Y007998D02*
X001200Y007998D01*
X001200Y007013D02*
X001231Y007013D01*
X001200Y006914D02*
X003983Y006914D01*
X003885Y007013D02*
X003769Y007013D01*
X003958Y007505D02*
X004065Y007505D01*
X004106Y007604D02*
X003894Y007604D01*
X003814Y007702D02*
X004186Y007702D01*
X004339Y007801D02*
X003661Y007801D01*
X003739Y007998D02*
X004261Y007998D01*
X004150Y008096D02*
X003850Y008096D01*
X003911Y008195D02*
X004089Y008195D01*
X004058Y008293D02*
X003942Y008293D01*
X004052Y008430D02*
X004450Y008430D01*
X004450Y008828D01*
X004395Y008819D01*
X004327Y008797D01*
X004264Y008765D01*
X004207Y008724D01*
X004157Y008674D01*
X004115Y008616D01*
X004083Y008553D01*
X004061Y008486D01*
X004052Y008430D01*
X004063Y008490D02*
X003937Y008490D01*
X003899Y008589D02*
X004101Y008589D01*
X004171Y008687D02*
X003829Y008687D01*
X003695Y008786D02*
X004305Y008786D01*
X004450Y008786D02*
X004550Y008786D01*
X004550Y008687D02*
X004450Y008687D01*
X004450Y008589D02*
X004550Y008589D01*
X004550Y008490D02*
X004450Y008490D01*
X004450Y008392D02*
X003550Y008392D01*
X003550Y008490D02*
X003450Y008490D01*
X003450Y008430D02*
X003450Y008828D01*
X003395Y008819D01*
X003327Y008797D01*
X003264Y008765D01*
X003207Y008724D01*
X003157Y008674D01*
X003115Y008616D01*
X003083Y008553D01*
X003061Y008486D01*
X003052Y008430D01*
X003450Y008430D01*
X003450Y008589D02*
X003550Y008589D01*
X003550Y008687D02*
X003450Y008687D01*
X003450Y008786D02*
X003550Y008786D01*
X003305Y008786D02*
X002697Y008786D01*
X002829Y008687D02*
X003171Y008687D01*
X003101Y008589D02*
X002901Y008589D01*
X002942Y008490D02*
X003063Y008490D01*
X002716Y008983D02*
X006266Y008983D01*
X006805Y009278D02*
X007014Y009278D01*
X007001Y009377D02*
X006933Y009377D01*
X007008Y008490D02*
X015344Y008490D01*
X015218Y008392D02*
X006948Y008392D01*
X006842Y008293D02*
X015173Y008293D01*
X016150Y006126D02*
X016250Y006126D01*
X016250Y006028D02*
X016150Y006028D01*
X016150Y005929D02*
X016250Y005929D01*
X016250Y005831D02*
X016150Y005831D01*
X016150Y005535D02*
X016250Y005535D01*
X016250Y005437D02*
X016150Y005437D01*
X016150Y005338D02*
X016250Y005338D01*
X016250Y005240D02*
X016150Y005240D01*
X016150Y005141D02*
X016250Y005141D01*
X013200Y003368D02*
X013112Y003368D01*
X013086Y003270D02*
X013200Y003270D01*
X013200Y003171D02*
X013041Y003171D01*
X012973Y003073D02*
X013200Y003073D01*
X013200Y002974D02*
X012863Y002974D01*
X012654Y002876D02*
X013200Y002876D01*
X011208Y003959D02*
X010900Y003959D01*
X010737Y004058D02*
X011084Y004058D01*
X010550Y004058D02*
X010450Y004058D01*
X010450Y003959D02*
X010550Y003959D01*
X010550Y003861D02*
X010450Y003861D01*
X010450Y003762D02*
X010550Y003762D01*
X010550Y003664D02*
X010450Y003664D01*
X006900Y004058D02*
X006859Y004058D01*
X006841Y004156D02*
X006043Y004156D01*
X006043Y004452D02*
X006208Y004452D01*
X006167Y004550D02*
X006019Y004550D01*
X006000Y004649D02*
X006150Y004649D01*
X006150Y004747D02*
X006000Y004747D01*
X006000Y004846D02*
X006181Y004846D01*
X006228Y004944D02*
X006000Y004944D01*
X006000Y005043D02*
X006326Y005043D01*
X005615Y003762D02*
X005385Y003762D01*
X006785Y003270D02*
X006900Y003270D01*
X005850Y010066D02*
X002822Y010066D01*
X002898Y010165D02*
X004327Y010165D01*
X004181Y010263D02*
X002939Y010263D01*
X002950Y010362D02*
X004103Y010362D01*
X004063Y010460D02*
X002950Y010460D01*
X002913Y010559D02*
X004050Y010559D01*
X004050Y010657D02*
X002859Y010657D01*
X002761Y010756D02*
X004086Y010756D01*
X004138Y010854D02*
X001200Y010854D01*
X001200Y010756D02*
X001239Y010756D01*
X001200Y010953D02*
X001356Y010953D01*
X001224Y011741D02*
X001200Y011741D01*
X001200Y009968D02*
X001320Y009968D01*
X002680Y009968D02*
X004260Y009968D01*
X004236Y010953D02*
X002644Y010953D01*
X001324Y014794D02*
X001200Y014794D01*
X001200Y014893D02*
X006201Y014893D01*
X006449Y014105D02*
X005861Y014105D01*
X005933Y014006D02*
X006290Y014006D01*
X006207Y013908D02*
X005973Y013908D01*
X005981Y013809D02*
X006166Y013809D01*
X006150Y013711D02*
X005981Y013711D01*
X005940Y013612D02*
X006150Y013612D01*
X006182Y013514D02*
X005879Y013514D01*
X005769Y013415D02*
X006229Y013415D01*
X006305Y013021D02*
X004611Y013021D01*
X004794Y012923D02*
X006213Y012923D01*
X006173Y012824D02*
X004886Y012824D01*
X005728Y014203D02*
X018640Y014203D01*
X018542Y014105D02*
X006751Y014105D01*
X006910Y014006D02*
X015112Y014006D01*
X014833Y013908D02*
X006993Y013908D01*
X007034Y013809D02*
X014662Y013809D01*
X014530Y013711D02*
X007050Y013711D01*
X007050Y013612D02*
X014432Y013612D01*
X014333Y013514D02*
X007018Y013514D01*
X006971Y013415D02*
X014269Y013415D01*
X015809Y014006D02*
X018443Y014006D01*
X018400Y013908D02*
X016089Y013908D01*
X016259Y013809D02*
X018393Y013809D01*
X018320Y013711D02*
X016391Y013711D01*
X016490Y013612D02*
X018292Y013612D01*
X018294Y013514D02*
X016588Y013514D01*
X016652Y013415D02*
X018334Y013415D01*
X018430Y013317D02*
X016709Y013317D01*
X016766Y013218D02*
X022297Y013218D01*
X022297Y013120D02*
X021415Y013120D01*
X021390Y013130D02*
X021210Y013130D01*
X021045Y013062D01*
X020919Y012935D01*
X020850Y012770D01*
X020850Y012591D01*
X020919Y012425D01*
X021045Y012299D01*
X021210Y012230D01*
X021390Y012230D01*
X021555Y012299D01*
X021681Y012425D01*
X021750Y012591D01*
X021750Y012770D01*
X021681Y012935D01*
X021555Y013062D01*
X021390Y013130D01*
X021185Y013120D02*
X019315Y013120D01*
X019290Y013130D02*
X019110Y013130D01*
X018945Y013062D01*
X018819Y012935D01*
X018750Y012770D01*
X018750Y012591D01*
X018819Y012425D01*
X018945Y012299D01*
X019110Y012230D01*
X019290Y012230D01*
X019455Y012299D01*
X019581Y012425D01*
X019650Y012591D01*
X019650Y012770D01*
X019581Y012935D01*
X019455Y013062D01*
X019290Y013130D01*
X019085Y013120D02*
X016807Y013120D01*
X016833Y013021D02*
X018905Y013021D01*
X018813Y012923D02*
X016859Y012923D01*
X016886Y012824D02*
X018773Y012824D01*
X018750Y012726D02*
X016890Y012726D01*
X016890Y012627D02*
X018750Y012627D01*
X018776Y012529D02*
X016890Y012529D01*
X016890Y012430D02*
X018816Y012430D01*
X018912Y012332D02*
X016863Y012332D01*
X016837Y012233D02*
X019103Y012233D01*
X019110Y012130D02*
X018945Y012062D01*
X018819Y011935D01*
X018750Y011770D01*
X018750Y011591D01*
X018819Y011425D01*
X018945Y011299D01*
X019110Y011230D01*
X019290Y011230D01*
X019455Y011299D01*
X019581Y011425D01*
X019650Y011591D01*
X019650Y011770D01*
X019581Y011935D01*
X019455Y012062D01*
X019290Y012130D01*
X019110Y012130D01*
X018920Y012036D02*
X016775Y012036D01*
X016811Y012135D02*
X022297Y012135D01*
X022297Y012233D02*
X021397Y012233D01*
X021390Y012130D02*
X021210Y012130D01*
X021045Y012062D01*
X020919Y011935D01*
X020850Y011770D01*
X020850Y011591D01*
X020919Y011425D01*
X021045Y011299D01*
X021210Y011230D01*
X021390Y011230D01*
X021555Y011299D01*
X021681Y011425D01*
X021750Y011591D01*
X021750Y011770D01*
X021681Y011935D01*
X021555Y012062D01*
X021390Y012130D01*
X021580Y012036D02*
X022297Y012036D01*
X022297Y011938D02*
X021679Y011938D01*
X021721Y011839D02*
X022297Y011839D01*
X022297Y011741D02*
X021750Y011741D01*
X021750Y011642D02*
X022297Y011642D01*
X022297Y011544D02*
X021731Y011544D01*
X021690Y011445D02*
X022297Y011445D01*
X022297Y011347D02*
X021603Y011347D01*
X021167Y011248D02*
X019333Y011248D01*
X019503Y011347D02*
X020997Y011347D01*
X020910Y011445D02*
X019590Y011445D01*
X019631Y011544D02*
X020869Y011544D01*
X020850Y011642D02*
X019650Y011642D01*
X019650Y011741D02*
X020850Y011741D01*
X020879Y011839D02*
X019621Y011839D01*
X019579Y011938D02*
X020921Y011938D01*
X021020Y012036D02*
X019480Y012036D01*
X019297Y012233D02*
X021203Y012233D01*
X021012Y012332D02*
X019488Y012332D01*
X019584Y012430D02*
X020916Y012430D01*
X020876Y012529D02*
X019624Y012529D01*
X019650Y012627D02*
X020850Y012627D01*
X020850Y012726D02*
X019650Y012726D01*
X019627Y012824D02*
X020873Y012824D01*
X020913Y012923D02*
X019587Y012923D01*
X019495Y013021D02*
X021005Y013021D01*
X021027Y013317D02*
X019473Y013317D01*
X019571Y013415D02*
X020929Y013415D01*
X020882Y013514D02*
X019618Y013514D01*
X019650Y013612D02*
X020850Y013612D01*
X020850Y013711D02*
X019650Y013711D01*
X019634Y013809D02*
X020007Y013809D01*
X019948Y013908D02*
X019593Y013908D01*
X020223Y014180D02*
X018900Y014180D01*
X018600Y013880D01*
X018600Y013580D01*
X018770Y013317D02*
X018927Y013317D01*
X018739Y014302D02*
X006858Y014302D01*
X006956Y014400D02*
X018844Y014400D01*
X018788Y014499D02*
X007012Y014499D01*
X007050Y014597D02*
X018750Y014597D01*
X018750Y014696D02*
X007050Y014696D01*
X007040Y014794D02*
X018760Y014794D01*
X018801Y014893D02*
X006999Y014893D01*
X006925Y014991D02*
X018875Y014991D01*
X019013Y015090D02*
X006787Y015090D01*
X006826Y015287D02*
X018974Y015287D01*
X018945Y015299D02*
X019110Y015230D01*
X019290Y015230D01*
X019455Y015299D01*
X019581Y015425D01*
X019592Y015450D01*
X020908Y015450D01*
X020919Y015425D01*
X021045Y015299D01*
X021210Y015230D01*
X021390Y015230D01*
X021555Y015299D01*
X021681Y015425D01*
X021750Y015591D01*
X021750Y015770D01*
X021681Y015935D01*
X021555Y016062D01*
X021390Y016130D01*
X021210Y016130D01*
X021045Y016062D01*
X020919Y015935D01*
X020908Y015910D01*
X019592Y015910D01*
X019581Y015935D01*
X019455Y016062D01*
X019290Y016130D01*
X019110Y016130D01*
X018945Y016062D01*
X018819Y015935D01*
X018750Y015770D01*
X018750Y015591D01*
X018819Y015425D01*
X018945Y015299D01*
X018859Y015385D02*
X006941Y015385D01*
X007006Y015484D02*
X018794Y015484D01*
X018754Y015582D02*
X007046Y015582D01*
X007050Y015681D02*
X018750Y015681D01*
X018754Y015779D02*
X007046Y015779D01*
X007005Y015878D02*
X018795Y015878D01*
X018860Y015976D02*
X006940Y015976D01*
X006823Y016075D02*
X018977Y016075D01*
X019010Y016272D02*
X006790Y016272D01*
X006855Y016299D02*
X006981Y016425D01*
X007050Y016591D01*
X007050Y016770D01*
X006981Y016935D01*
X006855Y017062D01*
X006690Y017130D01*
X006510Y017130D01*
X006345Y017062D01*
X006219Y016935D01*
X006150Y016770D01*
X006150Y016591D01*
X006219Y016425D01*
X006345Y016299D01*
X006510Y016230D01*
X006690Y016230D01*
X006855Y016299D01*
X006926Y016370D02*
X018874Y016370D01*
X018819Y016425D02*
X018945Y016299D01*
X019110Y016230D01*
X019290Y016230D01*
X019455Y016299D01*
X019581Y016425D01*
X019592Y016450D01*
X020908Y016450D01*
X020919Y016425D01*
X021045Y016299D01*
X021210Y016230D01*
X021390Y016230D01*
X021555Y016299D01*
X021681Y016425D01*
X021750Y016591D01*
X021750Y016770D01*
X021681Y016935D01*
X021555Y017062D01*
X021390Y017130D01*
X021210Y017130D01*
X021045Y017062D01*
X020919Y016935D01*
X020908Y016910D01*
X019592Y016910D01*
X019581Y016935D01*
X019455Y017062D01*
X019290Y017130D01*
X019110Y017130D01*
X018945Y017062D01*
X018819Y016935D01*
X018750Y016770D01*
X018750Y016591D01*
X018819Y016425D01*
X018801Y016469D02*
X006999Y016469D01*
X007040Y016567D02*
X018760Y016567D01*
X018750Y016666D02*
X007050Y016666D01*
X007050Y016764D02*
X018750Y016764D01*
X018789Y016863D02*
X007011Y016863D01*
X006955Y016961D02*
X018845Y016961D01*
X018943Y017060D02*
X006857Y017060D01*
X006754Y017257D02*
X019046Y017257D01*
X019110Y017230D02*
X019290Y017230D01*
X019455Y017299D01*
X019581Y017425D01*
X019650Y017591D01*
X019650Y017770D01*
X019581Y017935D01*
X019455Y018062D01*
X019290Y018130D01*
X019110Y018130D01*
X018945Y018062D01*
X018819Y017935D01*
X018750Y017770D01*
X018750Y017591D01*
X018819Y017425D01*
X018945Y017299D01*
X019110Y017230D01*
X019354Y017257D02*
X021146Y017257D01*
X021210Y017230D02*
X021045Y017299D01*
X020919Y017425D01*
X020850Y017591D01*
X020850Y017770D01*
X020919Y017935D01*
X021045Y018062D01*
X021210Y018130D01*
X021390Y018130D01*
X021555Y018062D01*
X021681Y017935D01*
X021750Y017770D01*
X021750Y017591D01*
X021681Y017425D01*
X021555Y017299D01*
X021390Y017230D01*
X021210Y017230D01*
X021043Y017060D02*
X019457Y017060D01*
X019555Y016961D02*
X020945Y016961D01*
X020989Y017355D02*
X019511Y017355D01*
X019593Y017454D02*
X020907Y017454D01*
X020866Y017552D02*
X019634Y017552D01*
X019650Y017651D02*
X020850Y017651D01*
X020850Y017749D02*
X019650Y017749D01*
X019618Y017848D02*
X020882Y017848D01*
X020930Y017946D02*
X019570Y017946D01*
X019472Y018045D02*
X021028Y018045D01*
X021127Y018263D02*
X021195Y018241D01*
X021250Y018233D01*
X021250Y018630D01*
X021350Y018630D01*
X021350Y018233D01*
X021405Y018241D01*
X021473Y018263D01*
X021536Y018296D01*
X021593Y018337D01*
X021643Y018387D01*
X021685Y018445D01*
X021717Y018508D01*
X021739Y018575D01*
X021748Y018630D01*
X021350Y018630D01*
X021350Y018730D01*
X021748Y018730D01*
X021739Y018786D01*
X021717Y018853D01*
X021685Y018916D01*
X021643Y018974D01*
X021593Y019024D01*
X021536Y019065D01*
X021473Y019097D01*
X021405Y019119D01*
X021350Y019128D01*
X021350Y018730D01*
X021250Y018730D01*
X021250Y018630D01*
X020852Y018630D01*
X020861Y018575D01*
X020883Y018508D01*
X020915Y018445D01*
X020957Y018387D01*
X021007Y018337D01*
X021064Y018296D01*
X021127Y018263D01*
X021193Y018242D02*
X019317Y018242D01*
X019290Y018230D02*
X019455Y018299D01*
X019581Y018425D01*
X019650Y018591D01*
X019650Y018770D01*
X019581Y018935D01*
X019455Y019062D01*
X019290Y019130D01*
X019110Y019130D01*
X018945Y019062D01*
X018819Y018935D01*
X018750Y018770D01*
X018750Y018591D01*
X018819Y018425D01*
X018945Y018299D01*
X019110Y018230D01*
X019290Y018230D01*
X019083Y018242D02*
X006717Y018242D01*
X006896Y018340D02*
X018904Y018340D01*
X018813Y018439D02*
X006987Y018439D01*
X007028Y018537D02*
X018772Y018537D01*
X018750Y018636D02*
X007050Y018636D01*
X007050Y018734D02*
X018750Y018734D01*
X018776Y018833D02*
X007024Y018833D01*
X006983Y018931D02*
X018817Y018931D01*
X018913Y019030D02*
X006887Y019030D01*
X006694Y019128D02*
X019106Y019128D01*
X019110Y019230D02*
X019290Y019230D01*
X019455Y019299D01*
X019581Y019425D01*
X019650Y019591D01*
X019650Y019770D01*
X019581Y019935D01*
X019455Y020062D01*
X019290Y020130D01*
X019110Y020130D01*
X018945Y020062D01*
X018819Y019935D01*
X018750Y019770D01*
X018750Y019591D01*
X018819Y019425D01*
X018945Y019299D01*
X019110Y019230D01*
X019294Y019128D02*
X022297Y019128D01*
X022297Y019030D02*
X021584Y019030D01*
X021674Y018931D02*
X022297Y018931D01*
X022297Y018833D02*
X021724Y018833D01*
X021747Y018734D02*
X022297Y018734D01*
X022297Y018636D02*
X021350Y018636D01*
X021350Y018734D02*
X021250Y018734D01*
X021250Y018730D02*
X021250Y019128D01*
X021195Y019119D01*
X021127Y019097D01*
X021064Y019065D01*
X021007Y019024D01*
X020957Y018974D01*
X020915Y018916D01*
X020883Y018853D01*
X020861Y018786D01*
X020852Y018730D01*
X021250Y018730D01*
X021250Y018636D02*
X019650Y018636D01*
X019650Y018734D02*
X020853Y018734D01*
X020876Y018833D02*
X019624Y018833D01*
X019583Y018931D02*
X020926Y018931D01*
X021016Y019030D02*
X019487Y019030D01*
X019481Y019325D02*
X022297Y019325D01*
X022297Y019227D02*
X006336Y019227D01*
X006364Y019296D02*
X006427Y019263D01*
X006495Y019241D01*
X006550Y019233D01*
X006550Y019630D01*
X006650Y019630D01*
X006650Y019233D01*
X006705Y019241D01*
X006773Y019263D01*
X006836Y019296D01*
X006893Y019337D01*
X006943Y019387D01*
X006985Y019445D01*
X007017Y019508D01*
X007039Y019575D01*
X007048Y019630D01*
X006650Y019630D01*
X006650Y019730D01*
X007048Y019730D01*
X007039Y019786D01*
X007017Y019853D01*
X006985Y019916D01*
X006943Y019974D01*
X006893Y020024D01*
X006836Y020065D01*
X006773Y020097D01*
X006705Y020119D01*
X006650Y020128D01*
X006650Y019730D01*
X006550Y019730D01*
X006550Y019630D01*
X006152Y019630D01*
X006161Y019575D01*
X006183Y019508D01*
X006215Y019445D01*
X006257Y019387D01*
X006307Y019337D01*
X006364Y019296D01*
X006323Y019325D02*
X006238Y019325D01*
X006230Y019424D02*
X006139Y019424D01*
X006100Y019522D02*
X006178Y019522D01*
X006154Y019621D02*
X006100Y019621D01*
X006100Y019719D02*
X006550Y019719D01*
X006550Y019730D02*
X006152Y019730D01*
X006161Y019786D01*
X006183Y019853D01*
X006215Y019916D01*
X006257Y019974D01*
X006307Y020024D01*
X006364Y020065D01*
X006427Y020097D01*
X006495Y020119D01*
X006550Y020128D01*
X006550Y019730D01*
X006550Y019818D02*
X006650Y019818D01*
X006650Y019916D02*
X006550Y019916D01*
X006550Y020015D02*
X006650Y020015D01*
X006650Y020113D02*
X006550Y020113D01*
X006477Y020113D02*
X006100Y020113D01*
X006100Y020015D02*
X006298Y020015D01*
X006215Y019916D02*
X006100Y019916D01*
X006100Y019818D02*
X006172Y019818D01*
X006100Y020212D02*
X020760Y020212D01*
X020725Y020297D02*
X020797Y020122D01*
X020931Y019989D01*
X021106Y019917D01*
X021294Y019917D01*
X021469Y019989D01*
X021603Y020122D01*
X021675Y020297D01*
X021675Y020486D01*
X021603Y020660D01*
X021469Y020794D01*
X021294Y020866D01*
X021106Y020866D01*
X020931Y020794D01*
X020797Y020660D01*
X020725Y020486D01*
X020725Y020297D01*
X020725Y020310D02*
X019466Y020310D01*
X019455Y020299D02*
X019581Y020425D01*
X019650Y020591D01*
X019650Y020770D01*
X019581Y020935D01*
X019455Y021062D01*
X019290Y021130D01*
X019110Y021130D01*
X018945Y021062D01*
X018819Y020935D01*
X018750Y020770D01*
X018750Y020591D01*
X018819Y020425D01*
X018945Y020299D01*
X019110Y020230D01*
X019290Y020230D01*
X019455Y020299D01*
X019565Y020409D02*
X020725Y020409D01*
X020734Y020507D02*
X019615Y020507D01*
X019650Y020606D02*
X020775Y020606D01*
X020842Y020704D02*
X019650Y020704D01*
X019636Y020803D02*
X020953Y020803D01*
X021089Y021306D02*
X021018Y021329D01*
X020951Y021363D01*
X020891Y021407D01*
X020838Y021460D01*
X020794Y021521D01*
X020760Y021587D01*
X020737Y021658D01*
X020727Y021719D01*
X021150Y021719D01*
X021250Y021719D01*
X021250Y021297D01*
X021311Y021306D01*
X021382Y021329D01*
X021449Y021363D01*
X021509Y021407D01*
X021562Y021460D01*
X021606Y021521D01*
X021640Y021587D01*
X021663Y021658D01*
X021673Y021719D01*
X021250Y021719D01*
X021250Y021819D01*
X021673Y021819D01*
X021663Y021881D01*
X021640Y021952D01*
X021606Y022018D01*
X021562Y022079D01*
X021509Y022132D01*
X021449Y022175D01*
X021382Y022209D01*
X021311Y022232D01*
X021250Y022242D01*
X021250Y021819D01*
X021150Y021819D01*
X021150Y021719D01*
X021150Y021297D01*
X021089Y021306D01*
X021150Y021394D02*
X021250Y021394D01*
X021250Y021492D02*
X021150Y021492D01*
X021150Y021591D02*
X021250Y021591D01*
X021250Y021689D02*
X021150Y021689D01*
X021150Y021788D02*
X019643Y021788D01*
X019650Y021770D02*
X019581Y021935D01*
X019455Y022062D01*
X019290Y022130D01*
X019110Y022130D01*
X018945Y022062D01*
X018819Y021935D01*
X018750Y021770D01*
X018750Y021591D01*
X007050Y021591D01*
X006981Y021425D01*
X006855Y021299D01*
X006690Y021230D01*
X006510Y021230D01*
X006345Y021299D01*
X006219Y021425D01*
X006150Y021591D01*
X006100Y021591D01*
X006150Y021591D02*
X006150Y021770D01*
X006219Y021935D01*
X006345Y022062D01*
X006510Y022130D01*
X006690Y022130D01*
X006855Y022062D01*
X006981Y021935D01*
X007050Y021770D01*
X007050Y021591D01*
X007050Y021689D02*
X018750Y021689D01*
X018750Y021591D02*
X018819Y021425D01*
X018945Y021299D01*
X019110Y021230D01*
X019290Y021230D01*
X019455Y021299D01*
X019581Y021425D01*
X019650Y021591D01*
X020759Y021591D01*
X020732Y021689D02*
X019650Y021689D01*
X019650Y021770D02*
X019650Y021591D01*
X019609Y021492D02*
X020814Y021492D01*
X020909Y021394D02*
X019550Y021394D01*
X019447Y021295D02*
X022297Y021295D01*
X022297Y021197D02*
X006100Y021197D01*
X006100Y021295D02*
X006353Y021295D01*
X006250Y021394D02*
X006100Y021394D01*
X006100Y021492D02*
X006191Y021492D01*
X006150Y021689D02*
X006100Y021689D01*
X006100Y021788D02*
X006157Y021788D01*
X006198Y021886D02*
X006100Y021886D01*
X006100Y021985D02*
X006268Y021985D01*
X006397Y022083D02*
X006100Y022083D01*
X006100Y022182D02*
X020964Y022182D01*
X020951Y022175D02*
X020891Y022132D01*
X020838Y022079D01*
X020794Y022018D01*
X020760Y021952D01*
X020737Y021881D01*
X020727Y021819D01*
X021150Y021819D01*
X021150Y022242D01*
X021089Y022232D01*
X021018Y022209D01*
X020951Y022175D01*
X020843Y022083D02*
X019403Y022083D01*
X019532Y021985D02*
X020777Y021985D01*
X020739Y021886D02*
X019602Y021886D01*
X019406Y022280D02*
X022297Y022280D01*
X022297Y022182D02*
X021436Y022182D01*
X021557Y022083D02*
X022297Y022083D01*
X022297Y021985D02*
X021623Y021985D01*
X021661Y021886D02*
X022297Y021886D01*
X022297Y021788D02*
X021250Y021788D01*
X021250Y021886D02*
X021150Y021886D01*
X021150Y021985D02*
X021250Y021985D01*
X021250Y022083D02*
X021150Y022083D01*
X021150Y022182D02*
X021250Y022182D01*
X021231Y022773D02*
X021294Y022773D01*
X021215Y022773D02*
X019641Y022773D01*
X019639Y022786D02*
X019617Y022853D01*
X019585Y022916D01*
X019543Y022974D01*
X019493Y023024D01*
X019436Y023065D01*
X019373Y023097D01*
X019305Y023119D01*
X019250Y023128D01*
X019250Y022730D01*
X019648Y022730D01*
X019639Y022786D01*
X019608Y022871D02*
X020844Y022871D01*
X020659Y022970D02*
X019546Y022970D01*
X019430Y023068D02*
X020519Y023068D01*
X020420Y023167D02*
X006100Y023167D01*
X006100Y023265D02*
X020324Y023265D01*
X020254Y023364D02*
X006100Y023364D01*
X006100Y023462D02*
X020201Y023462D01*
X020147Y023561D02*
X006100Y023561D01*
X006100Y023659D02*
X020113Y023659D01*
X020076Y023758D02*
X006100Y023758D01*
X006100Y023856D02*
X020054Y023856D01*
X020038Y023955D02*
X006100Y023955D01*
X006100Y024053D02*
X020035Y024053D01*
X020032Y024152D02*
X006101Y024152D01*
X006108Y024250D02*
X020035Y024250D01*
X020035Y024349D02*
X006085Y024349D01*
X006019Y024447D02*
X020035Y024447D01*
X020035Y024546D02*
X003012Y024546D01*
X003012Y024644D02*
X020035Y024644D01*
X020035Y024743D02*
X003012Y024743D01*
X003012Y024841D02*
X020035Y024841D01*
X020035Y024940D02*
X003012Y024940D01*
X003012Y024447D02*
X003731Y024447D01*
X003745Y024462D02*
X003619Y024335D01*
X003550Y024170D01*
X003550Y023991D01*
X003619Y023825D01*
X003745Y023699D01*
X003910Y023630D01*
X004090Y023630D01*
X004255Y023699D01*
X004381Y023825D01*
X004450Y023991D01*
X004450Y024170D01*
X004381Y024335D01*
X004255Y024462D01*
X004090Y024530D01*
X003910Y024530D01*
X003745Y024462D01*
X003632Y024349D02*
X003012Y024349D01*
X003012Y024250D02*
X003583Y024250D01*
X003550Y024152D02*
X003015Y024152D01*
X003012Y024053D02*
X003550Y024053D01*
X003565Y023955D02*
X003009Y023955D01*
X002993Y023856D02*
X003606Y023856D01*
X003686Y023758D02*
X002971Y023758D01*
X002935Y023659D02*
X003840Y023659D01*
X004160Y023659D02*
X004840Y023659D01*
X004910Y023630D02*
X005090Y023630D01*
X005255Y023699D01*
X005381Y023825D01*
X005450Y023991D01*
X005450Y024170D01*
X005381Y024335D01*
X005255Y024462D01*
X005090Y024530D01*
X004910Y024530D01*
X004745Y024462D01*
X004619Y024335D01*
X004550Y024170D01*
X004550Y023991D01*
X004619Y023825D01*
X004745Y023699D01*
X004910Y023630D01*
X005160Y023659D02*
X005700Y023659D01*
X005700Y023561D02*
X002900Y023561D01*
X002847Y023462D02*
X005700Y023462D01*
X005700Y023364D02*
X002793Y023364D01*
X002724Y023265D02*
X005700Y023265D01*
X005700Y023167D02*
X002627Y023167D01*
X004314Y023758D02*
X004686Y023758D01*
X004606Y023856D02*
X004394Y023856D01*
X004435Y023955D02*
X004565Y023955D01*
X004550Y024053D02*
X004450Y024053D01*
X004450Y024152D02*
X004550Y024152D01*
X004583Y024250D02*
X004417Y024250D01*
X004368Y024349D02*
X004632Y024349D01*
X004731Y024447D02*
X004269Y024447D01*
X005269Y024447D02*
X005581Y024447D01*
X005515Y024349D02*
X005368Y024349D01*
X005417Y024250D02*
X005492Y024250D01*
X005499Y024152D02*
X005450Y024152D01*
X005450Y024053D02*
X005541Y024053D01*
X005435Y023955D02*
X005659Y023955D01*
X005700Y023856D02*
X005394Y023856D01*
X005314Y023758D02*
X005700Y023758D01*
X005900Y024130D02*
X005800Y024230D01*
X005900Y024130D02*
X005900Y019380D01*
X006600Y018680D01*
X006304Y018340D02*
X006223Y018340D01*
X006213Y018439D02*
X006124Y018439D01*
X006172Y018537D02*
X005850Y018537D01*
X005850Y018636D02*
X006150Y018636D01*
X006150Y018734D02*
X005850Y018734D01*
X005850Y018833D02*
X006165Y018833D01*
X006066Y018931D02*
X005850Y018931D01*
X005850Y019030D02*
X005968Y019030D01*
X005869Y019128D02*
X005850Y019128D01*
X006435Y019128D02*
X006506Y019128D01*
X006550Y019325D02*
X006650Y019325D01*
X006650Y019424D02*
X006550Y019424D01*
X006550Y019522D02*
X006650Y019522D01*
X006650Y019621D02*
X006550Y019621D01*
X006650Y019719D02*
X018750Y019719D01*
X018750Y019621D02*
X007046Y019621D01*
X007022Y019522D02*
X018778Y019522D01*
X018820Y019424D02*
X006970Y019424D01*
X006877Y019325D02*
X018919Y019325D01*
X018770Y019818D02*
X007028Y019818D01*
X006985Y019916D02*
X018811Y019916D01*
X018898Y020015D02*
X006902Y020015D01*
X006723Y020113D02*
X019070Y020113D01*
X018934Y020310D02*
X006866Y020310D01*
X006855Y020299D02*
X006981Y020425D01*
X007050Y020591D01*
X007050Y020770D01*
X006981Y020935D01*
X006855Y021062D01*
X006690Y021130D01*
X006510Y021130D01*
X006345Y021062D01*
X006219Y020935D01*
X006150Y020770D01*
X006150Y020591D01*
X006219Y020425D01*
X006345Y020299D01*
X006510Y020230D01*
X006690Y020230D01*
X006855Y020299D01*
X006965Y020409D02*
X018835Y020409D01*
X018785Y020507D02*
X007015Y020507D01*
X007050Y020606D02*
X018750Y020606D01*
X018750Y020704D02*
X007050Y020704D01*
X007036Y020803D02*
X018764Y020803D01*
X018804Y020901D02*
X006996Y020901D01*
X006917Y021000D02*
X018883Y021000D01*
X019033Y021098D02*
X006767Y021098D01*
X006847Y021295D02*
X018953Y021295D01*
X018850Y021394D02*
X006950Y021394D01*
X007009Y021492D02*
X018791Y021492D01*
X018757Y021788D02*
X007043Y021788D01*
X007002Y021886D02*
X018798Y021886D01*
X018868Y021985D02*
X006932Y021985D01*
X006803Y022083D02*
X018997Y022083D01*
X019027Y022263D02*
X019095Y022241D01*
X019150Y022233D01*
X019150Y022630D01*
X019250Y022630D01*
X019250Y022233D01*
X019305Y022241D01*
X019373Y022263D01*
X019436Y022296D01*
X019493Y022337D01*
X019543Y022387D01*
X019585Y022445D01*
X019617Y022508D01*
X019639Y022575D01*
X019648Y022630D01*
X019250Y022630D01*
X019250Y022730D01*
X019150Y022730D01*
X019150Y022630D01*
X018752Y022630D01*
X018761Y022575D01*
X018783Y022508D01*
X018815Y022445D01*
X018857Y022387D01*
X018907Y022337D01*
X018964Y022296D01*
X019027Y022263D01*
X018994Y022280D02*
X006806Y022280D01*
X006836Y022296D02*
X006893Y022337D01*
X006943Y022387D01*
X006985Y022445D01*
X007017Y022508D01*
X007039Y022575D01*
X007048Y022630D01*
X006650Y022630D01*
X006650Y022233D01*
X006705Y022241D01*
X006773Y022263D01*
X006836Y022296D01*
X006935Y022379D02*
X018865Y022379D01*
X018798Y022477D02*
X007002Y022477D01*
X007039Y022576D02*
X018761Y022576D01*
X018752Y022730D02*
X019150Y022730D01*
X019150Y023128D01*
X019095Y023119D01*
X019027Y023097D01*
X018964Y023065D01*
X018907Y023024D01*
X018857Y022974D01*
X018815Y022916D01*
X018783Y022853D01*
X018761Y022786D01*
X018752Y022730D01*
X018759Y022773D02*
X007041Y022773D01*
X007039Y022786D02*
X007017Y022853D01*
X006985Y022916D01*
X006943Y022974D01*
X006893Y023024D01*
X006836Y023065D01*
X006773Y023097D01*
X006705Y023119D01*
X006650Y023128D01*
X006650Y022730D01*
X007048Y022730D01*
X007039Y022786D01*
X007008Y022871D02*
X018792Y022871D01*
X018854Y022970D02*
X006946Y022970D01*
X006830Y023068D02*
X018970Y023068D01*
X019150Y023068D02*
X019250Y023068D01*
X019250Y022970D02*
X019150Y022970D01*
X019150Y022871D02*
X019250Y022871D01*
X019250Y022773D02*
X019150Y022773D01*
X019150Y022674D02*
X006650Y022674D01*
X006650Y022630D02*
X006650Y022730D01*
X006550Y022730D01*
X006550Y022630D01*
X006650Y022630D01*
X006650Y022576D02*
X006550Y022576D01*
X006550Y022630D02*
X006550Y022233D01*
X006495Y022241D01*
X006427Y022263D01*
X006364Y022296D01*
X006307Y022337D01*
X006257Y022387D01*
X006215Y022445D01*
X006183Y022508D01*
X006161Y022575D01*
X006152Y022630D01*
X006550Y022630D01*
X006550Y022674D02*
X006100Y022674D01*
X006152Y022730D02*
X006550Y022730D01*
X006550Y023128D01*
X006495Y023119D01*
X006427Y023097D01*
X006364Y023065D01*
X006307Y023024D01*
X006257Y022974D01*
X006215Y022916D01*
X006183Y022853D01*
X006161Y022786D01*
X006152Y022730D01*
X006159Y022773D02*
X006100Y022773D01*
X006100Y022871D02*
X006192Y022871D01*
X006254Y022970D02*
X006100Y022970D01*
X006100Y023068D02*
X006370Y023068D01*
X006550Y023068D02*
X006650Y023068D01*
X006650Y022970D02*
X006550Y022970D01*
X006550Y022871D02*
X006650Y022871D01*
X006650Y022773D02*
X006550Y022773D01*
X006550Y022477D02*
X006650Y022477D01*
X006650Y022379D02*
X006550Y022379D01*
X006550Y022280D02*
X006650Y022280D01*
X006394Y022280D02*
X006100Y022280D01*
X006100Y022379D02*
X006265Y022379D01*
X006198Y022477D02*
X006100Y022477D01*
X006100Y022576D02*
X006161Y022576D01*
X005700Y023068D02*
X005679Y023068D01*
X006100Y021098D02*
X006433Y021098D01*
X006283Y021000D02*
X006100Y021000D01*
X006100Y020901D02*
X006204Y020901D01*
X006164Y020803D02*
X006100Y020803D01*
X006100Y020704D02*
X006150Y020704D01*
X006150Y020606D02*
X006100Y020606D01*
X006100Y020507D02*
X006185Y020507D01*
X006235Y020409D02*
X006100Y020409D01*
X006100Y020310D02*
X006334Y020310D01*
X006000Y018280D02*
X006600Y017680D01*
X006911Y017355D02*
X018889Y017355D01*
X018807Y017454D02*
X006993Y017454D01*
X007034Y017552D02*
X018766Y017552D01*
X018750Y017651D02*
X007050Y017651D01*
X007050Y017749D02*
X018750Y017749D01*
X018782Y017848D02*
X007018Y017848D01*
X006970Y017946D02*
X018830Y017946D01*
X018928Y018045D02*
X006872Y018045D01*
X006483Y018242D02*
X006321Y018242D01*
X006420Y018143D02*
X022297Y018143D01*
X022297Y018045D02*
X021572Y018045D01*
X021670Y017946D02*
X022297Y017946D01*
X022297Y017848D02*
X021718Y017848D01*
X021750Y017749D02*
X022297Y017749D01*
X022297Y017651D02*
X021750Y017651D01*
X021734Y017552D02*
X022297Y017552D01*
X022297Y017454D02*
X021693Y017454D01*
X021611Y017355D02*
X022297Y017355D01*
X022297Y017257D02*
X021454Y017257D01*
X021557Y017060D02*
X022297Y017060D01*
X022297Y017158D02*
X001000Y017158D01*
X001000Y017060D02*
X006343Y017060D01*
X006245Y016961D02*
X001000Y016961D01*
X001000Y016863D02*
X006189Y016863D01*
X006150Y016764D02*
X005723Y016764D01*
X005707Y016773D02*
X005640Y016794D01*
X005584Y016803D01*
X005584Y016408D01*
X005979Y016408D01*
X005970Y016464D01*
X005948Y016531D01*
X005917Y016593D01*
X005875Y016650D01*
X005826Y016700D01*
X005769Y016741D01*
X005707Y016773D01*
X005584Y016764D02*
X005487Y016764D01*
X005487Y016803D02*
X005432Y016794D01*
X005365Y016773D01*
X005302Y016741D01*
X005246Y016700D01*
X005196Y016650D01*
X005155Y016593D01*
X005123Y016531D01*
X005102Y016464D01*
X005093Y016408D01*
X005487Y016408D01*
X005487Y016311D01*
X005584Y016311D01*
X005584Y015917D01*
X005640Y015926D01*
X005707Y015947D01*
X005769Y015979D01*
X005826Y016020D01*
X005875Y016070D01*
X005917Y016127D01*
X005948Y016189D01*
X005970Y016256D01*
X005979Y016311D01*
X005584Y016311D01*
X005584Y016408D01*
X005487Y016408D01*
X005487Y016803D01*
X005487Y016666D02*
X005584Y016666D01*
X005584Y016567D02*
X005487Y016567D01*
X005487Y016469D02*
X005584Y016469D01*
X005584Y016370D02*
X006274Y016370D01*
X006201Y016469D02*
X005969Y016469D01*
X005930Y016567D02*
X006160Y016567D01*
X006150Y016666D02*
X005860Y016666D01*
X005973Y016272D02*
X006410Y016272D01*
X006377Y016075D02*
X005879Y016075D01*
X005941Y016173D02*
X022297Y016173D01*
X022297Y016075D02*
X021523Y016075D01*
X021640Y015976D02*
X022297Y015976D01*
X022297Y015878D02*
X021705Y015878D01*
X021746Y015779D02*
X022297Y015779D01*
X022297Y015681D02*
X021750Y015681D01*
X021746Y015582D02*
X022297Y015582D01*
X022297Y015484D02*
X021706Y015484D01*
X021641Y015385D02*
X022297Y015385D01*
X022297Y015287D02*
X021526Y015287D01*
X021074Y015287D02*
X019426Y015287D01*
X019541Y015385D02*
X020959Y015385D01*
X021113Y015090D02*
X019387Y015090D01*
X019525Y014991D02*
X020975Y014991D01*
X020852Y014105D02*
X021149Y014105D01*
X020990Y014006D02*
X020852Y014006D01*
X020852Y013908D02*
X020907Y013908D01*
X020866Y013809D02*
X020793Y013809D01*
X021610Y014006D02*
X022297Y014006D01*
X022297Y013908D02*
X021693Y013908D01*
X021734Y013809D02*
X022297Y013809D01*
X022297Y013711D02*
X021750Y013711D01*
X021750Y013612D02*
X022297Y013612D01*
X022297Y013514D02*
X021718Y013514D01*
X021671Y013415D02*
X022297Y013415D01*
X022297Y013317D02*
X021573Y013317D01*
X021595Y013021D02*
X022297Y013021D01*
X022297Y012923D02*
X021687Y012923D01*
X021727Y012824D02*
X022297Y012824D01*
X022297Y012726D02*
X021750Y012726D01*
X021750Y012627D02*
X022297Y012627D01*
X022297Y012529D02*
X021724Y012529D01*
X021684Y012430D02*
X022297Y012430D01*
X022297Y012332D02*
X021588Y012332D01*
X021035Y011051D02*
X019465Y011051D01*
X019564Y010953D02*
X020936Y010953D01*
X020885Y010854D02*
X019615Y010854D01*
X019650Y010756D02*
X020850Y010756D01*
X020850Y010657D02*
X019650Y010657D01*
X019637Y010559D02*
X020863Y010559D01*
X020904Y010460D02*
X019596Y010460D01*
X019518Y010362D02*
X020982Y010362D01*
X019067Y011248D02*
X015866Y011248D01*
X016115Y011347D02*
X018897Y011347D01*
X018810Y011445D02*
X016286Y011445D01*
X016406Y011544D02*
X018769Y011544D01*
X018750Y011642D02*
X016505Y011642D01*
X016603Y011741D02*
X018750Y011741D01*
X018779Y011839D02*
X016661Y011839D01*
X016718Y011938D02*
X018821Y011938D01*
X019540Y015976D02*
X020960Y015976D01*
X021077Y016075D02*
X019423Y016075D01*
X019390Y016272D02*
X021110Y016272D01*
X020974Y016370D02*
X019526Y016370D01*
X019496Y018340D02*
X021004Y018340D01*
X020919Y018439D02*
X019587Y018439D01*
X019628Y018537D02*
X020873Y018537D01*
X021250Y018537D02*
X021350Y018537D01*
X021350Y018439D02*
X021250Y018439D01*
X021250Y018340D02*
X021350Y018340D01*
X021350Y018242D02*
X021250Y018242D01*
X021407Y018242D02*
X022297Y018242D01*
X022297Y018340D02*
X021596Y018340D01*
X021681Y018439D02*
X022297Y018439D01*
X022297Y018537D02*
X021727Y018537D01*
X021350Y018833D02*
X021250Y018833D01*
X021250Y018931D02*
X021350Y018931D01*
X021350Y019030D02*
X021250Y019030D01*
X021495Y020015D02*
X022297Y020015D01*
X022297Y020113D02*
X021593Y020113D01*
X021640Y020212D02*
X022297Y020212D01*
X022297Y020310D02*
X021675Y020310D01*
X021675Y020409D02*
X022297Y020409D01*
X022297Y020507D02*
X021666Y020507D01*
X021625Y020606D02*
X022297Y020606D01*
X022297Y020704D02*
X021558Y020704D01*
X021447Y020803D02*
X022297Y020803D01*
X022297Y020901D02*
X019596Y020901D01*
X019517Y021000D02*
X022297Y021000D01*
X022297Y021098D02*
X019367Y021098D01*
X019330Y020113D02*
X020807Y020113D01*
X020905Y020015D02*
X019502Y020015D01*
X019589Y019916D02*
X022297Y019916D01*
X022297Y019818D02*
X019630Y019818D01*
X019650Y019719D02*
X022297Y019719D01*
X022297Y019621D02*
X019650Y019621D01*
X019622Y019522D02*
X022297Y019522D01*
X022297Y019424D02*
X019580Y019424D01*
X019250Y022280D02*
X019150Y022280D01*
X019150Y022379D02*
X019250Y022379D01*
X019250Y022477D02*
X019150Y022477D01*
X019150Y022576D02*
X019250Y022576D01*
X019250Y022674D02*
X022297Y022674D01*
X022297Y022576D02*
X019639Y022576D01*
X019602Y022477D02*
X022297Y022477D01*
X022297Y022379D02*
X019535Y022379D01*
X021491Y021394D02*
X022297Y021394D01*
X022297Y021492D02*
X021586Y021492D01*
X021641Y021591D02*
X022297Y021591D01*
X022297Y021689D02*
X021668Y021689D01*
X021655Y016961D02*
X022297Y016961D01*
X022297Y016863D02*
X021711Y016863D01*
X021750Y016764D02*
X022297Y016764D01*
X022297Y016666D02*
X021750Y016666D01*
X021740Y016567D02*
X022297Y016567D01*
X022297Y016469D02*
X021699Y016469D01*
X021626Y016370D02*
X022297Y016370D01*
X022297Y016272D02*
X021490Y016272D01*
X006446Y017257D02*
X001000Y017257D01*
X001000Y017355D02*
X006289Y017355D01*
X006207Y017454D02*
X005560Y017454D01*
X005658Y017552D02*
X006166Y017552D01*
X006150Y017651D02*
X005713Y017651D01*
X005750Y017749D02*
X006150Y017749D01*
X006150Y017848D02*
X005750Y017848D01*
X005739Y017946D02*
X006051Y017946D01*
X005953Y018045D02*
X005698Y018045D01*
X006000Y018280D02*
X001400Y018280D01*
X000800Y017680D01*
X000800Y003780D01*
X000802Y003721D01*
X000808Y003663D01*
X000817Y003604D01*
X000831Y003547D01*
X000848Y003491D01*
X000869Y003436D01*
X000893Y003382D01*
X000921Y003330D01*
X000952Y003280D01*
X000986Y003232D01*
X001023Y003187D01*
X001064Y003144D01*
X001107Y003103D01*
X001152Y003066D01*
X001200Y003032D01*
X001250Y003001D01*
X001302Y002973D01*
X001356Y002949D01*
X001411Y002928D01*
X001467Y002911D01*
X001524Y002897D01*
X001583Y002888D01*
X001641Y002882D01*
X001700Y002880D01*
X001800Y002880D01*
X002000Y003080D01*
X001947Y005437D02*
X002050Y005437D01*
X002077Y005535D02*
X001923Y005535D01*
X001872Y005634D02*
X002118Y005634D01*
X002216Y005732D02*
X001781Y005732D01*
X001200Y006717D02*
X001201Y006717D01*
X001200Y006816D02*
X001376Y006816D01*
X001263Y014991D02*
X001200Y014991D01*
X001200Y015779D02*
X001287Y015779D01*
X001200Y015878D02*
X006195Y015878D01*
X006260Y015976D02*
X005764Y015976D01*
X005584Y015976D02*
X005487Y015976D01*
X005487Y015917D02*
X005487Y016311D01*
X005093Y016311D01*
X005102Y016256D01*
X005123Y016189D01*
X005155Y016127D01*
X005196Y016070D01*
X005246Y016020D01*
X005302Y015979D01*
X005365Y015947D01*
X005432Y015926D01*
X005487Y015917D01*
X005487Y016075D02*
X005584Y016075D01*
X005584Y016173D02*
X005487Y016173D01*
X005487Y016272D02*
X005584Y016272D01*
X005487Y016370D02*
X004209Y016370D01*
X004209Y016272D02*
X005099Y016272D01*
X005131Y016173D02*
X004169Y016173D01*
X004109Y016075D02*
X005192Y016075D01*
X005308Y015976D02*
X004002Y015976D01*
X004201Y016469D02*
X005103Y016469D01*
X005142Y016567D02*
X004160Y016567D01*
X004088Y016666D02*
X005212Y016666D01*
X005349Y016764D02*
X003951Y016764D01*
X003577Y016764D02*
X001000Y016764D01*
X001000Y016666D02*
X003440Y016666D01*
X003368Y016567D02*
X001000Y016567D01*
X001000Y016469D02*
X001006Y016469D01*
X001000Y017454D02*
X004040Y017454D01*
X003942Y017552D02*
X001000Y017552D01*
X001053Y017651D02*
X003887Y017651D01*
X003850Y017749D02*
X001152Y017749D01*
X001250Y017848D02*
X003850Y017848D01*
X003861Y017946D02*
X001349Y017946D01*
X001447Y018045D02*
X003902Y018045D01*
X004560Y017454D02*
X005040Y017454D01*
X004942Y017552D02*
X004658Y017552D01*
X004713Y017651D02*
X004887Y017651D01*
X004850Y017749D02*
X004750Y017749D01*
X004750Y017848D02*
X004850Y017848D01*
X004861Y017946D02*
X004739Y017946D01*
X004698Y018045D02*
X004902Y018045D01*
D24*
X003650Y017930D03*
X005550Y012430D03*
X005550Y011430D03*
X006050Y009830D03*
X007100Y012380D03*
X009250Y009180D03*
X010100Y008230D03*
X008900Y005880D03*
X008900Y003080D03*
X004900Y006480D03*
X004350Y006830D03*
X003850Y004080D03*
X002000Y003080D03*
X009600Y012480D03*
X009800Y011980D03*
X010300Y012380D03*
X010500Y013080D03*
X012950Y008780D03*
X016500Y016880D03*
X017000Y016880D03*
X017500Y016880D03*
X017500Y017380D03*
X017500Y017880D03*
X017000Y017880D03*
X017000Y017380D03*
X016500Y017380D03*
X016500Y017880D03*
X018000Y017880D03*
X018000Y017380D03*
X018000Y016880D03*
X018500Y016880D03*
X018500Y017380D03*
X018500Y017880D03*
X017900Y021130D03*
X017400Y021130D03*
X016900Y021130D03*
X016400Y021130D03*
X015900Y021130D03*
X015400Y021130D03*
X014900Y021130D03*
X014000Y021920D03*
X014000Y022420D03*
X014000Y022920D03*
X014000Y023420D03*
X014000Y023920D03*
X013500Y023920D03*
X013000Y023920D03*
X012500Y023920D03*
X012000Y023920D03*
X012000Y024420D03*
X012000Y024920D03*
X012500Y024920D03*
X012500Y024420D03*
X013000Y024420D03*
X013000Y024920D03*
X013500Y024920D03*
X013500Y024420D03*
X014000Y024420D03*
X014000Y024920D03*
X014500Y024920D03*
X015000Y024920D03*
X015500Y024920D03*
X016100Y024920D03*
X016700Y024920D03*
X017300Y024920D03*
X017800Y024920D03*
X018300Y024920D03*
X018800Y024920D03*
X018800Y024420D03*
X018800Y023920D03*
X018800Y023420D03*
X019300Y023420D03*
X019300Y023920D03*
X019800Y023920D03*
X019800Y023420D03*
X019800Y022920D03*
X019800Y022420D03*
X020300Y022420D03*
X020300Y021920D03*
X020800Y022420D03*
X020300Y022920D03*
X019800Y024420D03*
X019800Y024920D03*
X019300Y024920D03*
X019300Y024420D03*
X018600Y013580D03*
X017950Y013130D03*
X017600Y009480D03*
X013500Y021920D03*
X013000Y021920D03*
X012500Y021920D03*
X012000Y021920D03*
X011500Y021920D03*
X011500Y022420D03*
X011500Y022920D03*
X011500Y023420D03*
X011500Y023920D03*
X011500Y024420D03*
X011500Y024920D03*
X010200Y024180D03*
X010200Y023580D03*
X010200Y022980D03*
X009700Y022380D03*
X009000Y022380D03*
X008500Y022980D03*
X008500Y023580D03*
X008500Y024180D03*
X009000Y024780D03*
X009700Y024780D03*
X005800Y024230D03*
D25*
X019200Y016680D02*
X021300Y016680D01*
X021300Y015680D02*
X019200Y015680D01*
X019200Y014680D02*
X020577Y014680D01*
X021300Y014680D01*
X021300Y007680D02*
X021600Y007380D01*
X022050Y007380D01*
X022050Y006980D02*
X022050Y006430D01*
X021300Y005680D01*
M02*
