%
M48
M72
T01C0.0197
T02C0.0394
T03C0.0400
T04C0.0433
T05C0.0591
T06C0.0630
T07C0.1142
T08C0.1260
%
T01
X2000Y3080
X3850Y4080
X4900Y6480
X4350Y6830
X5283Y4250
X5717Y4250
X6050Y9830
X5550Y11430
X5550Y12430
X7100Y12380
X9250Y9180
X10100Y8230
X8900Y5880
X8900Y3080
X12950Y8780
X10500Y13080
X10300Y12380
X9800Y11980
X9600Y12480
X11500Y21920
X11500Y22420
X11500Y22920
X11500Y23420
X11500Y23920
X11500Y24420
X11500Y24920
X12000Y24920
X12000Y24420
X12000Y23920
X12500Y23920
X13000Y23920
X13500Y23920
X14000Y23920
X14000Y23420
X14000Y22920
X14000Y22420
X14000Y21920
X13500Y21920
X13000Y21920
X12500Y21920
X12000Y21920
X12500Y24420
X12500Y24920
X13000Y24920
X13000Y24420
X13500Y24420
X13500Y24920
X14000Y24920
X14000Y24420
X14500Y24920
X15000Y24920
X15500Y24920
X16100Y24920
X16700Y24920
X17300Y24920
X17800Y24920
X18300Y24920
X18800Y24920
X18800Y24420
X18800Y23920
X18800Y23420
X19300Y23420
X19300Y23920
X19800Y23920
X19800Y23420
X19800Y22920
X19800Y22420
X20300Y22420
X20300Y21920
X20800Y22420
X20300Y22920
X19800Y24420
X19800Y24920
X19300Y24920
X19300Y24420
X17900Y21130
X17400Y21130
X16900Y21130
X16400Y21130
X15900Y21130
X15400Y21130
X14900Y21130
X16500Y17880
X16500Y17380
X16500Y16880
X17000Y16880
X17500Y16880
X17500Y17380
X17500Y17880
X17000Y17880
X17000Y17380
X18000Y17380
X18000Y17880
X18500Y17880
X18500Y17380
X18500Y16880
X18000Y16880
X18600Y13580
X17950Y13130
X17600Y9480
X10200Y22980
X10200Y23580
X10200Y24180
X9700Y24780
X9000Y24780
X8500Y24180
X8500Y23580
X8500Y22980
X9000Y22380
X9700Y22380
X5800Y24230
X3650Y17930
T02
X3764Y16360
X3764Y13801
X5536Y13801
X5536Y16360
T03
X1500Y3380
X1500Y4380
X1500Y5380
X1500Y6380
X1500Y7380
X1500Y8380
X1500Y9380
X1500Y10380
X1500Y11380
X1500Y12380
X1500Y13380
X1500Y14380
X1500Y15380
X2500Y15380
X2500Y14380
X2500Y13380
X2500Y12380
X2500Y11380
X2500Y10380
X2500Y9380
X2500Y8380
X2500Y7380
X2500Y6380
X2500Y5380
X2500Y4380
X2500Y3380
X3500Y7380
X3500Y8380
X4500Y8380
X4500Y7380
X4500Y9580
X4500Y10580
X4500Y11580
X4500Y12580
X6600Y12680
X6600Y13680
X6600Y14680
X6600Y15680
X6600Y16680
X6600Y17680
X6600Y18680
X6600Y19680
X6600Y20680
X6600Y21680
X6600Y22680
X5000Y24080
X4000Y24080
X4300Y17830
X5300Y17830
X6600Y11680
X6600Y10680
X6600Y9680
X6600Y8680
X6600Y7680
X6600Y6680
X6600Y5680
X6600Y4680
X6600Y3680
X19200Y3680
X19200Y4680
X19200Y5680
X19200Y6680
X19200Y7680
X19200Y8680
X19200Y9680
X19200Y10680
X19200Y11680
X19200Y12680
X19200Y13680
X19200Y14680
X19200Y15680
X19200Y16680
X19200Y17680
X19200Y18680
X19200Y19680
X19200Y20680
X19200Y21680
X19200Y22680
X21300Y18680
X21300Y17680
X21300Y16680
X21300Y15680
X21300Y14680
X21300Y13680
X21300Y12680
X21300Y11680
X21300Y10680
X21300Y9680
X21300Y8680
X21300Y7680
X21300Y6680
X21300Y5680
T04
X21200Y20391
X21200Y21769
T05
X11500Y4480
T06
X10500Y3480
X10500Y5480
X12500Y5480
X12500Y3480
T07
X15461Y12620
T08
X21366Y3761
X21366Y24099
X1681Y24099
M30
