G75*
G70*
%OFA0B0*%
%FSLAX24Y24*%
%IPPOS*%
%LPD*%
%AMOC8*
5,1,8,0,0,1.08239X$1,22.5*
%
%ADD10C,0.0000*%
%ADD11C,0.0010*%
D10*
X001581Y002580D02*
X021266Y002580D01*
X020736Y003761D02*
X020738Y003811D01*
X020744Y003861D01*
X020754Y003910D01*
X020768Y003958D01*
X020785Y004005D01*
X020806Y004050D01*
X020831Y004094D01*
X020859Y004135D01*
X020891Y004174D01*
X020925Y004211D01*
X020962Y004245D01*
X021002Y004275D01*
X021044Y004302D01*
X021088Y004326D01*
X021134Y004347D01*
X021181Y004363D01*
X021229Y004376D01*
X021279Y004385D01*
X021328Y004390D01*
X021379Y004391D01*
X021429Y004388D01*
X021478Y004381D01*
X021527Y004370D01*
X021575Y004355D01*
X021621Y004337D01*
X021666Y004315D01*
X021709Y004289D01*
X021750Y004260D01*
X021789Y004228D01*
X021825Y004193D01*
X021857Y004155D01*
X021887Y004115D01*
X021914Y004072D01*
X021937Y004028D01*
X021956Y003982D01*
X021972Y003934D01*
X021984Y003885D01*
X021992Y003836D01*
X021996Y003786D01*
X021996Y003736D01*
X021992Y003686D01*
X021984Y003637D01*
X021972Y003588D01*
X021956Y003540D01*
X021937Y003494D01*
X021914Y003450D01*
X021887Y003407D01*
X021857Y003367D01*
X021825Y003329D01*
X021789Y003294D01*
X021750Y003262D01*
X021709Y003233D01*
X021666Y003207D01*
X021621Y003185D01*
X021575Y003167D01*
X021527Y003152D01*
X021478Y003141D01*
X021429Y003134D01*
X021379Y003131D01*
X021328Y003132D01*
X021279Y003137D01*
X021229Y003146D01*
X021181Y003159D01*
X021134Y003175D01*
X021088Y003196D01*
X021044Y003220D01*
X021002Y003247D01*
X020962Y003277D01*
X020925Y003311D01*
X020891Y003348D01*
X020859Y003387D01*
X020831Y003428D01*
X020806Y003472D01*
X020785Y003517D01*
X020768Y003564D01*
X020754Y003612D01*
X020744Y003661D01*
X020738Y003711D01*
X020736Y003761D01*
X021266Y002580D02*
X021335Y002579D01*
X021404Y002582D01*
X021473Y002589D01*
X021541Y002600D01*
X021609Y002614D01*
X021675Y002633D01*
X021741Y002655D01*
X021805Y002680D01*
X021868Y002709D01*
X021929Y002742D01*
X021988Y002778D01*
X022044Y002817D01*
X022099Y002860D01*
X022151Y002905D01*
X022201Y002953D01*
X022247Y003004D01*
X022291Y003058D01*
X022332Y003114D01*
X022369Y003172D01*
X022403Y003232D01*
X022434Y003294D01*
X022461Y003357D01*
X022485Y003422D01*
X022505Y003488D01*
X022521Y003556D01*
X022534Y003623D01*
X022542Y003692D01*
X022547Y003761D01*
X022547Y024099D01*
X020736Y024099D02*
X020738Y024149D01*
X020744Y024199D01*
X020754Y024248D01*
X020768Y024296D01*
X020785Y024343D01*
X020806Y024388D01*
X020831Y024432D01*
X020859Y024473D01*
X020891Y024512D01*
X020925Y024549D01*
X020962Y024583D01*
X021002Y024613D01*
X021044Y024640D01*
X021088Y024664D01*
X021134Y024685D01*
X021181Y024701D01*
X021229Y024714D01*
X021279Y024723D01*
X021328Y024728D01*
X021379Y024729D01*
X021429Y024726D01*
X021478Y024719D01*
X021527Y024708D01*
X021575Y024693D01*
X021621Y024675D01*
X021666Y024653D01*
X021709Y024627D01*
X021750Y024598D01*
X021789Y024566D01*
X021825Y024531D01*
X021857Y024493D01*
X021887Y024453D01*
X021914Y024410D01*
X021937Y024366D01*
X021956Y024320D01*
X021972Y024272D01*
X021984Y024223D01*
X021992Y024174D01*
X021996Y024124D01*
X021996Y024074D01*
X021992Y024024D01*
X021984Y023975D01*
X021972Y023926D01*
X021956Y023878D01*
X021937Y023832D01*
X021914Y023788D01*
X021887Y023745D01*
X021857Y023705D01*
X021825Y023667D01*
X021789Y023632D01*
X021750Y023600D01*
X021709Y023571D01*
X021666Y023545D01*
X021621Y023523D01*
X021575Y023505D01*
X021527Y023490D01*
X021478Y023479D01*
X021429Y023472D01*
X021379Y023469D01*
X021328Y023470D01*
X021279Y023475D01*
X021229Y023484D01*
X021181Y023497D01*
X021134Y023513D01*
X021088Y023534D01*
X021044Y023558D01*
X021002Y023585D01*
X020962Y023615D01*
X020925Y023649D01*
X020891Y023686D01*
X020859Y023725D01*
X020831Y023766D01*
X020806Y023810D01*
X020785Y023855D01*
X020768Y023902D01*
X020754Y023950D01*
X020744Y023999D01*
X020738Y024049D01*
X020736Y024099D01*
X021366Y025280D02*
X021432Y025278D01*
X021498Y025273D01*
X021564Y025263D01*
X021629Y025250D01*
X021693Y025234D01*
X021756Y025214D01*
X021818Y025190D01*
X021878Y025163D01*
X021937Y025133D01*
X021994Y025099D01*
X022049Y025062D01*
X022102Y025022D01*
X022153Y024980D01*
X022201Y024934D01*
X022247Y024886D01*
X022289Y024835D01*
X022329Y024782D01*
X022366Y024727D01*
X022400Y024670D01*
X022430Y024611D01*
X022457Y024551D01*
X022481Y024489D01*
X022501Y024426D01*
X022517Y024362D01*
X022530Y024297D01*
X022540Y024231D01*
X022545Y024165D01*
X022547Y024099D01*
X021366Y025280D02*
X001681Y025280D01*
X001051Y024099D02*
X001053Y024149D01*
X001059Y024199D01*
X001069Y024248D01*
X001083Y024296D01*
X001100Y024343D01*
X001121Y024388D01*
X001146Y024432D01*
X001174Y024473D01*
X001206Y024512D01*
X001240Y024549D01*
X001277Y024583D01*
X001317Y024613D01*
X001359Y024640D01*
X001403Y024664D01*
X001449Y024685D01*
X001496Y024701D01*
X001544Y024714D01*
X001594Y024723D01*
X001643Y024728D01*
X001694Y024729D01*
X001744Y024726D01*
X001793Y024719D01*
X001842Y024708D01*
X001890Y024693D01*
X001936Y024675D01*
X001981Y024653D01*
X002024Y024627D01*
X002065Y024598D01*
X002104Y024566D01*
X002140Y024531D01*
X002172Y024493D01*
X002202Y024453D01*
X002229Y024410D01*
X002252Y024366D01*
X002271Y024320D01*
X002287Y024272D01*
X002299Y024223D01*
X002307Y024174D01*
X002311Y024124D01*
X002311Y024074D01*
X002307Y024024D01*
X002299Y023975D01*
X002287Y023926D01*
X002271Y023878D01*
X002252Y023832D01*
X002229Y023788D01*
X002202Y023745D01*
X002172Y023705D01*
X002140Y023667D01*
X002104Y023632D01*
X002065Y023600D01*
X002024Y023571D01*
X001981Y023545D01*
X001936Y023523D01*
X001890Y023505D01*
X001842Y023490D01*
X001793Y023479D01*
X001744Y023472D01*
X001694Y023469D01*
X001643Y023470D01*
X001594Y023475D01*
X001544Y023484D01*
X001496Y023497D01*
X001449Y023513D01*
X001403Y023534D01*
X001359Y023558D01*
X001317Y023585D01*
X001277Y023615D01*
X001240Y023649D01*
X001206Y023686D01*
X001174Y023725D01*
X001146Y023766D01*
X001121Y023810D01*
X001100Y023855D01*
X001083Y023902D01*
X001069Y023950D01*
X001059Y023999D01*
X001053Y024049D01*
X001051Y024099D01*
X000500Y024099D02*
X000500Y022830D01*
X005600Y022830D01*
X005600Y018580D01*
X000500Y018580D01*
X000500Y003780D01*
X000500Y003761D01*
X000499Y003695D01*
X000502Y003629D01*
X000509Y003564D01*
X000519Y003499D01*
X000533Y003435D01*
X000551Y003371D01*
X000573Y003309D01*
X000598Y003248D01*
X000627Y003189D01*
X000659Y003131D01*
X000694Y003076D01*
X000733Y003022D01*
X000774Y002971D01*
X000819Y002923D01*
X000866Y002877D01*
X000916Y002834D01*
X000968Y002794D01*
X001022Y002757D01*
X001079Y002723D01*
X001137Y002692D01*
X001197Y002665D01*
X001259Y002642D01*
X001322Y002622D01*
X001385Y002606D01*
X001450Y002594D01*
X001515Y002585D01*
X001581Y002580D01*
X000500Y024099D02*
X000502Y024165D01*
X000507Y024231D01*
X000517Y024297D01*
X000530Y024362D01*
X000546Y024426D01*
X000566Y024489D01*
X000590Y024551D01*
X000617Y024611D01*
X000647Y024670D01*
X000681Y024727D01*
X000718Y024782D01*
X000758Y024835D01*
X000800Y024886D01*
X000846Y024934D01*
X000894Y024980D01*
X000945Y025022D01*
X000998Y025062D01*
X001053Y025099D01*
X001110Y025133D01*
X001169Y025163D01*
X001229Y025190D01*
X001291Y025214D01*
X001354Y025234D01*
X001418Y025250D01*
X001483Y025263D01*
X001549Y025273D01*
X001615Y025278D01*
X001681Y025280D01*
X014890Y012620D02*
X014892Y012667D01*
X014898Y012714D01*
X014907Y012760D01*
X014921Y012805D01*
X014938Y012849D01*
X014959Y012892D01*
X014983Y012932D01*
X015010Y012971D01*
X015041Y013007D01*
X015074Y013040D01*
X015110Y013071D01*
X015149Y013098D01*
X015189Y013122D01*
X015232Y013143D01*
X015276Y013160D01*
X015321Y013174D01*
X015367Y013183D01*
X015414Y013189D01*
X015461Y013191D01*
X015508Y013189D01*
X015555Y013183D01*
X015601Y013174D01*
X015646Y013160D01*
X015690Y013143D01*
X015733Y013122D01*
X015773Y013098D01*
X015812Y013071D01*
X015848Y013040D01*
X015881Y013007D01*
X015912Y012971D01*
X015939Y012932D01*
X015963Y012892D01*
X015984Y012849D01*
X016001Y012805D01*
X016015Y012760D01*
X016024Y012714D01*
X016030Y012667D01*
X016032Y012620D01*
X016030Y012573D01*
X016024Y012526D01*
X016015Y012480D01*
X016001Y012435D01*
X015984Y012391D01*
X015963Y012348D01*
X015939Y012308D01*
X015912Y012269D01*
X015881Y012233D01*
X015848Y012200D01*
X015812Y012169D01*
X015773Y012142D01*
X015733Y012118D01*
X015690Y012097D01*
X015646Y012080D01*
X015601Y012066D01*
X015555Y012057D01*
X015508Y012051D01*
X015461Y012049D01*
X015414Y012051D01*
X015367Y012057D01*
X015321Y012066D01*
X015276Y012080D01*
X015232Y012097D01*
X015189Y012118D01*
X015149Y012142D01*
X015110Y012169D01*
X015074Y012200D01*
X015041Y012233D01*
X015010Y012269D01*
X014983Y012308D01*
X014959Y012348D01*
X014938Y012391D01*
X014921Y012435D01*
X014907Y012480D01*
X014898Y012526D01*
X014892Y012573D01*
X014890Y012620D01*
X015708Y008171D02*
X016692Y008171D01*
X016718Y008169D01*
X016743Y008164D01*
X016767Y008156D01*
X016791Y008145D01*
X016812Y008130D01*
X016831Y008113D01*
X016848Y008094D01*
X016863Y008072D01*
X016874Y008049D01*
X016882Y008025D01*
X016887Y008000D01*
X016889Y007974D01*
X016887Y007948D01*
X016882Y007923D01*
X016874Y007899D01*
X016863Y007875D01*
X016848Y007854D01*
X016831Y007835D01*
X016812Y007818D01*
X016790Y007803D01*
X016767Y007792D01*
X016743Y007784D01*
X016718Y007779D01*
X016692Y007777D01*
X015708Y007777D01*
X015682Y007779D01*
X015657Y007784D01*
X015633Y007792D01*
X015609Y007803D01*
X015588Y007818D01*
X015569Y007835D01*
X015552Y007854D01*
X015537Y007876D01*
X015526Y007899D01*
X015518Y007923D01*
X015513Y007948D01*
X015511Y007974D01*
X015513Y008000D01*
X015518Y008025D01*
X015526Y008049D01*
X015537Y008073D01*
X015552Y008094D01*
X015569Y008113D01*
X015588Y008130D01*
X015609Y008145D01*
X015633Y008156D01*
X015657Y008164D01*
X015682Y008169D01*
X015708Y008171D01*
X015806Y005809D02*
X016594Y005809D01*
X016620Y005807D01*
X016645Y005802D01*
X016669Y005794D01*
X016693Y005783D01*
X016714Y005768D01*
X016733Y005751D01*
X016750Y005732D01*
X016765Y005710D01*
X016776Y005687D01*
X016784Y005663D01*
X016789Y005638D01*
X016791Y005612D01*
X016789Y005586D01*
X016784Y005561D01*
X016776Y005537D01*
X016765Y005513D01*
X016750Y005492D01*
X016733Y005473D01*
X016714Y005456D01*
X016692Y005441D01*
X016669Y005430D01*
X016645Y005422D01*
X016620Y005417D01*
X016594Y005415D01*
X015806Y005415D01*
X015780Y005417D01*
X015755Y005422D01*
X015731Y005430D01*
X015707Y005441D01*
X015686Y005456D01*
X015667Y005473D01*
X015650Y005492D01*
X015635Y005514D01*
X015624Y005537D01*
X015616Y005561D01*
X015611Y005586D01*
X015609Y005612D01*
X015611Y005638D01*
X015616Y005663D01*
X015624Y005687D01*
X015635Y005711D01*
X015650Y005732D01*
X015667Y005751D01*
X015686Y005768D01*
X015707Y005783D01*
X015731Y005794D01*
X015755Y005802D01*
X015780Y005807D01*
X015806Y005809D01*
X017854Y006399D02*
X017854Y007187D01*
X017853Y007187D02*
X017855Y007213D01*
X017860Y007238D01*
X017868Y007262D01*
X017879Y007286D01*
X017894Y007307D01*
X017911Y007326D01*
X017930Y007343D01*
X017951Y007358D01*
X017975Y007369D01*
X017999Y007377D01*
X018024Y007382D01*
X018050Y007384D01*
X018076Y007382D01*
X018101Y007377D01*
X018125Y007369D01*
X018149Y007358D01*
X018170Y007343D01*
X018189Y007326D01*
X018206Y007307D01*
X018221Y007285D01*
X018232Y007262D01*
X018240Y007238D01*
X018245Y007213D01*
X018247Y007187D01*
X018247Y006399D01*
X018245Y006373D01*
X018240Y006348D01*
X018232Y006324D01*
X018221Y006300D01*
X018206Y006279D01*
X018189Y006260D01*
X018170Y006243D01*
X018148Y006228D01*
X018125Y006217D01*
X018101Y006209D01*
X018076Y006204D01*
X018050Y006202D01*
X018024Y006204D01*
X017999Y006209D01*
X017975Y006217D01*
X017951Y006228D01*
X017930Y006243D01*
X017911Y006260D01*
X017894Y006279D01*
X017879Y006301D01*
X017868Y006324D01*
X017860Y006348D01*
X017855Y006373D01*
X017853Y006399D01*
D11*
X018549Y006464D02*
X018567Y006464D01*
X018604Y006464D02*
X018677Y006464D01*
X018677Y006446D02*
X018677Y006482D01*
X018677Y006519D02*
X018677Y006556D01*
X018677Y006538D02*
X018567Y006538D01*
X018567Y006519D01*
X018604Y006464D02*
X018604Y006446D01*
X018604Y006408D02*
X018604Y006390D01*
X018641Y006353D01*
X018677Y006353D02*
X018604Y006353D01*
X018604Y006316D02*
X018604Y006261D01*
X018622Y006243D01*
X018659Y006243D01*
X018677Y006261D01*
X018677Y006316D01*
X018567Y006316D01*
X018604Y006095D02*
X018604Y006059D01*
X018585Y006077D02*
X018659Y006077D01*
X018677Y006095D01*
X018659Y006022D02*
X018677Y006003D01*
X018677Y005967D01*
X018659Y005948D01*
X018622Y005948D01*
X018604Y005967D01*
X018604Y006003D01*
X018622Y006022D01*
X018659Y006022D01*
X018677Y005911D02*
X018677Y005875D01*
X018677Y005893D02*
X018567Y005893D01*
X018567Y005875D01*
X018604Y005838D02*
X018604Y005782D01*
X018622Y005764D01*
X018641Y005782D01*
X018641Y005819D01*
X018659Y005838D01*
X018677Y005819D01*
X018677Y005764D01*
X018677Y006593D02*
X018677Y006630D01*
X018677Y006611D02*
X018567Y006611D01*
X018567Y006593D01*
X018604Y006777D02*
X018659Y006777D01*
X018677Y006795D01*
X018659Y006814D01*
X018677Y006832D01*
X018659Y006850D01*
X018604Y006850D01*
X018604Y006887D02*
X018604Y006906D01*
X018677Y006906D01*
X018677Y006924D02*
X018677Y006887D01*
X018659Y006979D02*
X018677Y006998D01*
X018659Y006979D02*
X018585Y006979D01*
X018604Y006961D02*
X018604Y006998D01*
X018622Y007035D02*
X018604Y007053D01*
X018604Y007090D01*
X018622Y007108D01*
X018677Y007108D01*
X018677Y007035D02*
X018567Y007035D01*
X018567Y006906D02*
X018549Y006906D01*
X018622Y007256D02*
X018659Y007256D01*
X018677Y007274D01*
X018677Y007329D01*
X018659Y007366D02*
X018677Y007385D01*
X018677Y007421D01*
X018659Y007440D01*
X018622Y007440D01*
X018604Y007421D01*
X018604Y007385D01*
X018622Y007366D01*
X018659Y007366D01*
X018604Y007329D02*
X018604Y007274D01*
X018622Y007256D01*
X018604Y007477D02*
X018604Y007532D01*
X018622Y007550D01*
X018659Y007550D01*
X018677Y007532D01*
X018677Y007477D01*
X018714Y007477D02*
X018604Y007477D01*
X018604Y007587D02*
X018604Y007642D01*
X018622Y007661D01*
X018659Y007661D01*
X018677Y007642D01*
X018677Y007587D01*
X018714Y007587D02*
X018604Y007587D01*
X018622Y007698D02*
X018604Y007716D01*
X018604Y007753D01*
X018622Y007771D01*
X018641Y007771D01*
X018641Y007698D01*
X018659Y007698D02*
X018622Y007698D01*
X018659Y007698D02*
X018677Y007716D01*
X018677Y007753D01*
X018677Y007808D02*
X018604Y007808D01*
X018641Y007808D02*
X018604Y007845D01*
X018604Y007863D01*
X017320Y008564D02*
X017302Y008564D01*
X017265Y008528D01*
X017265Y008564D02*
X017265Y008491D01*
X017228Y008528D02*
X017154Y008528D01*
X017154Y008546D02*
X017173Y008564D01*
X017209Y008564D01*
X017228Y008546D01*
X017228Y008528D01*
X017209Y008491D02*
X017173Y008491D01*
X017154Y008509D01*
X017154Y008546D01*
X017117Y008546D02*
X017117Y008509D01*
X017099Y008491D01*
X017044Y008491D01*
X017044Y008454D02*
X017044Y008564D01*
X017099Y008564D01*
X017117Y008546D01*
X017007Y008546D02*
X017007Y008509D01*
X016988Y008491D01*
X016933Y008491D01*
X016933Y008454D02*
X016933Y008564D01*
X016988Y008564D01*
X017007Y008546D01*
X016896Y008546D02*
X016878Y008564D01*
X016841Y008564D01*
X016823Y008546D01*
X016823Y008509D01*
X016841Y008491D01*
X016878Y008491D01*
X016896Y008509D01*
X016896Y008546D01*
X016786Y008564D02*
X016731Y008564D01*
X016712Y008546D01*
X016712Y008509D01*
X016731Y008491D01*
X016786Y008491D01*
X016565Y008491D02*
X016565Y008546D01*
X016546Y008564D01*
X016510Y008564D01*
X016491Y008546D01*
X016454Y008564D02*
X016418Y008564D01*
X016436Y008583D02*
X016436Y008509D01*
X016454Y008491D01*
X016491Y008491D02*
X016491Y008601D01*
X016362Y008601D02*
X016362Y008619D01*
X016362Y008564D02*
X016362Y008491D01*
X016344Y008491D02*
X016381Y008491D01*
X016362Y008564D02*
X016344Y008564D01*
X016307Y008564D02*
X016307Y008509D01*
X016289Y008491D01*
X016270Y008509D01*
X016252Y008491D01*
X016234Y008509D01*
X016234Y008564D01*
X016086Y008491D02*
X016049Y008491D01*
X016068Y008491D02*
X016068Y008601D01*
X016049Y008601D01*
X015994Y008601D02*
X015994Y008491D01*
X015976Y008491D02*
X016012Y008491D01*
X015939Y008491D02*
X015902Y008491D01*
X015920Y008491D02*
X015920Y008564D01*
X015902Y008564D01*
X015865Y008564D02*
X015847Y008564D01*
X015810Y008528D01*
X015810Y008564D02*
X015810Y008491D01*
X015773Y008491D02*
X015718Y008491D01*
X015700Y008509D01*
X015700Y008546D01*
X015718Y008564D01*
X015773Y008564D01*
X015773Y008601D02*
X015773Y008491D01*
X015920Y008601D02*
X015920Y008619D01*
X015976Y008601D02*
X015994Y008601D01*
X015552Y008564D02*
X015515Y008564D01*
X015534Y008583D02*
X015534Y008509D01*
X015552Y008491D01*
X015478Y008509D02*
X015478Y008546D01*
X015460Y008564D01*
X015423Y008564D01*
X015405Y008546D01*
X015405Y008509D01*
X015423Y008491D01*
X015460Y008491D01*
X015478Y008509D01*
X015368Y008491D02*
X015331Y008491D01*
X015350Y008491D02*
X015350Y008601D01*
X015331Y008601D01*
X015294Y008564D02*
X015239Y008564D01*
X015221Y008546D01*
X015239Y008528D01*
X015276Y008528D01*
X015294Y008509D01*
X015276Y008491D01*
X015221Y008491D01*
X015331Y005058D02*
X015350Y005058D01*
X015350Y004948D01*
X015368Y004948D02*
X015331Y004948D01*
X015294Y004966D02*
X015276Y004984D01*
X015239Y004984D01*
X015221Y005003D01*
X015239Y005021D01*
X015294Y005021D01*
X015294Y004966D02*
X015276Y004948D01*
X015221Y004948D01*
X015405Y004966D02*
X015423Y004948D01*
X015460Y004948D01*
X015478Y004966D01*
X015478Y005003D01*
X015460Y005021D01*
X015423Y005021D01*
X015405Y005003D01*
X015405Y004966D01*
X015515Y005021D02*
X015552Y005021D01*
X015534Y005039D02*
X015534Y004966D01*
X015552Y004948D01*
X015700Y004966D02*
X015700Y005003D01*
X015718Y005021D01*
X015773Y005021D01*
X015773Y005058D02*
X015773Y004948D01*
X015718Y004948D01*
X015700Y004966D01*
X015810Y004984D02*
X015847Y005021D01*
X015865Y005021D01*
X015902Y005021D02*
X015920Y005021D01*
X015920Y004948D01*
X015902Y004948D02*
X015939Y004948D01*
X015976Y004948D02*
X016012Y004948D01*
X015994Y004948D02*
X015994Y005058D01*
X015976Y005058D01*
X015920Y005058D02*
X015920Y005076D01*
X015810Y005021D02*
X015810Y004948D01*
X016049Y004948D02*
X016086Y004948D01*
X016068Y004948D02*
X016068Y005058D01*
X016049Y005058D01*
X016234Y005021D02*
X016234Y004966D01*
X016252Y004948D01*
X016270Y004966D01*
X016289Y004948D01*
X016307Y004966D01*
X016307Y005021D01*
X016344Y005021D02*
X016362Y005021D01*
X016362Y004948D01*
X016344Y004948D02*
X016381Y004948D01*
X016436Y004966D02*
X016454Y004948D01*
X016436Y004966D02*
X016436Y005039D01*
X016418Y005021D02*
X016454Y005021D01*
X016491Y005003D02*
X016510Y005021D01*
X016546Y005021D01*
X016565Y005003D01*
X016565Y004948D01*
X016491Y004948D02*
X016491Y005058D01*
X016362Y005058D02*
X016362Y005076D01*
X016712Y005003D02*
X016712Y004966D01*
X016731Y004948D01*
X016786Y004948D01*
X016823Y004966D02*
X016841Y004948D01*
X016878Y004948D01*
X016896Y004966D01*
X016896Y005003D01*
X016878Y005021D01*
X016841Y005021D01*
X016823Y005003D01*
X016823Y004966D01*
X016786Y005021D02*
X016731Y005021D01*
X016712Y005003D01*
X016933Y005021D02*
X016988Y005021D01*
X017007Y005003D01*
X017007Y004966D01*
X016988Y004948D01*
X016933Y004948D01*
X016933Y004911D02*
X016933Y005021D01*
X017044Y005021D02*
X017099Y005021D01*
X017117Y005003D01*
X017117Y004966D01*
X017099Y004948D01*
X017044Y004948D01*
X017044Y004911D02*
X017044Y005021D01*
X017154Y005003D02*
X017173Y005021D01*
X017209Y005021D01*
X017228Y005003D01*
X017228Y004984D01*
X017154Y004984D01*
X017154Y004966D02*
X017154Y005003D01*
X017154Y004966D02*
X017173Y004948D01*
X017209Y004948D01*
X017265Y004948D02*
X017265Y005021D01*
X017265Y004984D02*
X017302Y005021D01*
X017320Y005021D01*
M02*
