G75*
G70*
%OFA0B0*%
%FSLAX24Y24*%
%IPPOS*%
%LPD*%
%AMOC8*
5,1,8,0,0,1.08239X$1,22.5*
%
%ADD10C,0.0000*%
%ADD11R,0.0315X0.0472*%
%ADD12R,0.0492X0.0433*%
%ADD13R,0.1693X0.0984*%
%ADD14R,0.0984X0.1693*%
%ADD15R,0.0400X0.1200*%
%ADD16R,0.1500X0.1200*%
%ADD17R,0.1500X0.1100*%
%ADD18R,0.1142X0.2126*%
%ADD19R,0.0472X0.0315*%
%ADD20R,0.0866X0.0335*%
%ADD21R,0.0413X0.0394*%
%ADD22R,0.0480X0.0197*%
%ADD23R,0.0800X0.0260*%
%ADD24R,0.0433X0.0492*%
%ADD25R,0.0374X0.0256*%
%ADD26R,0.0591X0.0236*%
%ADD27R,0.0256X0.0374*%
D10*
X001581Y002580D02*
X021266Y002580D01*
X020736Y003761D02*
X020738Y003811D01*
X020744Y003861D01*
X020754Y003910D01*
X020768Y003958D01*
X020785Y004005D01*
X020806Y004050D01*
X020831Y004094D01*
X020859Y004135D01*
X020891Y004174D01*
X020925Y004211D01*
X020962Y004245D01*
X021002Y004275D01*
X021044Y004302D01*
X021088Y004326D01*
X021134Y004347D01*
X021181Y004363D01*
X021229Y004376D01*
X021279Y004385D01*
X021328Y004390D01*
X021379Y004391D01*
X021429Y004388D01*
X021478Y004381D01*
X021527Y004370D01*
X021575Y004355D01*
X021621Y004337D01*
X021666Y004315D01*
X021709Y004289D01*
X021750Y004260D01*
X021789Y004228D01*
X021825Y004193D01*
X021857Y004155D01*
X021887Y004115D01*
X021914Y004072D01*
X021937Y004028D01*
X021956Y003982D01*
X021972Y003934D01*
X021984Y003885D01*
X021992Y003836D01*
X021996Y003786D01*
X021996Y003736D01*
X021992Y003686D01*
X021984Y003637D01*
X021972Y003588D01*
X021956Y003540D01*
X021937Y003494D01*
X021914Y003450D01*
X021887Y003407D01*
X021857Y003367D01*
X021825Y003329D01*
X021789Y003294D01*
X021750Y003262D01*
X021709Y003233D01*
X021666Y003207D01*
X021621Y003185D01*
X021575Y003167D01*
X021527Y003152D01*
X021478Y003141D01*
X021429Y003134D01*
X021379Y003131D01*
X021328Y003132D01*
X021279Y003137D01*
X021229Y003146D01*
X021181Y003159D01*
X021134Y003175D01*
X021088Y003196D01*
X021044Y003220D01*
X021002Y003247D01*
X020962Y003277D01*
X020925Y003311D01*
X020891Y003348D01*
X020859Y003387D01*
X020831Y003428D01*
X020806Y003472D01*
X020785Y003517D01*
X020768Y003564D01*
X020754Y003612D01*
X020744Y003661D01*
X020738Y003711D01*
X020736Y003761D01*
X021266Y002580D02*
X021335Y002579D01*
X021404Y002582D01*
X021473Y002589D01*
X021541Y002600D01*
X021609Y002614D01*
X021675Y002633D01*
X021741Y002655D01*
X021805Y002680D01*
X021868Y002709D01*
X021929Y002742D01*
X021988Y002778D01*
X022044Y002817D01*
X022099Y002860D01*
X022151Y002905D01*
X022201Y002953D01*
X022247Y003004D01*
X022291Y003058D01*
X022332Y003114D01*
X022369Y003172D01*
X022403Y003232D01*
X022434Y003294D01*
X022461Y003357D01*
X022485Y003422D01*
X022505Y003488D01*
X022521Y003556D01*
X022534Y003623D01*
X022542Y003692D01*
X022547Y003761D01*
X022547Y024099D01*
X020736Y024099D02*
X020738Y024149D01*
X020744Y024199D01*
X020754Y024248D01*
X020768Y024296D01*
X020785Y024343D01*
X020806Y024388D01*
X020831Y024432D01*
X020859Y024473D01*
X020891Y024512D01*
X020925Y024549D01*
X020962Y024583D01*
X021002Y024613D01*
X021044Y024640D01*
X021088Y024664D01*
X021134Y024685D01*
X021181Y024701D01*
X021229Y024714D01*
X021279Y024723D01*
X021328Y024728D01*
X021379Y024729D01*
X021429Y024726D01*
X021478Y024719D01*
X021527Y024708D01*
X021575Y024693D01*
X021621Y024675D01*
X021666Y024653D01*
X021709Y024627D01*
X021750Y024598D01*
X021789Y024566D01*
X021825Y024531D01*
X021857Y024493D01*
X021887Y024453D01*
X021914Y024410D01*
X021937Y024366D01*
X021956Y024320D01*
X021972Y024272D01*
X021984Y024223D01*
X021992Y024174D01*
X021996Y024124D01*
X021996Y024074D01*
X021992Y024024D01*
X021984Y023975D01*
X021972Y023926D01*
X021956Y023878D01*
X021937Y023832D01*
X021914Y023788D01*
X021887Y023745D01*
X021857Y023705D01*
X021825Y023667D01*
X021789Y023632D01*
X021750Y023600D01*
X021709Y023571D01*
X021666Y023545D01*
X021621Y023523D01*
X021575Y023505D01*
X021527Y023490D01*
X021478Y023479D01*
X021429Y023472D01*
X021379Y023469D01*
X021328Y023470D01*
X021279Y023475D01*
X021229Y023484D01*
X021181Y023497D01*
X021134Y023513D01*
X021088Y023534D01*
X021044Y023558D01*
X021002Y023585D01*
X020962Y023615D01*
X020925Y023649D01*
X020891Y023686D01*
X020859Y023725D01*
X020831Y023766D01*
X020806Y023810D01*
X020785Y023855D01*
X020768Y023902D01*
X020754Y023950D01*
X020744Y023999D01*
X020738Y024049D01*
X020736Y024099D01*
X021366Y025280D02*
X021432Y025278D01*
X021498Y025273D01*
X021564Y025263D01*
X021629Y025250D01*
X021693Y025234D01*
X021756Y025214D01*
X021818Y025190D01*
X021878Y025163D01*
X021937Y025133D01*
X021994Y025099D01*
X022049Y025062D01*
X022102Y025022D01*
X022153Y024980D01*
X022201Y024934D01*
X022247Y024886D01*
X022289Y024835D01*
X022329Y024782D01*
X022366Y024727D01*
X022400Y024670D01*
X022430Y024611D01*
X022457Y024551D01*
X022481Y024489D01*
X022501Y024426D01*
X022517Y024362D01*
X022530Y024297D01*
X022540Y024231D01*
X022545Y024165D01*
X022547Y024099D01*
X021366Y025280D02*
X001681Y025280D01*
X001051Y024099D02*
X001053Y024149D01*
X001059Y024199D01*
X001069Y024248D01*
X001083Y024296D01*
X001100Y024343D01*
X001121Y024388D01*
X001146Y024432D01*
X001174Y024473D01*
X001206Y024512D01*
X001240Y024549D01*
X001277Y024583D01*
X001317Y024613D01*
X001359Y024640D01*
X001403Y024664D01*
X001449Y024685D01*
X001496Y024701D01*
X001544Y024714D01*
X001594Y024723D01*
X001643Y024728D01*
X001694Y024729D01*
X001744Y024726D01*
X001793Y024719D01*
X001842Y024708D01*
X001890Y024693D01*
X001936Y024675D01*
X001981Y024653D01*
X002024Y024627D01*
X002065Y024598D01*
X002104Y024566D01*
X002140Y024531D01*
X002172Y024493D01*
X002202Y024453D01*
X002229Y024410D01*
X002252Y024366D01*
X002271Y024320D01*
X002287Y024272D01*
X002299Y024223D01*
X002307Y024174D01*
X002311Y024124D01*
X002311Y024074D01*
X002307Y024024D01*
X002299Y023975D01*
X002287Y023926D01*
X002271Y023878D01*
X002252Y023832D01*
X002229Y023788D01*
X002202Y023745D01*
X002172Y023705D01*
X002140Y023667D01*
X002104Y023632D01*
X002065Y023600D01*
X002024Y023571D01*
X001981Y023545D01*
X001936Y023523D01*
X001890Y023505D01*
X001842Y023490D01*
X001793Y023479D01*
X001744Y023472D01*
X001694Y023469D01*
X001643Y023470D01*
X001594Y023475D01*
X001544Y023484D01*
X001496Y023497D01*
X001449Y023513D01*
X001403Y023534D01*
X001359Y023558D01*
X001317Y023585D01*
X001277Y023615D01*
X001240Y023649D01*
X001206Y023686D01*
X001174Y023725D01*
X001146Y023766D01*
X001121Y023810D01*
X001100Y023855D01*
X001083Y023902D01*
X001069Y023950D01*
X001059Y023999D01*
X001053Y024049D01*
X001051Y024099D01*
X000500Y024099D02*
X000500Y022830D01*
X005600Y022830D01*
X005600Y018580D01*
X000500Y018580D01*
X000500Y003780D01*
X000500Y003761D01*
X000499Y003695D01*
X000502Y003629D01*
X000509Y003564D01*
X000519Y003499D01*
X000533Y003435D01*
X000551Y003371D01*
X000573Y003309D01*
X000598Y003248D01*
X000627Y003189D01*
X000659Y003131D01*
X000694Y003076D01*
X000733Y003022D01*
X000774Y002971D01*
X000819Y002923D01*
X000866Y002877D01*
X000916Y002834D01*
X000968Y002794D01*
X001022Y002757D01*
X001079Y002723D01*
X001137Y002692D01*
X001197Y002665D01*
X001259Y002642D01*
X001322Y002622D01*
X001385Y002606D01*
X001450Y002594D01*
X001515Y002585D01*
X001581Y002580D01*
X000500Y024099D02*
X000502Y024165D01*
X000507Y024231D01*
X000517Y024297D01*
X000530Y024362D01*
X000546Y024426D01*
X000566Y024489D01*
X000590Y024551D01*
X000617Y024611D01*
X000647Y024670D01*
X000681Y024727D01*
X000718Y024782D01*
X000758Y024835D01*
X000800Y024886D01*
X000846Y024934D01*
X000894Y024980D01*
X000945Y025022D01*
X000998Y025062D01*
X001053Y025099D01*
X001110Y025133D01*
X001169Y025163D01*
X001229Y025190D01*
X001291Y025214D01*
X001354Y025234D01*
X001418Y025250D01*
X001483Y025263D01*
X001549Y025273D01*
X001615Y025278D01*
X001681Y025280D01*
X014890Y012620D02*
X014892Y012667D01*
X014898Y012714D01*
X014907Y012760D01*
X014921Y012805D01*
X014938Y012849D01*
X014959Y012892D01*
X014983Y012932D01*
X015010Y012971D01*
X015041Y013007D01*
X015074Y013040D01*
X015110Y013071D01*
X015149Y013098D01*
X015189Y013122D01*
X015232Y013143D01*
X015276Y013160D01*
X015321Y013174D01*
X015367Y013183D01*
X015414Y013189D01*
X015461Y013191D01*
X015508Y013189D01*
X015555Y013183D01*
X015601Y013174D01*
X015646Y013160D01*
X015690Y013143D01*
X015733Y013122D01*
X015773Y013098D01*
X015812Y013071D01*
X015848Y013040D01*
X015881Y013007D01*
X015912Y012971D01*
X015939Y012932D01*
X015963Y012892D01*
X015984Y012849D01*
X016001Y012805D01*
X016015Y012760D01*
X016024Y012714D01*
X016030Y012667D01*
X016032Y012620D01*
X016030Y012573D01*
X016024Y012526D01*
X016015Y012480D01*
X016001Y012435D01*
X015984Y012391D01*
X015963Y012348D01*
X015939Y012308D01*
X015912Y012269D01*
X015881Y012233D01*
X015848Y012200D01*
X015812Y012169D01*
X015773Y012142D01*
X015733Y012118D01*
X015690Y012097D01*
X015646Y012080D01*
X015601Y012066D01*
X015555Y012057D01*
X015508Y012051D01*
X015461Y012049D01*
X015414Y012051D01*
X015367Y012057D01*
X015321Y012066D01*
X015276Y012080D01*
X015232Y012097D01*
X015189Y012118D01*
X015149Y012142D01*
X015110Y012169D01*
X015074Y012200D01*
X015041Y012233D01*
X015010Y012269D01*
X014983Y012308D01*
X014959Y012348D01*
X014938Y012391D01*
X014921Y012435D01*
X014907Y012480D01*
X014898Y012526D01*
X014892Y012573D01*
X014890Y012620D01*
D11*
X012754Y009480D03*
X012046Y009480D03*
X010454Y008680D03*
X009746Y008680D03*
X009154Y008680D03*
X008446Y008680D03*
X008254Y013030D03*
X008946Y013080D03*
X009654Y013080D03*
X010946Y013080D03*
X011654Y013080D03*
X007546Y013030D03*
X005754Y003080D03*
X005046Y003080D03*
X006896Y024680D03*
X007604Y024680D03*
X017596Y012680D03*
X017596Y011980D03*
X017596Y011280D03*
X017596Y010580D03*
X018304Y010580D03*
X018304Y011280D03*
X018304Y011980D03*
X018304Y012680D03*
D12*
X006200Y023738D03*
X006200Y024723D03*
D13*
X014166Y016080D03*
X017434Y016080D03*
D14*
X009350Y020347D03*
X009350Y023614D03*
D15*
X015060Y018880D03*
X015730Y018880D03*
X016400Y018880D03*
X017070Y018880D03*
X017740Y018880D03*
D16*
X017350Y022280D03*
X017350Y023780D03*
X015450Y023780D03*
X015450Y022280D03*
D17*
X012900Y022885D03*
X012900Y020075D03*
D18*
X012209Y016680D03*
X008391Y016680D03*
D19*
X007600Y012235D03*
X007600Y011526D03*
X007600Y010785D03*
X007600Y010076D03*
X004300Y004435D03*
X004300Y003726D03*
X003400Y003726D03*
X003400Y004435D03*
X002900Y016026D03*
X002900Y016735D03*
X001900Y016735D03*
X001900Y016026D03*
X001050Y016076D03*
X001050Y016785D03*
X001050Y017326D03*
X001050Y018035D03*
X012750Y008235D03*
X012750Y007526D03*
D20*
X008700Y005022D03*
X008700Y003939D03*
D21*
X008100Y004480D03*
X009300Y004480D03*
D22*
X002918Y017306D03*
X002918Y017680D03*
X002918Y018054D03*
X001882Y018054D03*
X001882Y017680D03*
X001882Y017306D03*
D23*
X008590Y012380D03*
X008590Y011880D03*
X008590Y011380D03*
X008590Y010880D03*
X008590Y010380D03*
X008590Y009880D03*
X008590Y009380D03*
X011010Y009380D03*
X011010Y009880D03*
X011010Y010380D03*
X011010Y010880D03*
X011010Y011380D03*
X011010Y011880D03*
X011010Y012380D03*
D24*
X004392Y003080D03*
X003408Y003080D03*
D25*
X011097Y007906D03*
X011097Y008654D03*
X012003Y008280D03*
D26*
X005563Y006530D03*
X005563Y006030D03*
X005563Y005530D03*
X005563Y005030D03*
X003437Y005030D03*
X003437Y005530D03*
X003437Y006030D03*
X003437Y006530D03*
D27*
X017526Y009028D03*
X017900Y009933D03*
X018274Y009028D03*
M02*
